<?xml version="1.0" encoding="utf-8"?>
<!-- Generator: Adobe Illustrator 21.0.2, SVG Export Plug-In . SVG Version: 6.00 Build 0)  -->
<svg version="1.1" id="Layer_1" xmlns="http://www.w3.org/2000/svg" xmlns:xlink="http://www.w3.org/1999/xlink" x="0px" y="0px"
	 viewBox="0 0 63.6 63.6" style="enable-background:new 0 0 63.6 63.6;" xml:space="preserve">
<style type="text/css">
	.st0{fill:#DB4437;}
	.st1{fill:#FFFFFF;}
</style>
<g>
	<circle class="st0" cx="31.8" cy="31.8" r="31.8"/>
	<g>
		<path class="st1" d="M44.8,42.3c-0.6,0.4-1.3,0.6-2,0.6c-7.3,0-14.7,0-22,0c-0.7,0-1.4-0.2-2-0.6c3.1-3.5,6.3-7,9.4-10.6
			c0.2,0.2,0.4,0.3,0.6,0.5c0.8,0.7,1.6,1.4,2.3,2c0.4,0.4,0.9,0.4,1.3,0c0.9-0.8,1.8-1.6,2.7-2.4c0.1-0.1,0.1-0.1,0.2-0.2
			C38.5,35.3,41.7,38.8,44.8,42.3z"/>
		<path class="st1" d="M19,21.2c0.5-0.3,1.1-0.4,1.6-0.5c0.1,0,0.2,0,0.3,0c7.3,0,14.6,0,21.8,0c0.7,0,1.3,0.1,1.9,0.5
			c-0.1,0.1-0.1,0.1-0.2,0.2C40.3,25,36.1,28.6,32,32.3c-0.2,0.1-0.3,0.1-0.4,0c-4.1-3.6-8.3-7.2-12.4-10.9
			C19.1,21.3,19.1,21.3,19,21.2z"/>
		<path class="st1" d="M36.8,30.5c3.1-2.7,6.1-5.4,9.2-8.1c0.4,0.5,0.5,1.1,0.6,1.7c0,0.1,0,0.3,0,0.4c0,4.8,0,9.7,0,14.5
			c0,0.6-0.1,1.2-0.4,1.8c0,0,0,0.1-0.1,0.1C43,37.5,39.9,34,36.8,30.5z"/>
		<path class="st1" d="M17.5,41c-0.3-0.5-0.4-1-0.5-1.5c0-0.1,0-0.3,0-0.4c0-4.8,0-9.7,0-14.5c0-0.7,0.2-1.4,0.6-2.1
			c3.1,2.7,6.1,5.4,9.2,8.1C23.7,34,20.6,37.5,17.5,41z"/>
	</g>
</g>
</svg>
