<?xml version="1.0" encoding="utf-8"?>
<!-- Generator: Adobe Illustrator 21.0.2, SVG Export Plug-In . SVG Version: 6.00 Build 0)  -->
<svg version="1.1" id="Layer_1" xmlns="http://www.w3.org/2000/svg" xmlns:xlink="http://www.w3.org/1999/xlink" x="0px" y="0px"
	 viewBox="0 0 66 66.1" style="enable-background:new 0 0 66 66.1;" xml:space="preserve">
<style type="text/css">
	.st0{fill:#3954A1;}
</style>
<path class="st0" d="M33,66.1C14.8,66.1,0,51.3,0,33C0,14.8,14.8,0,33.1,0C51.2,0,66,14.8,66,33C66,51.3,51.3,66.1,33,66.1z
	 M42.3,12.5c-2,0-3.9,0-5.8,0c-5.9,0-8.9,3.1-9,9c0,1.4,0,2.7,0,4.3c-1.4,0-2.7,0-4,0c0,2.5,0,4.8,0,7.2c1.4,0,2.6,0,4,0
	c0,6.9,0,13.6,0,20.2c2.9,0,5.6,0,8.4,0c0-6.8,0-13.5,0-20.4c2,0,3.8,0,5.7,0c0.2-2.4,0.5-4.7,0.7-7.1c-2.2,0-4.3,0-6.5,0
	c0-1.5,0-2.8,0-4.1c0-1.5,0.6-2,2.1-2.1c1.4,0,2.7,0,4.2,0C42.3,17.1,42.3,14.9,42.3,12.5z"/>
</svg>
