<?xml version="1.0" encoding="utf-8"?>
<!-- Generator: Adobe Illustrator 21.0.2, SVG Export Plug-In . SVG Version: 6.00 Build 0)  -->
<svg version="1.1" id="Layer_1" xmlns="http://www.w3.org/2000/svg" xmlns:xlink="http://www.w3.org/1999/xlink" x="0px" y="0px"
	 viewBox="0 0 334 320" style="enable-background:new 0 0 334 320;" xml:space="preserve">
<style type="text/css">
	.st0{fill:#42BAB6;}
	.st1{opacity:0.8;}
	.st2{fill:#5AC3BF;}
	.st3{display:none;}
	.st4{display:inline;}
	.st5{fill:none;}
</style>
<g>
	<g>
		<circle class="st0" cx="165.5" cy="160.8" r="149.8"/>
		<g>
			<g>
				<g>
					<g class="st1">
						<path class="st2" d="M302.7,160.8c1.3-6.1,2-16.1,0.5-28.2c-0.2-1.5-0.5-3-0.7-4.6c-0.1-0.8-0.3-1.6-0.4-2.4
							c-0.2-0.8-0.3-1.6-0.5-2.4c-0.4-1.6-0.7-3.2-1.1-4.9c-0.5-1.6-0.9-3.3-1.4-4.9c-2-6.6-4.6-13.4-7.8-20
							c-3.3-6.6-7.1-13.1-11.3-19.1c-4.2-6.1-9-11.6-13.7-16.7c-1.2-1.2-2.4-2.5-3.6-3.7c-1.2-1.2-2.5-2.3-3.7-3.4
							c-1.2-1.1-2.4-2.2-3.6-3.2c-1.2-1-2.4-2.1-3.6-3c-1.2-0.9-2.4-1.9-3.5-2.7c-0.6-0.4-1.1-0.9-1.7-1.3c-0.6-0.4-1.1-0.8-1.7-1.2
							c-1.1-0.8-2.2-1.6-3.3-2.3c-1.1-0.8-2.1-1.4-3.1-2.1c-3.1-2-6.2-3.7-9-5.3c-1.4-0.8-2.9-1.5-4.2-2.2c-1.4-0.7-2.7-1.4-4-2
							c-2.6-1.2-5-2.4-7.4-3.2c-2.3-0.9-4.4-1.9-6.5-2.6c-1.7-0.6-2-0.8-1.1-0.5c0.9,0.3,3,0.9,6,2.1c6,2.3,15.7,6.6,26.2,13.6
							c9.5,5.9,20.2,14,30.7,25.4c-5.9-7.7-12.5-14.8-19.2-20.8c-6.7-6-13.4-10.9-19.2-14.8c-9.1-4.5-18.8-8.2-29-10.9
							c-11.2-2.9-22.6-4.5-34.1-4.8c-11.4-0.3-22.9,0.6-34.1,2.9C111,16.3,89.6,25.7,70.8,39.5c-6.8,4.9-17,13.8-25.6,24.2
							c-1.1,1.3-2.1,2.6-3.2,3.9c-1.1,1.3-2,2.7-3,4c-2,2.6-3.7,5.3-5.5,7.8c-0.9,1.2-1.6,2.5-2.4,3.7c-0.8,1.2-1.5,2.4-2.2,3.5
							c-1.3,2.3-2.5,4.3-3.6,6.1c7.7-15.5,18-29.6,30.3-41.7c12.3-12,26.6-22.1,42.1-29.5c31.1-14.8,67-18.8,100.3-11.2
							c-1.8-0.6-3.6-1-5.3-1.5C184,7,175,5.9,166,5.7c-9-0.2-18.1,0.4-27.1,1.7c-9,1.3-17.9,3.4-26.5,6.4c-8.6,2.9-17,6.6-25.1,11
							c-5.4,3-10.7,6.5-16.1,10.1c5.2-3.6,10.5-7.1,16.1-10.1c7.1-4,14.2-7.7,21.9-10.7c7.6-3.1,15.6-5.7,24.3-7.6
							c10.8-2.1,23.4-2.4,34.3-2.1c8.9,0.3,17,2.2,25.1,4.3l4,0.8l3.9,1c1.3,0.3,2.6,0.6,3.9,1l3.9,1.2c1.5,0.3,3.2,0.7,4.8,1.2
							c-0.1,0-0.1-0.1-0.2-0.1c-0.4-0.3-0.8-0.6-1.4-0.9c-0.6-0.3-1.3-0.7-2.1-1.1c-1.6-0.7-3.6-1.7-6-2.6
							C198.8,7.5,192.5,5.4,185,4c-7.5-1.5-16.2-2.7-25.6-2.9c-9.3-0.2-19.3,0.4-29.2,2.1c-9.9,1.7-19.8,4.4-29,7.9
							c-9.2,3.5-17.7,7.8-25,12.2c-7.3,4.4-13.5,9-18.3,13.1c-1.2,1-2.3,2-3.4,2.9c-1,1-2,1.8-2.8,2.7c-0.9,0.8-1.6,1.6-2.3,2.3
							c-0.7,0.7-1.3,1.4-1.8,1.9C41.1,53,36.1,60.8,31.8,69.1c-4.4,8.3-8.1,17-12.2,26.5c-1.4,3.2-2.7,6.1-3.9,8.8
							c-0.6,1.4-1.1,2.7-1.5,4.1c-0.4,1.3-0.8,2.7-1,4c0.3,0.7,0.1,3.3-0.2,6l-0.7,2.5l-0.6,2.5c-0.4,1.7-0.8,3.3-1.3,4.9
							c-0.4,1.6-0.8,3.3-1.1,4.9c-0.4,1.6-0.8,3.2-1,4.8c-0.5,3.2-1.1,6.3-1.2,9.3c-0.1,1.5-0.1,2.9-0.1,4.4c0,1.4,0.2,2.8,0.3,4.1
							c0.1,0.9,0,2-0.2,3.3c-0.2,1.3-0.5,2.7-0.8,4.2c-0.3,1.5-0.8,3.1-1.2,4.7c-0.5,1.6-0.8,3.3-1.2,4.9c-0.4,1.6-0.8,3.2-1.1,4.7
							c-0.3,1.5-0.5,2.9-0.7,4.1c-0.3,2.4-0.4,4.1,0.1,4.4c3.7,2.5,4.2,2.7,4.1,4.7c0,1-0.3,2.4-0.2,4.6c0,1.1,0.1,2.5,0.3,4.1
							c0.1,0.8,0.2,1.7,0.4,2.6c0.2,0.9,0.4,2,0.7,3c0.1,0.5,0.5,1.3,1,2.3c0.5,0.9,1.1,2,1.8,3.1c1.4,2.3,2.8,4.8,3.4,6.8
							c1.9,7.1,4,11.4,6.6,15.6c0.7,1.1,1.4,2.1,2.1,3.2c0.4,0.6,0.7,1.1,1.1,1.7c0.4,0.6,0.8,1.2,1.3,1.8c0.9,1.2,1.8,2.5,2.7,4
							c1,1.4,2.1,2.9,3.3,4.6c1.8,2.5,3.6,4.6,5.2,6.6c1.5,2,3,3.8,4.3,5.5c0.7,0.8,1.3,1.7,1.9,2.5c0.6,0.8,1.2,1.5,1.8,2.3
							c1.2,1.5,2.3,2.9,3.5,4.2c2.4,2.7,4.7,5.3,7.8,7.8c0.8,0.6,1.5,1.3,2.4,1.9c0.8,0.7,1.8,1.3,2.7,1.9c1.9,1.3,4,2.6,6.4,3.9
							c1.2,0.6,8.7,5.7,16.5,9.6c1.9,1,3.9,1.9,5.7,2.8c0.9,0.4,1.8,0.9,2.6,1.2c0.8,0.3,1.6,0.7,2.4,1c1.5,0.6,2.7,1.1,3.5,1.5
							c0.8,0.4,1.3,0.5,1.3,0.5c11.6,5.8,21.9,8.3,31.4,10.4c9.5,2,18.3,3.6,28.4,6.4c11.8-1.4,25.3-2.1,39-4.3
							c13.6-2.3,27.5-6.1,38.5-12.1c1.4-0.7,2.7-1.5,4-2.2c1.3-0.7,2.5-1.4,3.7-2.1c1.2-0.7,2.4-1.3,3.5-1.9
							c1.1-0.6,2.2-1.3,3.2-1.9c1.1-0.6,2.1-1.2,3.1-1.7c1-0.6,2-1.2,3-1.7c1.9-1.2,3.9-2.1,5.7-3.3c7.4-4.4,14.7-8.7,23.4-16.1
							c2.4-2.2,4.2-4.4,5.9-6.2c1.6-1.9,3.1-3.5,4.6-4.7c0.8-0.6,1.6-1.6,2.3-2.9c0.8-1.3,1.6-2.8,2.5-4.4c0.8-1.6,1.6-3.3,2.5-5
							c0.4-0.8,0.9-1.6,1.3-2.4c0.4-0.8,0.9-1.5,1.3-2.2c0.2,0.8,0.5,1.5,0.7,2.3c0.6-0.9,1.5-2.3,2.4-3.6c0.9-1.4,1.8-2.7,2.4-3.7
							c1.1-1.9,1.4-1.1,1.7-0.4c0.5,1.5,1,3.1,3.6,0c5.2-7.9,9.6-16.7,13.1-26c2.1-9.7,3.1-19.4,3.2-28.9c-0.7-0.6-1.4-1.4-1.9-2.7
							l-0.1-2.1c0-0.7-0.1-1.4-0.2-2.1l-0.3-4.2c-1.6-1.7-3.5-1.3-4.6-2.4c-2.4-0.1-4.8-3-7.1-5.4c-2.3-2.4-4.6-4.3-6.9-3.1
							c-0.7,0.5-1.1,4.2-1.9,8.6c-0.5,2.2-0.9,4.5-1.5,6.6c-0.7,2.1-1.4,4.1-2.1,5.5c-0.9,1.3-2.1-2.2-3.6-3.8
							c-0.3,1.9-0.5,3.4-0.9,4.4c-0.4,1-0.8,1.7-1.2,1.9c-0.8,0.6-1.5-0.3-2-1.9c-0.5,1.7-0.9,3.5-0.9,3.5c-0.5-0.5-2-2.1-2-2.1
							c-2.7,9.1-6.9,18.2-11.6,26.7c-4.7,8.5-9.8,16.4-14,24.3c-0.5,0.8-1,1.8-1.6,2.9c-0.6,1.1-1.2,2.2-1.9,3.4
							c-1.2,2.4-2.6,4.7-3.7,6.7c-0.5,1-1.8,2.1-3.2,3.2c-1.3,1.1-2.6,2.1-3.3,2.6c-1.1,3.2,0.5,4.3,0.7,6.5
							c-2.8,2-6.6,4.6-10.5,7.1c-0.5,0.3-1,0.7-1.5,1c-0.5,0.3-1,0.6-1.5,0.9c-1,0.6-2,1.2-3.1,1.9c-2,1.2-4.1,2.4-6,3.5
							c-2,1.1-3.8,2.1-5.4,3.2c-1.7,1-3.1,1.9-4.3,2.8c-1.1,0.9-2,1.7-2.5,2.5c-0.5,0.8-0.6,1.5-0.1,2.2c-1.3,0.5-2.5,1.1-3.5,1.6
							c-1.1,0.5-2,0.9-2.9,1.4c-1.8,0.9-3.2,1.9-4.8,2.8c-1.5,0.9-3.1,1.9-5,2.8c-1,0.4-2,0.9-3.1,1.3c-1.2,0.4-2.4,0.9-3.9,1.3
							c-7.7,2.2-16.6,3.9-26.1,4.5c-9.6,0.7-19.7,0.4-29.6-1.1c-10.9-1.4-21.1-4.4-31-8.4c-0.5-0.2-0.9-0.4-1.4-0.5
							c-0.5-0.2-0.9-0.4-1.3-0.6c-0.9-0.4-1.8-0.8-2.7-1.2c-0.9-0.4-1.8-0.8-2.6-1.2c-0.8-0.4-1.7-0.8-2.5-1.3
							c-17.9-9-32.4-21.3-43.7-35.2c-11.3-13.9-19.4-29.5-24.6-45.7c-5.1-16.3-7.5-33.3-6.9-50.8c0.6-17.5,4.1-35.6,11.3-53.8
							C45.1,82.3,57,65.3,72,51.7C79.5,44.9,87.8,39,96.7,34c8.8-4.9,18.2-8.8,27.7-11.7c19.1-5.7,39.2-6.9,57.9-4.3
							c18.7,2.6,36.1,8.9,50.8,17.7c14.7,8.7,26.8,19.7,36.2,31.1c4.7,5.7,8.6,11.6,12,17.3c0.8,1.5,1.6,2.9,2.4,4.3
							c0.8,1.4,1.5,2.9,2.2,4.3c0.4,0.7,0.7,1.4,1.1,2.1c0.3,0.7,0.6,1.4,0.9,2.1c0.6,1.4,1.2,2.8,1.8,4.1c4.4,11,6.9,21,8.3,29.3
							c1.4,8.3,1.8,15,1.9,19.7C301.1,153.5,301.8,157.1,302.7,160.8z"/>
					</g>
				</g>
			</g>
		</g>
	</g>
	<g class="st3">
		<g class="st4">
			<path class="st0" d="M209,131.8c3,1.6,5.7,2.9,8.3,4.5c12.6,7.9,12.6,24.7,0.2,32.9c-1.7,1.1-3.4,2.3-4.9,3.7
				c-8,7.8-7,18.5,2.3,24.7c1.1,0.8,2.3,1.4,3.5,2.1c13.1,7.7,13.7,24.6,1,33.1c-14.5,9.8-30.7,15.4-48,17.7
				c-24.4,3.3-47.9,0.4-70.4-9.9c-9.4-4.4-17.9-10.2-25-17.9c-18.4-19.8-19.3-46.3-2.2-67.2c11.6-14.1,26.7-22.8,43.9-28.3
				c23-7.4,46.3-8,69.8-2.6c1.7,0.4,2.7,0.2,3.8-1.2c17.2-22.4,35.8-43.8,55.2-64.3c2.8-3,6.6-3.6,9.4-1.4c2.9,2.2,3.4,6.1,1,9.6
				c-14,21-28.9,41.3-44.8,60.9C211.1,129.3,210.1,130.4,209,131.8z M183.4,133.3c-0.7-0.2-1-0.3-1.3-0.4c-0.6-0.2-1.2-0.3-1.8-0.4
				c-20.8-3.8-41.3-2.9-61.3,3.8c-13.7,4.6-26.1,11.5-35.9,22.3c-16.6,18.2-16.1,41.6,1.1,59.1c7.3,7.4,16,12.6,25.6,16.5
				c18.9,7.7,38.5,9.7,58.6,7.3c16.5-2,32-7.1,45.9-16.4c7-4.7,6.5-13.4-0.8-17.5c-1.1-0.6-2.2-1.2-3.2-1.9
				c-10-6.9-14.3-17.3-11.3-27.6c2.2-7.2,7-12.4,13.3-16.2c7.1-4.4,7.2-12.9,0.1-17.3c-2.6-1.6-5.4-2.9-8-4.4
				c-1.3-0.7-2.1-0.5-3.1,0.7c-5.7,6.8-11.7,13.4-17.4,20.2c-1.1,1.3-1.9,3.1-2.1,4.7c-1.5,10.7-7.3,18.2-17.2,22.2
				c-3.5,1.4-7.4,2.1-11.2,2.9c-3,0.6-5.1-1.2-5.2-4.3c-0.1-2.2-0.1-4.5,0-6.7c0.1-12.8,7.2-22.4,19.4-26.5c0.9-0.3,1.9-0.8,2.4-1.5
				C174.4,145.8,178.7,139.7,183.4,133.3z M243.6,74.2c-0.2-0.1-0.4-0.3-0.6-0.4c-0.2,0.2-0.4,0.3-0.6,0.5
				c-23.2,25.2-44.8,51.8-64.7,79.8c-0.2,0.3-0.5,0.6-0.6,0.9c-0.1,0.4,0,0.8,0,1.2c0.5,0,1,0.1,1.3-0.1c0.4-0.3,0.8-0.8,1.1-1.2
				c11.8-14.1,23.9-27.9,35.4-42.3C224.9,100,234,87,243.6,74.2z M157.6,180.3c9.1-1.1,17.2-11.3,14.8-18.4
				C163.8,162.7,156.6,171.5,157.6,180.3z"/>
			<g>
				<path class="st5" d="M209,131.8c3,1.6,5.7,2.9,8.3,4.5c12.6,7.9,12.6,24.7,0.2,32.9c-1.7,1.1-3.4,2.3-4.9,3.7
					c-8,7.8-7,18.5,2.3,24.7c1.1,0.8,2.3,1.4,3.5,2.1c13.1,7.7,13.7,24.6,1,33.1c-14.5,9.8-30.7,15.4-48,17.7
					c-24.4,3.3-47.9,0.4-70.4-9.9c-9.4-4.4-17.9-10.2-25-17.9c-18.4-19.8-19.3-46.3-2.2-67.2c11.6-14.1,26.7-22.8,43.9-28.3
					c23-7.4,46.3-8,69.8-2.6c1.7,0.4,2.7,0.2,3.8-1.2c17.2-22.4,35.8-43.8,55.2-64.3c2.8-3,6.6-3.6,9.4-1.4c2.9,2.2,3.4,6.1,1,9.6
					c-14,21-28.9,41.3-44.8,60.9C211.1,129.3,210.1,130.4,209,131.8z M183.4,133.3c-0.7-0.2-1-0.3-1.3-0.4c-0.6-0.2-1.2-0.3-1.8-0.4
					c-20.8-3.8-41.3-2.9-61.3,3.8c-13.7,4.6-26.1,11.5-35.9,22.3c-16.6,18.2-16.1,41.6,1.1,59.1c7.3,7.4,16,12.6,25.6,16.5
					c18.9,7.7,38.5,9.7,58.6,7.3c16.5-2,32-7.1,45.9-16.4c7-4.7,6.5-13.4-0.8-17.5c-1.1-0.6-2.2-1.2-3.2-1.9
					c-10-6.9-14.3-17.3-11.3-27.6c2.2-7.2,7-12.4,13.3-16.2c7.1-4.4,7.2-12.9,0.1-17.3c-2.6-1.6-5.4-2.9-8-4.4
					c-1.3-0.7-2.1-0.5-3.1,0.7c-5.7,6.8-11.7,13.4-17.4,20.2c-1.1,1.3-1.9,3.1-2.1,4.7c-1.5,10.7-7.3,18.2-17.2,22.2
					c-3.5,1.4-7.4,2.1-11.2,2.9c-3,0.6-5.1-1.2-5.2-4.3c-0.1-2.2-0.1-4.5,0-6.7c0.1-12.8,7.2-22.4,19.4-26.5
					c0.9-0.3,1.9-0.8,2.4-1.5C174.4,145.8,178.7,139.7,183.4,133.3z M243.6,74.2c-0.2-0.1-0.4-0.3-0.6-0.4c-0.2,0.2-0.4,0.3-0.6,0.5
					c-23.2,25.2-44.8,51.8-64.7,79.8c-0.2,0.3-0.5,0.6-0.6,0.9c-0.1,0.4,0,0.8,0,1.2c0.5,0,1,0.1,1.3-0.1c0.4-0.3,0.8-0.8,1.1-1.2
					c11.8-14.1,23.9-27.9,35.4-42.3C224.9,100,234,87,243.6,74.2z M157.6,180.3c9.1-1.1,17.2-11.3,14.8-18.4
					C163.8,162.7,156.6,171.5,157.6,180.3z"/>
				<g>
					<g>
						<g class="st1">
							<path class="st2" d="M149.8,190.3c-0.5-1.4-1.2-3.2-1.6-5.3c-0.2-1.1-0.4-2.2-0.4-3.3c0-0.6,0-1.1,0.1-1.6
								c0-0.3,0.1-0.5,0.1-0.8l0.1-0.4l0-0.2l0-0.1c0.9-1.2,1.6-2.4,2.4-3.5c0.7-1.2,1.5-2.2,2.3-3.1c0.8-0.9,1.6-1.6,2.4-1.9
								c0.5-0.4,0.9-0.7,1.3-0.9c0.4-0.2,0.9-0.3,1.3-0.4c0.3-0.1,0.2,0.1-0.2,0.3c-0.5,0.2-1.3,0.5-2.4,1c-0.7,0.5-1.4,1.3-2.2,2.3
								c1.3-0.4,2.7-0.6,3.9-0.7c1.2-0.1,2.4,0,3.4,0.1c0.3-0.4,0.8-0.8,1.2-1.1c0.5-0.4,1-0.7,1.4-1.1c0.5-0.3,0.9-0.6,1.4-0.9
								c1-0.5,2-0.9,3.2-0.8c0.9,0.1,2.2-0.4,3.1,0.5c-2.3,0.2-4.9,1.5-7,3.5c0.1,0,0.3,0,0.5,0c1.5-0.7,3.1-1.1,4.5-1.1
								c0.2-0.1,0.4-0.1,0.7,0c-0.2,0-0.5,0-0.7,0c-0.5,0.2-0.5,1-0.8,1.5c-0.3,0.1-1.2-0.1-1.6,0.1c-0.3,0.1-1.3-0.3-2.1-0.4
								c-0.2,0.1-0.4,0.2-0.7,0.4c0.1,0.1,0.1,0.2,0.1,0.3c0,0,0,0,0.1,0c1.1,0.5,2.3,0.8,3.6,1.2c1.3,0.4,2.5,0.8,3.5,1.3
								c0.5,0.3,0.9,0.5,1.3,0.7c0.4,0.3,0.7,0.5,0.9,0.6c0.5,0.4,0.6,0.6,0.5,0.4c-0.1-0.3-0.6-1.2-0.9-2.3c-0.4-1-0.6-2-0.5-2.3
								c0.1-0.2,0.4,0.8,0.3-0.1c-0.1-0.6-0.2-1-0.3-1.4c0.1-0.2,0.4,0.2,0.5,0.5c0.2,0.3,0.3,0.4,0.3-0.5c0-0.1,0,0,0.1,0.1
								l-8.1-6.3c-0.3,0.1-0.6,0.2-0.6,0.1c-0.2,0-0.1,0.1-0.8,0.1c-0.1,0-0.3,0-0.6,0c-0.4,0-0.7,0-0.9-0.1c-0.1,0-0.2-0.1-0.4-0.1
								l-0.2,0c0,0-0.1,0,0,0c0.1,0,0.2,0.1,0.3,0.1c1,0.3,0.5,0.3,0.2,0.2c-0.3,0-0.2,0,1.5,1c0.2,0.1,0.8,0.6,1.3,1.2
								c0.3,0.3,0.5,0.6,0.7,0.8c0.2,0.2,0.3,0.4,0.3,0.4c-0.5,0.2-0.1,0.9-0.2,1.3c-0.1,0.4-0.6,0.5-2.5-0.7c1.2,1.5,0.7,1.9,0,1.8
								c-0.8,0-1.7-0.5-1.8,0c-0.1,0.6-0.7,0.2-1.5-0.5c-0.4-0.4-0.8-0.8-1.3-1.4c-0.4-0.5-0.9-1.1-1.3-1.7c-0.3-0.3-0.2,0-0.6-0.8
								c-0.4-0.7,0.6,1.5,0.3,1.1l-0.7-1.6c-0.1-0.1-0.2-0.4-0.3-0.5c-0.1-0.1-0.3-0.7-0.5-1.2c0-0.1-0.1-0.2-0.1-0.3l0,0.1
								c0.1,0.4,0.3,0.7,0.4,1.1c0.1,0.2,0.1,0.4,0.1,0.6l0,0c0,0,0,0,0.1,0l0.5-0.1c0.4,0,0.7,0,1.1,0c0.8,0,1.6,0.1,2.4,0.3
								c0.2,0,0.4,0.1,0.9,0.2c1,0.3,1.9,0.7,2.7,1.2l0.3,0.2c-0.1,0.4-0.3,0.8-0.4,1.2c-0.3,0.8-0.6,1.5-0.7,2.1
								c-0.5,1.1-0.9,2.3-1.4,3.5c-0.5,1.2-1,2.3-1.6,3.4c-0.6,1.1-1.4,2-2.1,2.9c-0.7,0.9-1.5,1.8-2.1,2.7
								c-0.3,0.5-0.1,1.1,0.6,1.9c0.7,0.8,1.8,1.6,2.7,2.7c0.2,0.4,0.1,0.9-0.2,1.6c-0.3,0.7-0.8,1.5-1.3,2.4c1.7,0.1,2.6,0.5,3,1.1
								c0.4,0.6,0.2,1.5-0.6,2.4c1,0.1,2,0.1,2,0.1c-0.1,0.3-0.2,0.9-0.4,1.4c-0.2,0.5-0.3,1-0.3,1c0.8,0.1,1.5,0.1,2.2,0.1l0.5,0
								l0.1,0.1l0.3,0.2c0.4,0.2,0.8,0.4,1.2,0.7c0.9,0.4,1.8,0.9,2.6,1.1c1.7,0.5,3.3,0.4,4-1.2c0.4-0.5,0.6-2.1,0.7-3.1
								c0-0.5,1.1,0.1,1.4,0.1c-0.5-1.6-1.5-3.2-2.2-4.7c1.1,0.4,2.8,0.6,3.8,0.2c1-0.5,1.1-1.6-0.9-4c1.1-0.5-0.6-2.8,0-3.8
								c0.7-1.3,1.7-2.9,2.6-4.5c0.2-1,0.9-1.7,1.4-2.5c0.2-0.3,0.3-0.6,0.5-0.9c1.1-2.4,2.5-4.5,3.4-7.3c0.3-0.7,0.4-1.4,0.6-2.1
								c0.1-0.4,0.2-0.7,0.2-1.1c0-0.4,0.1-0.8,0.1-1.2c0-0.4,0-0.8,0-1.2c0-0.4,0-0.8-0.1-1.3c-0.2-0.9-0.4-1.7-0.7-2.6l-3.3-8.9
								l-7.8,1.7c-1,0.2-2,0.5-2.9,1.1c-0.9,0.6-1.8,1.2-2.5,2.2c-2.6,3.5-4.5,5.9-6.8,7.9c-2.2,2-4.6,3.8-7,5.8
								c-2.4,2-4.8,4.3-6.5,6.7c-0.9,1.1-1.5,2.3-2.1,3.3c-0.1,0.1-0.1,0.2-0.2,0.4l0,0.1l0,0.3c0,0.2,0,0.5-0.1,0.7
								c0,0.9,0,1.9,0.1,2.8c0.2,1.9,0.8,3.5,1.3,4.7C146.5,188.8,148.2,189.8,149.8,190.3z"/>
						</g>
					</g>
				</g>
				<g>
					<g>
						<g class="st1">
							<path class="st2" d="M253.7,81.8c-7.9,1.5-20.5,17.7-27.9,23.4c-2.5,2.4-4.5,4.2-6.2,5.4c-1.4,1,1.5-1.6,6.2-5.4
								c1.9-1.9,4.1-4.1,6.6-6.8c-4.6,2.3-9,4.4-12.4,5.7c-1.5,1.7-3,3.4-4.6,5.2c-7,7.5-13.5,15.1-21.2,22
								c-2.8,2.5-8.2,8.5-11.4,10.5c10.2-11.1,20.3-22.1,30-33.4c-0.3,0.2-0.7,0.5-1.1,0.7c-5.5,5.6-11.1,11.1-16.8,16.6
								c-0.9,1-1.8,2-3,2.8l3-2.8c2.3-2.6,4-5.6,6.4-8.6c1.6-1.7,4-3.2,5.5-5c1.4-1.4,3.2-2.1,4.9-3.1l2.5-2.5
								c0.1-0.3,0.3-0.7,0.5-1c0,0-0.1,0-0.1,0c-2.7-0.3-9.9,4.3-16.8,9.4c-6.9,5.1-13.5,10.7-14.8,12.9c-2.1,3.4-1.5,8.5-4.1,12.2
								c-0.8,1.2-2.4,1.5-2.5,2.9c0.4,0.5,0.3,1.2,0.3,1.9c-1.1,1.7-3.1,2.5-4.4,3.9c-0.2,0.2-0.4,0.5-0.5,0.7c0,0.1,0,0.1,0,0.1
								c0.9,0.8,1.9,1.5,2.8,2.2c1.2,1,1.7,1.5,2.1,1.8c0.4,0.4,0.6,0.6,0.7,0.8c0.1,0.1,0.1,0.2,0.2,0.2l0.1,0.1l0,0l0,0
								c-0.1-0.1,0.7,1.2,0.4,0.6l0,0l0,0l0,0l0,0l0,0c0-0.1-0.1-0.3-0.2-0.6c-0.1-0.3-0.1-0.7-0.2-1.8c0-0.4,0-0.9,0-1.3
								c0-1,0-2,0-3.1c0-0.3,0-0.7,0-1l0,0c0,0,0,0,0,0l-0.1,0c-0.2,0-0.5-0.1-1.2-0.2l9.6,8.3c0-0.4,0.1-0.7,0.2-0.9
								c0-0.1,0.1-0.1,0.1-0.2c0,0,0,0,0,0c-0.8,0.1-1.6,0.2-2.4,0.3c-0.8,0.1-1.7,0.2-2.5,0.3l-0.6,0.1l-0.6,0c-0.3,0-0.5,0-0.7,0
								c-0.4,0-0.6,0-0.8,0c-0.2,0-0.3,0-0.4,0l-0.1,0l-0.3-0.1l0,0l0.1,0c0.1,0,0.2,0.1,0.4,0.2c0.2,0.1,0.4,0.2,0.7,0.5l0.7,0.5
								c2.1,1.6,4.1,3.2,6.2,4.9l0.1,0c0.1,0,0.2,0,0.3,0c0.5-0.1,1-0.1,1.4-0.2l0.6-0.1l0.5,0c0.3,0,0.6,0,0.9,0c0.6,0,1.1,0,1.6,0
								c0.9,0,1.4-0.1,1-0.5c-4.5-4.7-1.2-1.3,1.4-3.9c0.4-0.3-0.9-3-0.1-3.5c3-1.5,1.8-3.5,3.3-6.7c1.4-5.3,5.3-3.8,4.9-9.8
								c0-0.4,0.5-2.3,1.1-4.2c0.6-1.9,1.2-3.7,1.2-3.7c3.9-4,3.5-8.7,9.8-9.3c0.1-6.4,7.9-8.6,10.8-13.1c2.9-4.6,6.8-4.2,11.9-5.9
								c1.2-0.7,1.6-1.7,2.8-1.7c1.2,0,0.6-3,1.8-3.7l1.1,1.4c0.4-0.2,1.2-0.7,1.6-0.9c0.4-0.2,0.8,0.2,1.1,0.7
								c0.7,0.9,1.4,1.9,2.6,1.9c1.9-0.7,3.8-1.6,5.4-2.7c0.6-2,1.1-4,1.6-6.1c-0.5-0.6-1-1.2-1.3-1.9c0.1-0.7,0.1-1.4,0.2-2.1
								c-1.1-1.4-2.5-2.6-3.2-3.6c-0.4-0.4-0.8-0.8-1.2-1.2c-0.4-0.4-0.7-0.9-1.2-1.3c-0.8-0.8-1.6-1.6-2.2-2.5l-4.6,0.2
								c1.9-1.7,3.7-3.4,4.8-5.5c0.2-0.3,0.1-0.7-0.1-1.2l-0.5-1.4l-5,1.7c-0.2,0.1-0.5,0.2-0.7,0.3c-0.3,0.1-0.6,0.3-0.7,0.3
								c-0.4,0.1-0.8,0.3-1.2,0.4c-0.9,0.3-1.8,0.4-2.8,0.2c-0.8-0.2-1.4-1.9-2.5-3.3c-1.3,1.4-2.8,0.2-3.4-1.4
								c-0.4,0.2-0.8,0.5-0.8,0.5c-0.4-0.5-1.4-1.9-1.4-1.9c-4.9,2.2-11.7,3.5-13.3,8.6c-0.5,1-0.6,3.1-0.7,4.6
								c-0.1,0.7-1.6,1-2.1,1.3c0.7,1.6,2.2,2.8,3.3,4.2c-3.6,1.5-10.9,5.5-6,9.3c-2.1,2-0.2,4.3-1.9,6.8c-2.1,3.3-5,7.4-7.8,11.4
								c-1.3,2.3-3,4.3-4.6,6.3c-0.6,0.8-1.1,1.5-1.7,2.3c-3.9,5.3-7.8,9.8-11.6,14.1c-1.9,2.2-3.8,4.3-5.6,6.5
								c-0.9,1.1-1.8,2.2-2.7,3.3l-1.3,1.7c-0.4,0.5-0.8,1.1-1.2,1.6c-0.1,0.1-0.1,0.2-0.2,0.3l-0.3,0.4c-0.3,0.5-0.9,1.2-1.4,2.4
								c-0.1,0.3-0.3,0.7-0.4,1c-0.1,0.4-0.2,0.8-0.3,1.1c-0.1,0.6-0.2,1.2-0.3,1.7c-0.1,1,0,1.7,0,2.1c0,0.5,0.1,0.7,0.1,0.8
								c0,0,0,0,0,0l0,0l0,0l0,0l0.3,0l0.6-0.1l4.7-0.5l1.7-0.2c0.4,0,0.6-0.1,0.9-0.1l2.6-0.1l0.2,2.2c0,0.3,0,0.5,0.1,0.8l0,0.6
								l0,0.9l0,4l0,1.9c0,0.2,0,0.1,0,0.2l0,0l0,0c0,0,0,0,0,0l1,0c0.6,0,1.5-0.1,2.9-0.5c0.7-0.2,1.6-0.6,2.4-1.1
								c0.5-0.3,0.9-0.6,1.3-0.9c1.4-1.1,2-2,2.4-2.4c0.2-0.3,0.2-0.2,0.2-0.3l0.1-0.2l0.7-1.1c0.3-0.4,0.5-0.8,0.8-1.2
								c0.5-0.8,1-1.6,1.5-2.4c1-1.6,1.9-3.4,2.9-5.2c8.6-17.5,22.4-31.8,34.4-43.4c6-5.8,11.6-10.7,16.2-14.6
								c4.5-3.9,8-6.6,9.7-8.3L253.7,81.8z"/>
						</g>
					</g>
				</g>
				<g>
					<g>
						<g class="st1">
							<path class="st2" d="M193.7,140.7c-2.5,1.8-5.5,4.6-9,8.2c-0.9,0.9-1.7,1.8-2.7,2.8c-0.2,0.2-0.5,0.5-0.7,0.7l-0.3,0.4
								l-0.4,0.4c-0.6,0.7-1.3,1.5-1.9,2.2c-0.6,0.7-1.3,1.5-2,2.2c-0.7,0.7-1.4,1.4-2.3,1.9c-0.9,0.5-1.8,0.9-2.8,1.3
								c-1,0.4-2,0.7-3,1c-0.2,0.1-0.5,0.1-0.7,0.3l-0.4,0.1c-0.3,0.1-0.5,0.2-0.8,0.3c-0.5,0.2-1,0.4-1.5,0.6
								c-0.5,0.2-1,0.5-1.4,0.7c-0.4,0.3-0.9,0.5-1.3,0.9c-1.7,1.2-3.3,2.8-4.5,4.6c-1.2,1.8-2.2,4-2.7,6.3
								c-0.3,1.2-0.5,2.4-0.6,3.6c-0.1,0.6-0.1,1.4-0.1,2.1c0,0.7-0.1,1.4-0.1,2.1c0,0.7-0.1,1.4-0.1,2.1l0,0.5c0,0.1,0,0.1,0,0.1
								c0,0,0,0,0,0c-0.1,0-0.2,0-0.3,0.1c-0.2,0-0.4,0.1-0.6,0.2c-0.7,0.2-1.1,0.5-1.2,0.7c-0.1,0.2,0,0,0.1-0.5c0-0.1,0-0.2,0-0.4
								c0-0.1,0-0.2,0-0.2c0-0.1,0-0.2,0-0.3c0-0.1,0-0.2,0-0.3l0-0.2c0,0,0,0,0,0l0,0l0.3,0c0.7-0.1,1.4-0.2,2.1-0.3
								c1.3-0.2,2.6-0.4,3.8-0.6c1.2-0.2,2.3-0.4,3.3-0.7c1-0.3,2-0.6,2.9-1c1.9-0.7,3.5-1.6,4.9-2.4c3.2-2.2,5.4-5,6.9-7.8
								c0.8-1.4,1.3-2.8,1.8-4.1c0.1-0.3,0.2-0.7,0.3-1c0-0.1,0.1-0.5,0.2-0.6c0.1-0.2,0.1-0.4,0.2-0.6c0.2-0.8,0.4-1.5,0.7-2.2
								c0.5-1.1,0.6-1.3,0.4-0.7c-0.1,0.3-0.3,0.8-0.5,1.5c-0.2,0.7-0.4,1.6-0.7,2.7c-0.5,1.8-1.4,4.1-2.9,6.4
								c-1.5,2.3-3.6,4.6-6.5,6.4c-1.2,0.9-2.6,1.6-4.1,2.3c-0.7,0.4-1.6,0.6-2.4,1c-0.8,0.3-1.6,0.5-2.5,0.7
								c-1.8,0.4-3.8,0.8-6,1.1c-0.6,0.1-1.1,0.2-1.7,0.3c-0.1,0-0.3,0.1-0.4,0.1c0,0,0,0,0,0c0,0,0,0,0,0c0,0,0,0.1,0,0.2
								c0,0.2,0,0.3,0,0.4c0,0.5-0.2,0.8-0.2,0.9c0,0.1,0-0.1,0.3-0.3c-0.4,0.3-0.4,0.4-0.3,0.2c0-0.1,0.1-0.4,0.1-0.6
								c0-0.1,0-0.2,0-0.3c0,0,0,0,0,0c0,0,0,0.1,0.1,0.1l0.1,0l0,0l0.1,0l0.6,0l1.1,0c0.7,0,1.5,0,2.2,0c2.9,0,5.6-0.2,8.2-0.7
								c2.6-0.5,5.1-1.4,7.3-2.5c2.2-1.1,4.2-2.6,5.8-4.1c1.9-2.6,3.3-5.6,4.3-8.7c0.3-0.8,0.4-1.6,0.6-2.3l0.4-2.1
								c0.3-1.4,1-2.8,2-3.9c4.6-5.1,9.2-10.2,13.8-15.2l3.5-3.8c0.3-0.3,0.6-0.7,0.8-0.8c0.1-0.1,0.2-0.1,0.2-0.1
								c0.1,0.1-0.1-0.2-0.2-0.3c-0.1-0.1-0.1-0.3-0.1-0.3c0-0.1,0-0.1,0,0.2c0,0.1-0.1,0.4-0.1,0.5l0,0c0.1,0,0.1,0.1,0.3,0.2
								l0.6,0.3l4.5,2.5c0.7,0.4,1.4,0.8,2.1,1.3l0.5,0.3l0.4,0.3c0.3,0.2,0.6,0.4,0.8,0.6c2,1.8,3,4.3,2.4,6.6
								c-0.3,1.1-0.8,2.2-1.7,3.1c-0.4,0.5-0.9,0.9-1.4,1.2l-0.8,0.5l-1.2,0.7c-3.2,1.9-6.2,4.3-8.7,7.2c-2.6,2.9-4.6,6.5-5.8,10.3
								c-0.9,2.8-1.6,6.7-1.2,11c0.3,2.2,0.8,4.4,1.6,6.6c0.8,2.2,1.9,4.3,3.2,6.2l1,1.4c0.2,0.2,0.4,0.5,0.5,0.7l0.4,0.5
								c0.5,0.6,1,1.2,1.5,1.7c1,1,2.1,2,3.2,2.7c1.1,0.8,2.1,1.4,2.9,2.1c0.8,0.7,1.3,1.6,1.5,2.4c-0.4-0.8-1-1.5-1.7-2.1
								c-0.3-0.3-0.7-0.6-1.1-0.8c-0.4-0.3-0.8-0.5-1.2-0.7c-1.6-0.9-3.1-2.1-4.4-3.4c-0.3-0.3-0.7-0.6-1-1l-0.5-0.6l-0.2-0.3
								l-0.3-0.4c-0.5-0.6-0.9-1.2-1.4-1.8c-0.4-0.6-0.9-1.3-1.2-2c-1.6-2.7-2.8-5.6-3.4-8.7c-0.7-3.1-0.8-6.3-0.3-9.4l0.4-2.3
								l0.6-2.3c0.5-1.5,1-2.9,1.7-4.3c1.3-2.8,3.1-5.3,5.1-7.6c2-2.2,4.3-4.1,6.7-5.7c1.1-0.8,2.6-1.7,3.1-2c0.6-0.5,1.2-1,1.5-1.5
								c0.2-0.3,0.3-0.5,0.5-0.8c0.1-0.3,0.2-0.6,0.3-0.8c0.1-0.6,0.2-1.1,0-1.7c-0.1-0.6-0.3-1.2-0.7-1.7c-0.1-0.2-0.2-0.3-0.3-0.4
								c-0.1-0.1-0.2-0.3-0.3-0.4c-0.3-0.2-0.5-0.5-0.9-0.8l-0.5-0.4l-0.7-0.4c-0.5-0.3-1-0.6-1.5-0.9l-3.3-1.8l-1.7-1l-0.4-0.3
								l-0.1-0.1l0,0l0,0l0.1-0.1l0.2-0.4c0.5-1.2,0.7-1.9,0.7-2.2c0-0.3-0.1-0.1,0.2,0.4c0.1,0.2,0.4,0.6,0.7,1
								c0.2,0.2,0.4,0.5,0.6,0.7l0.1,0.1l0,0l0,0c0,0,0,0,0,0l-0.1,0.1l-0.3,0.4l-0.6,0.7l-5,5.7l-9.9,11.2c0.8-0.7,1.5-1.4,2.3-2.1
								l10.9-11.7l2.7-2.9l0.7-0.7c0.1-0.1,0.1-0.1,0.1-0.1l0,0l0,0c0,0,0,0,0,0l-0.1-0.1l-0.8-0.8c-0.1-0.1-0.2-0.3-0.3-0.4
								c-0.1-0.1-0.2-0.2-0.3-0.3c-1.4-1.7-0.4-1.9-1.1,0c-0.1,0.2-0.2,0.4-0.3,0.8c-0.1,0.3-0.3,0.6-0.5,1l-0.3,0.5
								c-0.1,0.1,0,0.1,0,0.1l0.1,0l0.2,0.1l0.9,0.5l1.8,1c1.2,0.7,2.3,1.3,3.3,1.9c0.5,0.3,1,0.6,1.4,0.9c0.3,0.2,0.6,0.5,0.8,0.7
								c0.5,0.5,0.8,1,1,1.4c0.2,0.5,0.2,0.9,0.2,1.3c-0.1,0.4-0.1,0.7-0.4,1.1c-0.2,0.4-0.5,0.7-1,1.1l-0.4,0.3
								c-0.1,0.1-0.2,0.2-0.4,0.3l-1.4,0.8c-2.7,1.6-5.3,3.5-7.7,5.8c-3.2,3.2-5.9,7.2-7.8,11.7c1.7-4.4,4.5-8.5,7.8-11.7
								c2.1-2.1,4.3-3.9,6.6-5.5c0.6-0.4,1.1-0.8,1.7-1.2l0.1-0.1l0,0l0.1-0.1l0.2-0.1c0.1-0.1,0.2-0.2,0.3-0.2
								c0.1-0.2,0.4-0.3,0.5-0.5c0.1-0.1,0.1-0.2,0.2-0.2c0-0.1,0.1-0.2,0.1-0.2c0.1-0.1,0.1-0.1,0.1-0.2c0-0.1,0.1-0.1,0.1-0.2
								c0-0.1,0.1-0.2,0-0.4c0-0.1,0-0.2,0-0.3c-0.1-0.1,0-0.2-0.1-0.3c0-0.1-0.1-0.2-0.1-0.3c-0.1-0.1-0.1-0.2-0.3-0.4
								c-0.2-0.3-0.5-0.5-0.9-0.9c-0.1-0.1-0.3-0.2-0.4-0.3c-0.3-0.2-0.5-0.4-0.8-0.6c-0.6-0.4-1.2-0.8-1.9-1.2
								c-1.3-0.8-2.8-1.7-4.4-2.7l-0.2-0.1l-0.1,0l0,0l0.7-1.3c0.1-0.2,0.3-0.5,0.4-0.7l0.3-0.6c0.1-0.2,0.2-0.4,0.2-0.6
								c0.1-0.2,0.1-0.3,0.2-0.5l0.1-0.4c0-0.1,0.1-0.3,0.1-0.4c0.2-0.8-0.1-0.8,0.3-0.1c0.2,0.3,0.5,0.8,1.1,1.5
								c0.2,0.2,0.3,0.3,0.5,0.5c0.2,0.2,0.4,0.4,0.6,0.6c0.3,0.2,1.2,1.1,1,0.9l-0.8,0.9c-1.2,1.2-2.3,2.4-3.4,3.6
								c-3.5,3.8-7.5,6.8-11.2,10.1l-2.9,3.1c-0.9,0.9-1.6,2-2.1,3.2c-0.1,0.8-0.1,1.6-0.2,2.4c0,0,0.1-0.1,0.1-0.1
								c0.7-0.6,1.3-2.2,3.1-3.6c0.4-0.4,1-0.7,1.5-1c0.3-0.2,0.5-0.4,0.8-0.6c0.1-0.1,0.3-0.2,0.4-0.3c0.2-0.1,0.4-0.3,0.5-0.5
								c1.5-1.2,3.1-2.6,4.7-4.1c3.4-3,7.1-6.4,11-10l0.7-0.7l0.2-0.2l0,0l-2-1.7l-0.6-0.6l-0.6-0.5l-0.5-0.5l-0.5-0.5
								c-0.1-0.1-0.2-0.2-0.4-0.4c-0.9-1-1.3-1.7-1.4-1.9c0-0.1,0-0.1,0,0c0,0.2,0,0.4-0.1,0.8l-0.1,0.3c0,0.1-0.1,0.3-0.1,0.4
								c-0.1,0.2-0.2,0.6-0.4,0.9c-0.1,0.3-0.3,0.7-0.5,1.1l-2.6,4.6l0.1,0.1l1,0.7c0.6,0.4,1.2,0.8,1.9,1.2
								c1.2,0.8,2.2,1.5,3.1,2.1l0.6,0.5l0.3,0.2c0.1,0.1,0,0.1,0,0.1c0,0.1,0,0.1,0.1,0.1c0,0.1,0,0.1,0,0.1l0,0l0.1-0.1
								c0.1-0.1,0.1-0.1,0.1-0.1c0.1-0.1,0.2-0.2,0.2-0.2c0.1-0.1,0.2-0.2,0.3-0.2c0.1-0.1,0.1-0.1,0.2-0.2c0.1-0.1,0.4-0.2,0.5-0.3
								c0.1-0.1,0.2-0.1,0.4-0.2c0.4-0.2,0.6-0.2,0.5-0.2c-0.1,0-0.4-0.1-1-0.4c-0.6-0.3-1.3-0.9-2-1.8c0-0.1-0.2-0.3-0.3-0.3l0,0
								l0,0l0,0l-0.1,0.1l-0.3,0.2c-0.8,0.4-1.6,0.9-2.3,1.4c-1.5,1-3.1,2-4.5,3.2c-2.9,2.3-5.6,5.1-7.8,8.1c-2.2,3-3.8,6.2-4.9,9.3
								c-0.6,1.5-1,3.1-1.4,4.6c-0.3,1.5-0.6,3-0.7,4.5c-0.6,5.8,0.4,10.4,1.3,13c1.3,4.2,3.5,7.9,6.1,10.9c0.6,0.8,1.3,1.5,2,2.1
								l0.5,0.5l0.3,0.3c0.1,0,0.1,0,0.1,0.1l0.5,0.2c0.2,0.1,0.3,0.2,0.5,0.2l0.5,0.2c0.3,0.1,0.6,0.2,1,0.4
								c0.7,0.3,1.4,0.5,2.2,0.8c0.8,0.2,1.7,0.5,2.5,0.8c1.7,0.6,3.3,1.8,3.8,3.4c0.4,1.1-0.1,2.1-0.6,2.9
								c-0.5,0.8-1.1,1.5-1.1,2.2c0.6,0.4,0.5,1.1,0.2,1.8c-1.9,1.4-4.5,2.3-6.6,3.1c-1.1,0.4-2.1,0.7-3,1.1c-1,0.4-1.5,0.9-2.8,1.8
								c-1.7,1-5.9,0.1-9.5-1.1c-3.6-1.2-6.6-2.5-6.9-1.6c-0.8,3.4-1,3.9-2,3.6c-1-0.3-2.9-1.2-7.3-1.1c-0.5,0-1.6,0.7-2.9,1.4
								c-1.2,0.7-2.7,1.4-3.8,1.3c-3.7-0.6-6.1-0.5-8.6-0.1c-2.5,0.3-5.2,1-9.5,0.9c-6.4,0.2-10.1-1.1-13.6-2.3
								c-3.5-1.2-6.7-2.1-12.8-2.4c-0.7,0-5.5-1.1-9.8-2.8c-2.2-0.8-4.3-1.7-5.8-2.4c-1.5-0.7-2.5-1.3-2.5-1.3
								c-2.7-2.2-5.1-4.2-7.2-6.1c-1-1-2-2-3-2.9c-0.9-1-1.7-2-2.5-3c-0.7-1.1-1.4-2.1-2-3.2c-0.5-1.1-1-2.2-1.3-3.4
								c-0.2-1.2-0.5-2.4-0.6-3.6c0-0.6,0-1.3,0.1-1.9c0-0.3,0.1-0.6,0.1-0.9c0-0.3,0.1-0.6,0.2-1c-0.4-0.6-0.7-1.3-1-2
								c-0.3-0.7-0.4-1.4-0.6-2.2c-0.1-0.4-0.2-0.8-0.3-1.1c-0.1-0.4-0.1-0.8-0.1-1.2c0-0.8-0.1-1.6-0.1-2.4
								c0.2-3.2,1.2-6.5,2.8-9.6c1.6-3.1,3.7-5.8,5.9-8.4c0.6-0.6,1.2-1.2,1.8-1.8c0.6-0.6,1.1-1.2,1.8-1.8c1.2-1.2,2.4-2.4,3.5-3.5
								c4.6-4.6,9-6.7,13.3-8c4.4-1.2,8.8-1.7,14.5-2.3c0.8-0.2,1.5-0.4,2.2-0.5c0.7-0.2,1.3-0.3,1.9-0.5c1.2-0.3,2.3-0.5,3.3-0.3
								c0.5,0.1,1.1-0.1,1.8-0.4c0.7-0.3,1.5-0.7,2.3-1.1c0.8-0.4,1.7-0.9,2.5-1.2c0.9-0.3,1.7-0.6,2.5-0.6l-0.5,1.8
								c1.1,0,3.2-0.1,4.3-0.1c1.1,0,0.9,0.6,0.7,1.2c-0.4,1.2-0.7,2.4,1.2,3c4.3,0.4,8.6,0.9,13,1.4c4.3-0.9,8.7-1.6,13.2-2.2
								c0.3-0.8,0.7-1.5,1.4-2.1c1.4-0.2,2.8-0.5,4.2-0.7c1.1-1.6,1.1-3.5,1.9-4.5c0.2-1.2,0.8-2.4,1.5-3.5c0.8-1.1,1.5-2.1,2.4-3.1
								c1.7-2,3.7-3.8,3.6-6.2c-0.1-0.4-0.7-0.9-1.7-1.4c-0.5-0.3-1.2-0.6-1.8-0.8c-0.6-0.2-1.3-0.5-1.9-0.7c-2.7-1-5.9-2.2-7.9-3.5
								c-0.9-0.8,1.5-2.2,2.7-3.8c-5.6-0.6-5.8-2.5-3.3-3.9c-1.3-0.3-2.7-0.5-2.7-0.5c0.4-0.5,1.6-2.2,1.6-2.2
								c-7.3-1.7-15.3-3.5-23.5-3.9c-8.2-0.5-16.5,0.4-23.6,3.3c-1.6,0.5-3.5,1.5-5.5,2.5c-2,1.1-3.9,2.3-5.4,3.3
								c-1.5,1-5.6,1.4-7,1.9c-1.7,2.4-0.6,4.1-0.9,6.1c-2.7,0.7-6.1,1.8-9.7,3.3c-3.6,1.5-7.2,3.5-10.4,5.6
								c-3.1,2.2-5.7,4.5-7.1,6.6c-1.4,2-1.7,3.8-0.5,4.7c-3.3,3-4.6,5.8-5.8,8.4c-0.6,1.4-1.1,2.8-1.8,4.3
								c-0.4,0.8-0.7,1.7-1.1,2.6c-0.4,0.9-0.9,1.9-1.4,3c-2.8,5.8-4.9,13.2-4.9,21.1c0,1,0,2,0,3c0.1,1,0.2,2,0.3,3l0.1,1.5
								c0.1,0.5,0.2,1,0.3,1.5c0.2,1,0.4,2,0.6,3c0.2,1,0.5,2,0.8,2.9c0.3,1,0.5,2,0.9,2.9c0.8,1.9,1.5,3.8,2.4,5.5
								c0.5,0.9,1.1,1.9,1.6,2.8c0.6,0.9,1.2,1.8,1.8,2.7l0.9,1.3c0.3,0.4,0.6,0.8,0.9,1.2c0.6,0.8,1.3,1.6,1.9,2.4
								c1.3,1.6,2.7,3,4.1,4.6c1.4,1.4,2.8,2.8,4.3,4.1c2.3,1.9,4.6,3.6,6.8,5.1c6.1,4.1,12.3,7.2,18.5,9.7c6.1,2.5,12.3,4.5,18.5,6
								c12.4,3,24.7,4.1,36.7,3.5c12-0.6,24.2-2.7,36.1-7.4c0.4-0.1,0.9-0.4,1.4-0.6l1.5-0.6c1-0.4,2-0.8,2.9-1.3
								c1-0.5,1.9-0.9,2.9-1.4c0.9-0.5,1.9-1,2.8-1.5c0.9-0.5,1.8-1,2.7-1.6c0.9-0.6,1.8-1.1,2.6-1.7c0.8-0.6,1.7-1.2,2.5-1.8
								c0.8-0.6,1.5-1.3,2.3-1.9l1.1-1c0.3-0.3,0.6-0.7,1-1c0.6-0.7,1.3-1.3,1.9-2c1.2-1.4,2.1-3,2.9-4.7c1.5-3.5,1.7-7.9,0.3-11.6
								c-0.6-1.5-1.3-3-2.3-4.2c-0.5-0.6-1-1.2-1.5-1.7c-0.6-0.5-1.1-1-1.7-1.5l-3.8-3.1c-1.3-1.1-2.8-2.2-4.3-3.3l-2.3-1.6l-2-1.7
								l-1-1.1l-0.9-1.1c-1.2-1.6-2-3.3-2.5-5.1c-0.5-1.8-0.7-3.7-0.5-5.7c0.2-1.9,0.7-4,1.5-5.8c1.6-3.7,4.6-6.9,8.4-9.4l0.7-0.5
								l1-0.7c0.8-0.5,1.5-1.1,2.2-1.8c1.4-1.3,2.6-2.9,3.5-4.8c0.9-1.8,1.4-3.9,1.4-6c0-2.1-0.4-4.2-1.2-6.1
								c-0.8-1.9-2-3.5-3.3-4.9c-0.7-0.6-1.4-1.3-2.1-1.8l-1.1-0.8l-0.9-0.6c-2.5-1.5-4.9-2.7-6.9-3.8l-0.4-0.2
								c-0.2-0.1-0.5-0.3-0.9-0.5c-0.7-0.3-1.7-0.7-3.1-0.7c-1.4,0-2.9,0.5-3.9,1.1c-0.9,0.6-1.5,1.1-1.9,1.6c-0.9,1-1.8,2-2.7,3
								c-1.7,1.9-3.4,3.7-5.1,5.6c-3.5,3.8-7,7.6-10.5,11.4c-2.1,2.3-3.5,5.2-4,8.2l-0.3,1.1l-0.1,0.4l-0.1,0.2l-0.1,0.3
								c-0.1,0.5-0.3,0.9-0.4,1.3c-0.3,0.9-0.7,1.7-1,2.5c-1.6,3.1-3.7,5.4-6.5,7.1c-1.4,0.8-2.8,1.5-4.4,2
								c-0.8,0.3-1.5,0.5-2.3,0.7c-0.8,0.2-1.6,0.3-2.5,0.5c-0.9,0.1-1.8,0.3-2.8,0.4c-0.5,0.1-1,0.1-1.5,0.2l-0.8,0.1l-0.4,0.1
								l-0.2,0l-0.1,0l0,0l0.6,3c0.1,0.7,0.2,1.2,0.1,1.7c0,0.4-0.1,0.6-0.2,0.7c-0.1,0.2,0.2-0.4,1.2-0.7c0.5-0.2,1-0.3,1.6-0.3
								l0.2,0c-0.6,0,5.4-0.3,2.8-0.2l0,0l0-0.1l0-0.3l0.1-0.7c0.1-0.9,0.1-1.8,0.2-2.7c0-0.4,0.1-0.9,0.1-1.3l0.1-0.7l0-0.3l0-0.3
								c0.1-0.6,0.2-1.3,0.4-1.9c0.6-2.4,1.5-4.4,2.7-5.9c1.2-1.5,2.5-2.6,3.9-3.5c0.4-0.2,0.8-0.4,1.1-0.6c0.4-0.2,0.8-0.3,1.1-0.5
								c0.4-0.1,0.8-0.3,1.2-0.4c0.2-0.1,0.4-0.1,0.6-0.2c0.1,0,0.1,0,0.4-0.1c0.3-0.1,0.5-0.2,0.8-0.3c0.9-0.3,1.8-0.6,2.7-0.9
								c0.9-0.3,1.7-0.6,2.5-1c0.8-0.4,1.6-0.8,2.3-1.4c0.7-0.5,1.3-1.1,1.9-1.7c1.2-1.2,2.2-2.5,3.2-3.7c0.5-0.6,1-1.2,1.4-1.7
								c0.3-0.4,0.6-0.7,0.9-1c2.4-2.7,4.3-5,5.7-6.7L193.7,140.7z"/>
						</g>
					</g>
				</g>
				<g>
					<g>
						<g class="st1">
							<path class="st2" d="M199.1,123.8c4.1-2.9,9.6-8,15.8-14.7c6.3-6.6,13.2-14.8,20-23.3c3.4-4.3,6.8-8.7,10.1-13
								c1.6-2.2,3.3-4.4,4.9-6.5c0.7-0.9,1.4-1.9,2.1-2.8c0.3-0.4,0.4-0.7,0.5-0.9c0.1-0.2,0.1-0.2,0.1-0.4c0-0.1-0.2-0.4-0.3-0.5
								c-0.1-0.1-0.2-0.2-0.4-0.2c-0.2,0-0.7,0.1-1.1,0.3c-0.2,0.1-0.5,0.3-0.7,0.5c0,0-0.2,0.1-0.3,0.2l-0.3,0.3l-0.6,0.6
								c-0.8,0.7-1.5,1.4-2.3,2.1c-1.5,1.4-2.9,2.7-4.2,3.9c-7.7,7.6-13.6,13.4-18.1,17.6c-3.8,3.6,4.5-5.2,18.1-17.6
								c1.5-1.4,3-2.9,4.6-4.5c0.8-0.8,1.6-1.6,2.5-2.4c0.1-0.1,0.2-0.2,0.3-0.3L250,62c0.1-0.1,0.3-0.2,0.4-0.3
								c0.3-0.2,0.5-0.3,0.7-0.4c0.5-0.2,0.8-0.2,1-0.1c0.2,0.1,0.4,0.2,0.6,0.5c0.2,0.3,0.2,0.5,0.3,0.7c0,0.2-0.1,0.6-0.3,1
								c0.5-0.5,0.8-0.9,0.9-1.5c0.1-0.3,0-0.6-0.1-0.9c-0.2-0.4-0.4-0.7-0.6-0.9c-0.5-0.5-1.4-0.8-2.5-0.6
								c-0.5,0.1-1.1,0.3-1.7,0.6c-0.3,0.2-0.5,0.3-0.9,0.5c-0.3,0.2-0.7,0.5-1,0.7c-5.2,3.9-10,7.5-14,10.5
								c-5,5.3-9.9,10.6-15,16.1c-6.2,6.8-12.2,13.7-18.1,20.7c-1.4,1.7-2.9,3.4-4.3,5.1l-3.8,4.7l-1.9,2.3
								c-0.3,0.4-0.7,0.7-1.1,0.9c-0.5,0.2-1,0.2-1.5,0.1c-2-0.4-3.9-1-5.9-1.3l-2.2-0.5c-0.8-0.2-1.4-0.3-2.4-0.4
								c-1.7-0.3-3.5-0.6-5.3-0.8c-3.5-0.5-7.1-0.8-10.7-1.1c-7.2-0.4-14.4-0.3-21.6,0.3c-6,0.5-15.6,2.2-24.7,5
								c-4.6,1.4-9.1,3.1-13.2,4.8c-4,1.7-7.6,3.4-10.3,4.8c6.9-4.2,14.3-7.3,21.7-9.9c7.5-2.5,15.1-4.4,22.9-5.5
								c3.9-0.6,7.8-1,11.7-1.2c3.9-0.2,7.9-0.3,11.8-0.1c3.9,0.1,7.8,0.4,11.7,0.9c1.9,0.3,3.9,0.5,5.8,0.8l2.5,0.4l2.2,0.4
								c1.7,0.3,3.3,0.7,5,1.1c0.4,0.1,0.9,0.1,1.3,0c0.4-0.1,0.8-0.4,1.1-0.7c0.6-0.6,1.1-1.3,1.6-2c2.2-2.7,4-5,7-8.6
								c5.5-6.7,11.1-13.3,16.8-19.8c-0.9,0.9-1.9,1.8-2.8,2.7c-5.4,5.9-10.7,12-15.9,18.1l-6.2,7.2c-0.5,0.5-0.9,1.1-1.5,1.6
								c-0.6,0.4-1.4,0.3-2.1,0.1c-1.4-0.4-2.9-0.8-4.3-1.1l-2.4-0.5l-0.5-0.1l-0.9-0.2l-1.7-0.3c-1.2-0.2-2.3-0.4-3.5-0.5
								c-1.2-0.2-2.3-0.3-3.5-0.5c-4.7-0.6-9.4-0.9-14.1-1c-4.5,0-9,0.2-13.6,0.5c4.5-0.4,9.1-0.6,13.6-0.5c4.7,0,9.3,0,13.9,0.4
								c2.3,0.1,4.7,0.4,7.1,0.6c1.1,0.1,2.2,0.3,3.3,0.4c0.8,0.1,1.5,0.2,2.3,0.3c1.4,0.2,2.9,0.5,4.5,0.8c0.6,0.1,1.3-0.1,1.7-0.6
								c0.4-0.5,0.8-0.9,1.3-1.4c0.8-0.9,1.7-1.9,2.7-2.8l1.4-1.5c0.7-0.7,1.3-1.5,2-2.2c1.3-1.5,2.6-2.9,3.8-4.4
								c4-4.6,8.4-8.3,12.7-12.3c2.5-2.8,5.1-5.5,7.6-8.3c0.6-0.9,1.4-1.8,2.1-2.7c0,0-0.1,0.1-0.1,0.1c-2.6,1-9.2,6.5-17.6,14.6
								c-2.1,2-4.3,4.2-6.6,6.4c-1.1,1.1-2.3,2.3-3.5,3.5c-0.6,0.6-1.2,1.2-1.8,1.8l-0.9,0.9c-0.3,0.3-0.6,0.7-0.7,0.7
								c-1.3,1.1-2.5,2.3-3.8,3.4c-0.3,0.3-0.6,0.5-1.1,0.6c-0.4,0-0.9-0.2-1.3-0.3c-0.9-0.3-1.7-0.7-2.5-0.9l-1-0.4l-0.5-0.2
								l-0.1,0l-0.1,0c0,0-0.1,0-0.2-0.1l-0.3-0.1c-1.6-0.4-3.3-0.7-4.9-1c-1.6-0.3-3.3-0.6-4.9-0.8c-1.6-0.2-3.3-0.5-4.9-0.6
								c-6.5-0.7-12.7-0.9-18.3-0.7c-11.3,0.4-20,2.3-23.9,3.4c-6.6,2-12.6,5.1-18.4,8.6c-5.9,3.6-11.6,7.7-17.9,12.2
								c-4.2,3-8.2,5-10.6,8.3c0,0.3-0.2,0.9-0.6,1.6c-0.4,0.7-1,1.6-1.5,2.4c-1.8,1.9-3.5,3.7-5.2,5.5c-0.9,0.9-1.7,1.9-2.5,2.9
								c-0.4,0.5-0.8,1-1.2,1.5l-0.6,0.7l-0.6,0.8c-0.7,1-1.4,2-2.1,3.1l-0.5,0.8l-0.4,0.8c-0.3,0.5-0.6,1.1-0.8,1.6
								c-0.5,1.1-1,2.1-1.3,3.2c-0.3,1.1-0.6,2.1-0.8,3.2c-0.4,1.4-1.4,3.3-2.8,5.4c-0.8,1-1.4,2.2-2.1,3.4
								c-0.7,1.2-1.6,2.4-2.2,3.7c-0.7,1.3-1.3,2.5-1.9,3.7c-0.6,1.2-0.9,2.3-1.3,3.4c-0.3,1-0.6,1.9-0.6,2.5
								c-0.1,0.7,0,1.1,0.2,1.3c3.4,2.4,3.8,2.6,3.5,4.2c-0.1,0.8-0.4,1.9-0.4,3.9c-0.1,1.9,0.2,4.5,1.1,8.2
								c0.2,0.9,1.5,2.5,2.8,4.3c1.4,1.7,3,3.5,3.6,5.2c2.2,5.5,4.6,8.6,7.5,11.4c2.9,2.8,6.1,5.2,11.1,9.1c3.9,2.6,7,4.7,9.7,6.4
								c2.7,1.8,5,3.3,7.3,4.6c2.3,1.4,4.7,2.5,7.3,3.4c1.3,0.5,2.8,0.9,4.5,1.2c1.6,0.4,3.4,0.6,5.4,0.8c0.9,0.2,7.4,1.5,13.7,2.2
								c0.8,0.1,1.6,0.2,2.3,0.3c0.8,0.1,1.5,0.1,2.2,0.2c1.4,0.1,2.8,0.2,3.9,0.3c1.1,0,2.1,0.1,2.7,0.1c0.7,0,1,0,1,0
								c9.2,1.4,16.8,0.9,23.7,0.4c3.5-0.3,6.8-0.5,10.2-0.5c3.4,0,6.9,0.1,10.7,0.5c7.9-3.5,17.3-6,26.7-9.6
								c4.7-1.8,9.4-3.8,13.7-6.2c1.1-0.6,2.2-1.2,3.2-1.9c0.6-0.3,1.2-0.8,1.8-1.3c0.6-0.5,1.2-0.8,1.8-1.4c1.1-1,2.2-2,3.1-3.3
								c0.5-0.6,0.9-1.2,1.4-1.8c0.4-0.6,0.8-1.3,1.1-1.9c0.2-0.3,0.4-0.6,0.5-1c0.1-0.3,0.3-0.7,0.4-1c0.3-0.7,0.6-1.3,0.8-2
								c0.2-0.7,0.4-1.3,0.6-2c0.2-0.7,0.4-1.3,0.5-1.9c0.2-1.3,0.5-2.5,0.6-3.8c0.1-1.2,0.2-2.4,0.1-3.6c-0.2-4.7-1.3-9-3.2-12.8
								c-0.5-0.9-1-1.9-1.5-2.8c-0.6-0.9-1.2-1.8-1.8-2.7c-0.6-0.8-1.3-1.5-1.9-2.3l-0.5-0.6l-0.1-0.1l0-0.1l-0.1-0.1l-0.3-0.5
								c-0.8-1.4-1.6-2.4-1.9-4c-0.4-0.7-0.7-1.4-0.9-2c-0.2-0.6-0.1-1.2,0.4-1.7c0.5-0.5,0-1.2-0.2-2.2c-0.3-0.9-0.2-2.1,0.6-2.7
								c0.5,0.4,1,0.7,1.6,1.1c0.5-0.3,1.4-0.8,1.9-1c0.2-0.1,0.5,0,0.7,0.1c0,0,0,0,0,0c0.2,0.1,0.4,0.3,0.6,0.5
								c0.7,0.7,1.6,1.3,2.4,1.7c0.1,0.1,0.3,0.1,0.4,0.2c0.2,0,0.3,0.1,0.5,0.1l0.2,0.1l0.1,0l0,0c0,0,0,0,0,0l0.1-0.1l0.4-0.3
								c1-0.8,2-1.6,3-2.4c1.1-1.1,2.1-2.2,3.1-3.4c4-4.8,7-10.8,8.3-17.5c0.6-6.7-0.5-13.4-3.1-19.2c-2.6-5.8-6.5-10.8-11-14.3
								c-1,0.1-2.1,0.2-3.7-0.3c-1.4-0.8-2.7-1.5-4.1-2.2c-0.4-0.2-0.7-0.3-0.9-0.4l-0.9-0.3c-0.6-0.2-1.1-0.4-1.6-0.6
								c-2,0.9-2.5,2.8-3.8,3.4c-2.5,4.3-11.1,5.1-11.7,9.8c0,0.8,2.4,2.5,4.8,4.4c0.6,0.5,1.2,1,1.7,1.5l0.4,0.4l0.3,0.4
								c0.2,0.3,0.4,0.5,0.6,0.8c0.4,0.5,0.6,1,0.8,1.5c0.1,0.3,0.2,0.5,0.3,0.7c0.1,0.2,0.1,0.5,0.1,0.7c-0.1,0.5-0.7,0.7-1.4,0.9
								c-0.7,0.2-1.7,0.5-2.4,1c0.2,0.2,0.5,0.4,0.6,0.7c0.1,0.2,0.2,0.4,0.2,0.6c0.1,0.4-0.1,0.7-0.3,1c-0.5,0.5-1.3,0.8-2.1,1.1
								c0,0.4,0.1,0.6,0.1,0.7c-0.2,0.1-0.8,0.4-1.3,0.6c-0.5,0.2-0.8,0.5-0.8,0.5c0,0.2-0.3,0.3-0.4,0.4l-0.2,0.1c0,0-0.1,0-0.1,0
								c0,0,0,0,0,0c0,0-0.1,0-0.3-0.1c-0.2-0.1-0.6-0.2-1.4-0.9l-0.1-0.1l0,0l0,0c0.1,0.1-1.2-1.1-0.7-0.6l0,0l0,0l0,0l-0.1,0
								l-0.3,0.1l-0.3,0.1c0,0,0,0-0.1,0l-0.4,0.3l-0.9,0.6c-1.2,0.8-2.3,1.5-3.5,2.3c-1.1,0.8-2.1,1.6-3.1,2.5
								c-0.9,0.8-1.7,1.7-2.5,2.5c-0.8,0.9-1.5,1.8-2.2,2.7c-1.3,1.9-2.6,3.7-3.5,5.8c-1.9,4-3.1,8.2-3.2,12.4
								c-0.2,2.8,0.1,6.7,1.3,10.4c0.3,0.9,0.6,1.8,1,2.7c0.4,0.9,0.8,1.7,1.2,2.6c0.5,0.8,0.9,1.6,1.4,2.3c0.5,0.7,1,1.4,1.4,2
								c0.4,0.6,1,1.5,1.5,2.4c0.3,0.5,0.5,1,0.8,1.5c0.3,0.5,0.6,1,0.9,1.5c0.6,1,1.3,1.9,1.9,2.8c0.3,0.4,0.6,0.8,0.8,1.1
								c0.3,0.3,0.6,0.6,0.8,0.8c2.4,0.9,3.8,0.9,5,0.7c1.2-0.2,2.1-0.7,3.4-0.8c1.5,1.3,4.7,3.5,4.4,3.7l0.2,0.2
								c0.1,0.1,0.1,0.2,0.1,0.2c0,0.1,0,0.2,0.1,0.4c0.1,0.2,0,0.4,0.1,0.6c0,0.7-0.4,1.1-0.5,1.2c-0.1,0.2,0,0.3,0.3,0.9
								c0.1,0.1,0.2,0.3,0.3,0.5c0.1,0.2,0.2,0.4,0.4,0.6c0.3,0.4,0.7,0.9,1.4,1.4c-0.1,0.1-0.1,0.1-0.2,0.2
								c-0.1,0.1-0.2,0.1-0.2,0.2c-0.1,0.1-0.3,0.3-0.3,0.4c-0.2,0.3-0.5,0.5-0.7,0.9L212,222c-0.1,0.1-0.2,0.2-0.3,0.3
								c-0.2,0.2-0.4,0.5-0.7,0.7c-0.4,0.5-0.8,0.9-1.2,1.4c-1.6,1.9-3.4,3.8-7,5.8c-4.8,2.7-10.6,5.2-16.9,7.2
								c-6.4,2-13.3,3.4-20.5,4.2c-7.7,1.2-15.3,1.2-22.7,0.5c-1.4-0.1-2.8-0.2-4.1-0.4c-0.7-0.1-1.3-0.1-2-0.2
								c-0.7-0.1-1.3-0.2-1.9-0.3c-3.5-0.5-6.8-1.2-10.1-2c-3.3-0.9-6.5-1.8-9.6-3c-0.8-0.3-1.5-0.6-2.3-0.8
								c-0.8-0.3-1.5-0.6-2.3-0.9c-1.5-0.6-3-1.3-4.4-2c-2.9-1.3-5.5-2.8-8.1-4.4c-5.1-3.2-9.6-7-13.5-11.3
								c-3.8-4.2-6.8-8.7-8.8-13.5c-4.2-9.6-4.2-20-0.2-29.9c0.4-1.3,1.1-2.5,1.6-3.7l0.4-0.9c0.2-0.3,0.4-0.6,0.5-0.9l1.1-1.8
								c0.2-0.3,0.3-0.6,0.5-0.9l0.6-0.9l1.2-1.8c0.4-0.6,0.9-1.2,1.3-1.8c0.5-0.6,0.9-1.2,1.4-1.8c3.9-4.7,8.4-9.2,13.7-13.3
								c10.9-8.4,25-14.1,39.3-17c7.2-1.4,14.5-2.2,21.8-2.1c3.7,0,7.3,0.2,10.9,0.5c1.8,0.2,3.6,0.4,5.4,0.7l1.3,0.2
								c0.6,0.1,1.2,0.2,1.8,0.3l3.5,0.7c1.7,0.4,3.3,0.5,4.9,0.7c1.6,0.2,3.2,0.6,4.8,0.1c0.8-0.3,1.5-0.8,2-1.3l1.7-1.8l1.7-1.8
								c0.6-0.6,1.1-1.2,1.6-1.9c1.1-1.3,2.1-2.6,3.2-3.9c0.9-1.1,1.8-2.2,2.7-3.3c1.7-2,3.4-4.1,5.1-6.1c6.8-8,13.8-15.6,20.7-22.8
								c6.9-7.2,13.7-14,20.4-20.3l1.2-1.2l0.6-0.6c0.1-0.1,0.1-0.1,0.2-0.1c0,0,0.1,0,0.1,0c0.1,0,0.2-0.1,0.2,0
								c-0.2-0.3-0.4-0.8-0.5-1.1c-0.3-0.7-0.2-1.3-0.2-1.3c0-0.1,0,0.1-0.1,0.2c-0.1,0.1-0.1,0.2-0.2,0.3c0,0.1-0.1,0.1-0.1,0.2
								c0.2-0.2-0.2,0.3-0.2,0.3l0,0l0,0l0.1-0.1c0.5-0.5,0.7-0.6,0.6-0.6c-0.1,0-0.6,0.1-1.2,0c-0.1,0-0.4-0.1-0.5-0.1
								c-0.2,0-0.4-0.1-0.6-0.2c-0.2-0.1-0.4-0.2-0.6-0.3c-0.2-0.1-0.5-0.3-0.4-0.2l0,0l0,0l-0.1,0.1l-0.5,0.6l-1,1.2
								c-20.2,26.1-37.4,44-44.5,52L199.1,123.8z"/>
						</g>
					</g>
				</g>
			</g>
		</g>
		<g class="st4">
			<path class="st0" d="M116.5,211.5c-3.7-0.2-8-1.3-11.4-4.6c-4.1-3.9-4.2-9.3-0.4-13.4c6.4-6.9,20.2-7,26.7-0.2
				c3.8,4,3.4,9.7-0.8,13.6C127.3,209.8,122.4,211.5,116.5,211.5z M117.3,205.2c2.9-1.1,5.6-1.7,8-3c2.4-1.3,2.3-3.3,0.2-5
				c-3.7-3-11.9-2.7-15.3,0.6c-1.7,1.6-1.8,3.2,0.1,4.4C112.3,203.4,114.8,204.2,117.3,205.2z"/>
			<g>
				<path class="st5" d="M116.5,211.5c-3.7-0.2-8-1.3-11.4-4.6c-4.1-3.9-4.2-9.3-0.4-13.4c6.4-6.9,20.2-7,26.7-0.2
					c3.8,4,3.4,9.7-0.8,13.6C127.3,209.8,122.4,211.5,116.5,211.5z M117.3,205.2c2.9-1.1,5.6-1.7,8-3c2.4-1.3,2.3-3.3,0.2-5
					c-3.7-3-11.9-2.7-15.3,0.6c-1.7,1.6-1.8,3.2,0.1,4.4C112.3,203.4,114.8,204.2,117.3,205.2z"/>
				<g>
					<g>
						<g class="st1">
							<path class="st2" d="M112.4,216.9c0.7-2.7,0.2-4.5-0.9-6.2c-1.1-1.6-2.6-3.2-3.1-4.8c-0.1-0.2-0.2-0.4-0.4-0.7
								c-0.2-0.3-0.3-0.5-0.4-0.8c-0.2-0.5-0.4-1.1-0.4-1.7c0-0.4,0.1-0.2,0.3,0.4c0.1,0.3,0.2,0.7,0.4,1.2c0.2,0.5,0.4,1,0.5,1.6
								c0.4,0.7,1,1.4,1.6,2.2c-0.1-2.6,0.1-5.2,0.7-7c-0.2-0.3-0.3-0.7-0.2-0.9c0,0,0.1-0.1,0.1-0.1c0,0,0,0,0,0c0,0,0,0,0.1,0
								c0.2,0,0.2,0,0.3,0c0.2,0,0.4-0.2,0.7-0.3c0.7-0.2,1.4-0.2,2.3,0.1c0.6,0.3,1.8,0.1,2.4,1.2c-1-0.1-2-0.1-2.6,0
								c-0.2,0-0.2,0-0.4,0c-0.1,0-0.1,0-0.2,0l-0.1,0l-0.2-0.1c-0.8-0.6-1.5-0.9-1.9-1c-0.5-0.1-0.6,0-0.4-0.1l-0.1,0
								c-0.1,0,0.3-0.1,0.9,0.2c0.6,0.2,1.4,0.7,2.3,1.4l0.3,0.3c0.1,0.1,0.1,0.1,0.1,0.1l0.1,0.1l0,0l0,0l0,0l0,0
								c-0.1-0.1,0.2,0.2-0.2-0.2l0,0l0,0l0,0l0.2,0.2l0.2,0.2c0.1,0.2,0.3,0.3,0.4,0.4c0,0,0.2,0.1,0.4,0.3
								c-0.1-0.1-0.3-0.2-0.4-0.3c0,0,0,0,0,0.1c0,0,0,0,0,0.1c0,0,0-0.1-0.1-0.1l-0.1-0.2c-0.2-0.2-0.3-0.4-0.5-0.6l-0.1-0.1
								l1.1,1.1l0,0l0,0c0,0,0,0,0,0l-0.1-0.1l-0.3-0.3c-0.2-0.2-0.4-0.4-0.7-0.6c-1.1-1-2.2-1.7-2.9-1.9c-0.6-0.2-0.8-0.1-0.8-0.1
								c0,0,0.1,0,0.1-0.1c0.1,0,0.2-0.1,0.3-0.2c0.1-0.1,0.2-0.1,0.3-0.2l0,0c-0.1,0.1-0.3,0.2-0.5,0.3c-0.1,0.1-0.1,0.1-0.2,0.1
								c0,0,0,0,0,0c0.1,0,0.6,0,1.3,0.4c0.7,0.3,1.6,1,2.6,1.9c0.3,0.2,0.5,0.5,0.7,0.7l0.1,0.1l0,0l0,0l0,0
								c-2.3-2.4-0.6-0.7-1.2-1.2l0,0l0.1,0.1l0.2,0.2c0.2,0.2,0.4,0.5,0.6,0.7c0.2,0.3,0.4,0.6,0.6,0.9c0.1,0.1,0.2,0.3,0.2,0.4
								c0.1,0.2,0.2,0.3,0.3,0.4c0.6,1.2,1,2.1,1.1,2.5c0.1,0.3,0.2,0.6,0.3,0.9l0.1,0.2l0,0.1l0-0.1l-0.1-0.2
								c-0.1-0.2-0.1-0.5-0.2-0.8c-0.2-1-0.3-2.1-0.2-2.3c0.1-0.2,0.3,0.8,0.3,0c-0.1-0.6-0.1-1,0-1.5c0.1-0.2,0.3,0.3,0.5,0.6
								c0.1,0.3,0.2,0.4,0.4-0.5c0.1-0.4,0.2,1.8,0.2,3.9c0,1-0.1,2-0.1,2.6c-0.1,0.8,0,0.4,0,0.4c0.6-6.3,0.2-1.7,0.1-1.1
								c0,0.1,0.4-2.4,0.4-2.2c-0.3,1.6,0.2-0.6,0.4-1.2c0.1-0.2,0.1-0.4,0.2-0.5c0,0,0-0.1,0-0.1c0-0.1,0-0.1,0.1-0.2
								c0.1-0.3,0.2-0.6,0.3-0.8c0.3-0.5,0.4-0.9,0.9-1.6c0.1-0.1,0.3-0.6,0.7-1l0.1-0.1l0,0l0,0l0,0c0.6-0.7-0.8,1-0.7,0.8l0,0l0,0
								l0,0l0,0c0.1-0.1,0.1-0.1,0.2-0.2c0.1-0.1,0.2-0.2,0.3-0.3c0.2-0.2,0.3-0.3,0.3-0.3c0.9-0.9,1.8-1.5,2.4-1.7
								c0.6-0.3,0.9-0.2,0.9-0.2c0,0-0.1,0-0.1,0c-0.1,0-0.1-0.1-0.3-0.2c-0.1,0-0.1-0.1-0.2-0.1c-0.1-0.1-0.2-0.1-0.3-0.2
								c-0.1-0.1-0.4-0.4-0.6-0.6c-0.4-0.5-0.8-1.1-1.3-1.8l-0.1-0.3l0,0c-1.2-2.1-0.3-0.6-0.6-1.1l0,0l0,0l0,0l0,0l0,0l0,0
								c-0.1,0-0.1,0-0.2,0c-0.1,0-0.1,0-0.2,0.1c-0.1,0.5-0.6,0-1.2-0.9c-0.6-0.9-1.4-2.2-2.1-3.4c-0.3-0.3-0.4,0-0.8-0.8
								c-0.4-0.8,0.1,1.6-0.3,1.3l-0.5-1.7c-0.1-0.1-0.4-0.3-0.5-0.4c-0.1-0.1-0.3-0.7-0.4-1.2c-0.3-1.1-0.7-2.2-1.1-3
								c-0.6-0.8-1.3-1.4-1.9-1.8c-0.2,1-0.3,2.1-0.5,3.3c0.2,0.8,0.5,1.5,0.6,2.2c0,0.5,0,0.9,0,1.4c0.5,1.7,1.2,3.4,1.5,4.5
								c1.6,4.6,2.8,9.3,4.5,13.5c0.5,1.2,1.2,1.4,2.2,3.5c0.3,0.7,0.7,2.2,1.2,3.9c0.3-0.1,0.9,1.7,1.3,3.2
								c0.1,0.1,0.2,0.2,0.2,0.2c0.2,0.6,0.7,2.2,0.7,2.2c0.7,0.9,1.6,2.3,2.4,3.1c0.8,0.8,1.6,1.1,1.9-0.1c0.2-0.4,0.2-1.8,0.3-2.7
								c0-0.5,0.7,0.4,0.9,0.4c-0.3-1.6-1-3.3-1.5-5c0.8,0.6,2.2,1.4,3.1,1.2c0.9-0.2,1.3-1.3-0.2-4c0.3-0.1,0.4-0.3,0.5-0.6
								c0-0.1,0-0.3,0-0.5c0-0.2,0.1-0.4,0.1-0.7c0.1-0.9,0.1-1.8,0.8-2.6c0.9-1,2.1-2.4,3.2-4.8c0.3-0.6,0.5-1.2,0.7-1.9
								c0.2-0.7,0.3-1.4,0.4-2.1c0.1-0.7,0.1-1.5,0-2.2c0-0.3-0.1-0.7-0.1-1c-0.1-0.3-0.1-0.6-0.2-0.9c-1.1-2.6-2.1-4.1-3.1-5.3
								c-0.4-0.4-0.7-0.7-1.1-1.1c-0.9-0.7-1.8-1.4-2.7-2.1c-0.8-0.6-1.7-1.1-2.4-1.6c-1.5-1-2.9-1.7-4.4-2.2
								c-1.4-0.5-2.9-0.8-4.3-0.5c-1.5,0.2-2.9,0.9-4.2,2.4c-1.3,1.5-2.5,2.6-3.7,3.7c-1.2,1.1-2.5,2-3.8,3.3
								c-0.6,0.6-1.3,1.2-2,2.1c-0.7,0.9-1.5,2.3-1.7,4.3c-0.1,1,0,2.1,0.3,3c0.3,1,0.6,1.8,1.1,2.5c0.4,0.7,0.8,1.3,1.2,1.8
								l0.6,0.7c0.2,0.2,0.4,0.5,0.5,0.6c1.6,2.5,3,4.7,3.7,6.5c0.8,1.8,1,3.1,1.1,3.5L112.4,216.9z"/>
						</g>
					</g>
				</g>
				<g>
					<g>
						<g class="st1">
							<path class="st2" d="M116.6,198.8c0.7,2.7,2.6,4.2,4.8,4.8c2.2,0.6,4.3,0.4,6,0.4c1-0.3,2-0.5,2.8-0.7
								c0.4-0.1,0.2,0.1-0.3,0.3c-0.5,0.2-1.4,0.4-2.5,0.4c-0.8,0.2-1.7,0.4-2.9,0.4c2.2,1.6,4.9,2.5,7.2,2.8
								c0.8-0.6,1.6-1.4,2.4-2.2c1.6-1.9,2.5-4.6,2.4-7.3c-0.1-2.7-1.2-5.5-2.8-7.9c-0.5-0.9-1.6-2.1-2.9-3.1
								c-0.6-0.5-1.2-1-1.8-1.5c-0.6-0.4-1.1-0.9-1.4-1.4c0.9,0.5,1.8,0.9,2.7,1.5l1.3,0.9l1.2,1c0.8,0.6,1.5,1.5,2.3,2.3
								c0.4,0.4,0.7,0.9,1,1.4c0.3,0.5,0.6,1,0.9,1.5c1.1,2.1,1.7,4.5,1.5,6.9c-0.1,2.4-0.9,4.7-2,6.5l0.7-0.5
								c1.4-2,2.4-4.5,2.5-7.3c0.2-2.8-0.6-5.6-1.9-8.1c-0.3-0.4-0.5-0.8-0.8-1.2c-0.1-0.2-0.2-0.4-0.4-0.6
								c-0.1-0.2-0.2-0.4-0.3-0.6l0.4,0.5l0.4,0.6c0.2,0.4,0.5,0.8,0.7,1.2c1.4,2,3,4.1,3.6,7.1c0.1,1.9-0.8,3.9-1.3,5.5
								c-0.5,1.3-1.9,2.2-2.9,2.8c-0.4,0.6-0.9,1.1-1.3,1.6c0,0.2-0.1,0.4-0.2,0.6c0,0,0,0,0.1,0c1.2,0.3,3.2-0.1,5.2-2.1
								c1-1,2-2.3,2.8-3.9c0.8-1.7,1.3-3.7,1.5-5.7c0.2-2.1-0.1-4.3-0.6-6.3c-0.5-2-1.3-3.8-2.2-5.2c-0.2-0.4-0.4-0.7-0.7-1.1
								c-0.2-0.3-0.4-0.6-0.6-0.8c-0.4-0.5-0.8-1-1.2-1.4c-0.8-0.9-1.4-1.3-1.9-1.5c-0.7-0.3-1.6-0.6-2.4-0.5
								c-0.9,0-1.8,0.1-2.6,0.3c-0.9,0.1-1.7,0.4-2.5,0.5c-0.8,0.1-1.5,0.1-2.2,0c-0.9-0.1-1.4-1.3-2.3-0.7
								c-0.2,0.5-0.6,0.9-1.1,1.2c-0.9,0-1.6-0.7-2.4-1.1c-0.8-0.4-1.5-0.6-2.2,0.2c-0.5,0.3-1.2-1.9-2-3.9
								c-0.8-2.1-1.8-3.9-1.9-3.1c-0.3,3.2-0.3,3.6-0.6,3.2c-0.3-0.4-0.8-1.7-2.1-1.8c-0.3-0.1-0.9,2.6-1.5,2.4
								c-1.1-0.6-1.8-0.3-2.3,0.3c-0.6,0.6-1.1,1.5-2,2.2c-1.2,1.4-2.3,1.4-3.3,1.6c-1,0.2-2,0.8-2.1,3.2c0,0.3-0.6,1.7-1.1,2.9
								c-0.4,1.3-0.7,2.5-0.7,2.5c-1.4,1-1.7,2.6-2.2,3.8c-0.5,1.3-1.2,2.1-3.8,3.1c1.4,2.3,1.1,4.1,0.9,6.4
								c-0.3,2.2-0.2,4.9,1.2,6.4c0.3,0.4,0.6,0.7,0.8,1.1c0.2,0.3,0.4,0.7,0.5,1c0.3,0.7,0.4,1.5,0.5,2.3c0.2,1.6,0,3.5,0.7,5.7
								c0.6,1,1.4,1.1,1.4,2.2c0,0.5,0.7,0.4,1.4,0.3c0.7-0.1,1.5-0.3,1.8,0.1l-1,1.5c0.3,0.3,0.8,0.8,1,1.1c0.3,0.3,0,0.8-0.3,1.3
								c-0.6,1-1.3,2-0.9,3.1c1.2,1.5,2.6,2.8,4.1,3.8c1.9-0.4,3.7-1.1,5.3-2c0.2-0.8,0.4-1.6,0.7-2.2c0.5-0.4,0.9-0.8,1.3-1.2
								c0.4-1.7,0.5-3.6,0.7-4.7c0.2-2.4,0.7-4.8,1.1-7.2c0.4-2.3,0.7-4.7,0.7-6.9c0-1.3-1.1-1.8-1.1-4.2c0-0.7,0.5-2.3,0.7-4
								c-0.4,0,0-1.9,0.3-3.5c0-0.2,0-0.3,0-0.3c0.1-0.6,0.4-2.3,0.4-2.3c0-0.3,0-0.6,0.1-0.9l0.1-0.5l0-0.1c0,0,0,0,0,0.1l0,0.2
								l-0.2,0.6c-0.1,0.2-0.1,0.4-0.2,0.6c-0.2,0.7-0.5,1.2-0.6,1.5c-0.1,0.1-0.2,0.3-0.2,0.3c0,0,0,0.1,0,0l0,0l0,0l0,0
								c0,0,0,0,0,0l-0.1,0.1l-0.4,0.5c0.1-0.2,0.3-0.4,0.4-0.5c0.1-0.1,0.1-0.2,0.2-0.2l0,0l0,0l0,0l0,0l-2.4,2.6l-0.1,0.1
								c-0.2,0.2-0.3,0.3-0.5,0.5c-0.2,0.2-0.3,0.3-0.5,0.4c-0.6,0.5-1,0.7-1,0.7c-0.1,0.1-0.3,0.2-0.4,0.2c-0.1,0-0.2,0.1-0.2,0.1
								c-0.1,0-0.1,0-0.2,0.1c0,0-0.2,0-0.2,0.1c-0.2,0-0.2,0-0.1,0c0.1,0,0.1,0,0.2,0c0.1,0,0.2,0,0.3,0.1c0.1,0,0.2,0.1,0.3,0.1
								l0.2,0.1c0.1,0,0,0,0,0c-0.4-0.2-0.2-0.3,0-0.5c0-0.1,0.1-0.2,0.2-0.3c0.1-0.3,0.5-0.5,0.8-0.7c0.4-0.1,0.8-0.2,1.2-0.3
								c0.4-0.1,0.9,0,1.4,0l0.7,0.1c0.2,0,0.4,0.1,0.7,0.1c0.9,0.1,1.8,0.3,2.7,0.1c0.9-0.1,1.9-0.5,3.3-1.3c1.4-0.7,2.8-0.9,4-0.6
								c0.3,0.1,0.6,0.2,0.8,0.3c0.2,0.1,0.4,0.2,0.6,0.4c0.3,0.3,0.6,0.6,0.7,1c0.2,0.7-0.1,1.4-0.7,1.9c-0.6,0.5-1.5,0.7-2.4,0.7
								c-1.9,0-3.9-1-5.3-2.1c-1.4-1.1-2.3-2.2-2.8-2.6C117,197.3,116.8,198,116.6,198.8z"/>
						</g>
					</g>
				</g>
			</g>
		</g>
		<g class="st4">
			<path class="st0" d="M160.1,209.1c3.5,0,7,0.8,10,3.4c4.8,4.1,4.9,10.6,0.3,15c-5.5,5.2-15.3,5.4-20.9,0.4
				c-4.6-4.1-4.7-10.6-0.2-14.9C152.3,210.1,156,209.1,160.1,209.1z M159.4,225.4c2.5-1.2,5-2,7.2-3.4c1.6-1,1.4-2.8,0.2-4.1
				c-3.1-3.3-10.9-3.1-13.8,0.3c-1.3,1.4-1.4,3.1,0.1,4.1C154.9,223.5,157.1,224.3,159.4,225.4z"/>
			<g>
				<path class="st5" d="M160.1,209.1c3.5,0,7,0.8,10,3.4c4.8,4.1,4.9,10.6,0.3,15c-5.5,5.2-15.3,5.4-20.9,0.4
					c-4.6-4.1-4.7-10.6-0.2-14.9C152.3,210.1,156,209.1,160.1,209.1z M159.4,225.4c2.5-1.2,5-2,7.2-3.4c1.6-1,1.4-2.8,0.2-4.1
					c-3.1-3.3-10.9-3.1-13.8,0.3c-1.3,1.4-1.4,3.1,0.1,4.1C154.9,223.5,157.1,224.3,159.4,225.4z"/>
				<g>
					<g>
						<g class="st1">
							<path class="st2" d="M153.9,236.8c0.8-2.6,0.5-4.5-0.3-6.1c-0.8-1.6-2.1-3.1-2.3-4.7c-0.1-0.2-0.2-0.4-0.3-0.6
								c0-0.1-0.1-0.2-0.2-0.4c-0.1-0.1-0.1-0.3-0.2-0.4c-0.2-0.6-0.4-1.1-0.3-1.6c0-0.4,0.1-0.2,0.3,0.4c0.1,0.6,0.7,1.7,0.7,2.6
								c0.3,0.7,0.8,1.3,1.3,2.1c0.1-2.5,0.5-5,1.1-6.9c-0.2-0.3-0.2-0.6-0.1-0.8c0.2-0.2,0.3-0.2,0.5-0.2c0.2,0,0.3-0.1,0.6-0.2
								c0.5-0.2,1.2-0.2,1.9,0.2c0.5,0.3,1.4,0.2,2,1.3c-0.7-0.1-1.4-0.1-1.8-0.2c-0.1,0-0.2,0-0.2-0.1c0.1,0.1-0.6-0.4-1.1-0.6
								c-0.5-0.2-0.9-0.4-1.2-0.4c-0.3,0-0.4,0-0.3,0l0,0c0,0,0,0,0.2,0c0.1,0,0.3,0,0.5,0c0.4,0.1,0.9,0.3,1.4,0.6
								c0.3,0.2,0.5,0.3,0.8,0.5c0.1,0.1,0.3,0.2,0.4,0.3l0,0l0,0l0,0l0,0c-0.1-0.1,0.3,0.3-0.3-0.3l0,0l0,0l0.1,0l0.1,0.1
								c0.1,0.1,0.3,0.3,0.4,0.4c0.1,0.1,0.3,0.4,0.4,0.5c0.1,0.1,0.2,0.3,0.2,0.4c0,0.1,0.1,0.1,0.2,0.3c-0.1-0.1-0.3-0.4-0.4-0.7
								c-0.1-0.2-0.3-0.3-0.4-0.5c-0.1-0.1-0.2-0.3-0.3-0.4c-0.1-0.1-0.1-0.1-0.2-0.2l-0.1,0l0,0l0,0l0,0c-0.1-0.1,0.6,0.5,0.3,0.3
								l0,0l0,0l0,0l0,0l-0.2-0.1c-0.2-0.2-0.5-0.4-0.7-0.5c-0.6-0.4-1.3-0.7-1.8-0.8c-0.4-0.1-0.6,0-0.6,0l0.1,0
								c0,0,0.1-0.1,0.2-0.1l0.1-0.1l0,0c-0.1,0.1-0.5,0.3-0.3,0.2c0.1,0,0.4,0,0.9,0.1c0.4,0.1,1,0.4,1.6,0.8
								c0.7,0.4,1.2,1.1,1.7,1.8c0.5,0.8,0.8,1.5,0.9,1.8c0.2,0.5,0.4,0.9,0.5,1.4l0.1,0.3c0,0,0,0.2,0,0.1c0-0.1,0-0.2-0.1-0.3
								c-0.1-0.4-0.1-0.7-0.1-0.8c0-0.2,0.2,0.8,0.1,0c-0.1-0.6-0.1-1-0.1-1.5c0.1-0.2,0.2,0.3,0.3,0.6c0.1,0.3,0.1,0.4,0.2-0.5
								c0.1-0.4,0.1,1.8,0,3.9l0,0.4c0,0,0,0,0,0l0,0c0,0,0-0.1,0-0.1c0-0.1,0-0.1,0-0.1c0,0,0-0.1,0-0.1c0-0.2,0-0.2,0-0.3
								c0,0,0,0,0,0.1c0,0.1,0,0.1,0,0.1l0,0c0,0,0,0,0-0.1c0-0.1,0-0.1,0-0.3c0-0.1,0-0.4,0.1-0.5c0.1-0.3,0.1-0.5,0.2-0.8
								c0.1-0.2,0.1-0.5,0.3-0.9c0.4-1.3,0.6-1.6,1.2-2.6c0,0,0.1-0.1,0.2-0.3c0.1-0.1,0.3-0.4,0.4-0.5c0.2-0.3,0.5-0.5,0.5-0.5
								c0.2-0.2,0.4-0.4,0.6-0.6l0.2-0.1c0.1-0.1,0.2-0.2,0.3-0.2c0.2-0.1,0.4-0.3,0.6-0.3c0.4-0.2,0.7-0.2,0.9-0.2
								c0.1,0,0.1,0,0.1,0c-0.1,0-0.2-0.1-0.4-0.3c-0.1-0.1-0.2-0.2-0.3-0.4c-0.1-0.1-0.1-0.2-0.2-0.2l0-0.1l0,0l-2.2-3.3l0,0l0,0
								l0,0l-0.1-0.1c-0.3-0.1-0.5-0.2-0.5,0c-0.2,0.9-2-1.7-3.6-4c-0.3-0.3-0.3,0-0.8-0.7c-0.5-0.8,0.3,1.6-0.1,1.3l-0.6-1.6
								c-0.1-0.1-0.4-0.3-0.5-0.4c-0.1-0.1-0.3-0.6-0.6-1.2c-0.4-1.1-0.8-2.2-1.3-2.9c-0.7-0.8-1.3-1.3-1.9-1.7c0,1-0.1,2,0,3.2
								c0.3,0.7,0.6,1.5,0.8,2.1c0.1,0.5,0.1,0.9,0.2,1.4c0.6,1.6,1.5,3.3,1.9,4.4c2,4.5,3.6,9,5.6,13c0.6,1.2,1.3,1.3,2.4,3.4
								c0.3,0.6,0.9,2.1,1.5,3.8c0.3-0.1,1,1.6,1.6,3.1c0.1,0.1,0.2,0.2,0.2,0.2c0.2,0.5,0.9,2.2,0.9,2.2c1.5,1.7,4,5.2,4.3,2.7
								c0.1-0.4,0-1.7-0.1-2.7c0-0.5,0.7,0.3,0.9,0.4c-0.5-1.5-1.3-3.2-2-4.8c0.8,0.6,2.1,1.3,2.9,1.1c0.8-0.2,1-1.2-0.7-3.9
								c0.5-0.1,0.4-0.8,0.2-1.6l-0.1-0.6c0-0.1,0-0.2,0-0.3c0-0.1,0.1-0.3,0.1-0.4c0.2-0.5,0.4-0.9,0.8-1.5
								c1.1-1.3,2.4-3.3,3.1-5.7c0.3-1.2,0.4-2.5,0.4-3.7c-0.1-1.2-0.3-2.3-0.6-3.3c-1-2-1.8-3.5-2.7-4.6c-0.4-0.4-0.8-0.8-1.1-1.1
								c-0.4-0.4-0.9-0.7-1.3-1.1c-0.4-0.3-0.8-0.6-1.2-0.9c-0.4-0.3-0.8-0.6-1.1-0.8c-0.4-0.3-0.8-0.5-1.1-0.8
								c-1.4-0.9-2.8-1.7-4.2-2.2c-1.4-0.5-2.8-0.8-4.3-0.6c-1.4,0.2-2.9,1-4.1,2.4c-1.2,1.5-2.4,2.7-3.5,3.9
								c-1.1,1.1-2.3,2.3-3.5,3.6c-0.6,0.7-1.2,1.4-1.7,2.4c-0.5,1-1,2.4-1.1,4c0,1.7,0.5,3.5,1.3,4.8c0.2,0.3,0.4,0.7,0.6,0.9
								c0.2,0.3,0.4,0.6,0.6,0.8l0.3,0.4l0.2,0.2c0,0.1,0,0.1,0.1,0.1l0.2,0.4c1.3,2.3,2.2,4.5,2.7,6.2c0.5,1.7,0.6,3.1,0.7,3.5
								L153.9,236.8z"/>
						</g>
					</g>
				</g>
				<g>
					<g>
						<g class="st1">
							<path class="st2" d="M160.3,221.7c-0.7-2.7-2.3-4.2-3.8-4.8c-0.8-0.3-1.6-0.4-2.5-0.4c-0.4,0-0.8,0.1-1.3,0.1
								c-0.4,0-0.8,0.1-1.2,0.1c-0.9,0.3-1.6,0.6-2.5,0.9c-0.3,0.1-0.3,0,0.2-0.3c0.4-0.2,1.2-0.6,2.3-0.6c0.3-0.1,0.7-0.2,1.1-0.3
								c0.4-0.1,0.9-0.2,1.3-0.3c-2.2-1.4-4.9-2-7.2-2c-0.6,0.7-1.3,1.5-1.8,2.4c-0.6,1-1,2.1-1.2,3.3c-0.2,1.2-0.2,2.4-0.1,3.6
								c0.1,1.2,0.5,2.4,0.9,3.6c0.5,1.2,1,2.4,1.7,3.5c0.2,0.4,0.6,0.9,1.1,1.4c0.4,0.5,1,1,1.6,1.5c1.1,1,2.3,1.9,3,2.7
								c-1.8-0.8-3.4-1.9-4.9-3.2c-1.5-1.3-2.9-2.9-3.9-4.7c-1-1.8-1.6-3.9-1.8-6c-0.1-2.1,0.2-4.2,1-6.1c-0.2,0.2-0.4,0.3-0.6,0.5
								c-1,2-1.5,4.4-1.4,6.8c0.1,2.4,0.8,4.9,1.9,7.1c0.5,0.7,0.9,1.4,1.3,2.2c-0.5-0.7-0.9-1.4-1.3-2.2c-1.2-1.8-2.8-3.5-3.5-6
								c-0.2-1.6,0.4-3.5,0.7-4.9c0.1-0.6,0.5-1.2,0.9-1.6c0.4-0.5,1-0.9,1.5-1.3c0.3-0.6,0.6-1.2,1-1.7c0-0.2,0-0.4,0-0.6
								c0,0,0,0-0.1,0c-0.6-0.1-1.4,0.1-2.2,0.5c-0.8,0.4-1.7,1.1-2.5,2.1c-1.7,2-3,5.3-3.1,9c-0.1,3.7,1.1,7.5,2.7,10.1
								c0.4,0.7,0.8,1.3,1.2,1.8c0.4,0.5,0.8,1,1.1,1.4c0.7,0.7,1.3,1.2,1.8,1.4c1.4,0.6,3.2,0.5,4.9,0.1c1.7-0.3,3.2-0.8,4.6-0.6
								c0.9,0.1,1.4,1.3,2.2,0.6c0.2-0.5,0.6-0.9,1-1.3c0.8,0,1.6,0.6,2.3,1c0.8,0.4,1.5,0.5,2.2-0.3c0.4-0.4,1.2,1.9,2.2,3.8
								c1,2,2.1,3.8,2.1,2.9c0.1-6.5-0.1-1.7,2.6-1.6c0.4,0.1,0.7-2.7,1.3-2.6c2.4,1,2.4-1.3,4.1-2.9c0.5-0.8,1-1.3,1.6-1.5
								c0.5-0.2,1-0.3,1.5-0.5c0.5-0.2,0.9-0.4,1.2-0.9c0.3-0.5,0.5-1.3,0.3-2.5c0-0.1,0.1-0.5,0.2-1.1c0.1-0.6,0.3-1.2,0.4-1.9
								c0.1-0.7,0.2-1.3,0.2-1.8c0-0.5,0-0.8,0-0.8c0.6-0.6,0.9-1.3,1.1-2c0.2-0.7,0.2-1.4,0.4-2c0.3-1.2,0.8-2.1,3.2-3.3
								c-1.8-1.9-1.7-3.4-1.6-5.5c0.1-1.9,0.1-4.3-1.2-5.6c-0.6-0.6-1-1.3-1.3-1.9c-0.3-0.7-0.4-1.4-0.4-2.2
								c-0.1-0.8-0.1-1.7-0.2-2.6c-0.1-0.9-0.2-1.9-0.5-3c-0.6-0.9-1.4-1.1-1.5-2.1c0-0.5-0.7-0.4-1.4-0.3c-0.7,0.1-1.4,0.4-1.8,0
								l0.9-1.5c-0.3-0.3-0.8-0.8-1.1-1.1c-0.3-0.3,0-0.8,0.3-1.3c0.6-1,1.2-2,0.8-3.1c-1.2-1.5-2.7-2.7-4.3-3.6
								c-1.8,0.5-3.5,1.3-5,2.3c-0.1,0.8-0.3,1.6-0.5,2.2c-0.4,0.4-0.8,0.8-1.2,1.2c-0.3,1.7-0.3,3.6-0.5,4.8
								c-0.1,2.5-0.5,4.9-0.8,7.2c-0.3,2.4-0.4,4.7-0.4,6.9c0.1,1.3,1.1,1.8,1.2,4.1c0,0.7-0.3,2.3-0.5,4c0.3,0,0.1,1.9-0.2,3.5
								c0,0.1,0,0.3,0,0.3c-0.1,0.6-0.3,2.3-0.3,2.3c0,0.1,0,0.3,0,0.4c0,0.2,0,0,0-0.1l0-0.3c0.1-0.4,0.1-0.7,0.2-1.1l0.2-0.9
								c0.1-0.3,0.1-0.5,0.2-0.7c0.3-0.9,0.5-1.3,0.5-1.4c0-0.1,0,0,0,0c0,0-0.1,0.2-0.2,0.2l-0.1,0.2c0,0-0.1,0.1-0.1,0.1l-0.1,0.1
								c0.5-0.6,1-1.1,1.5-1.7l0,0c0.1-0.1,0.2-0.2,0.3-0.3c0.2-0.2,0.3-0.4,0.6-0.5c0.3-0.3,0.6-0.4,0.5-0.4
								c0.1-0.1,0.3-0.1,0.3-0.2c0.1,0,0.2-0.1,0.2-0.1c0,0,0.1,0,0.1,0l0,0c0,0,0,0-0.1,0c0,0-0.1,0-0.1,0l-0.1,0c0,0,0,0,0,0
								c0.4,0.1,0.3,0.2,0.2,0.3c0,0,0,0.1,0,0.2c0,0.3-0.7,0.6-1.3,0.6c-0.6,0-1.3-0.2-1.9-0.3c-0.6-0.1-1.2-0.2-1.8,0
								c-0.6,0.2-1.3,0.7-2.4,1.6c-1.1,0.9-2.4,1.1-3.5,0.9c-1-0.2-1.7-0.8-2-1.5c-0.3-0.7,0-1.5,0.4-2c0.5-0.5,1.3-0.8,2.1-0.7
								c0.2,0,0.4,0,0.6,0.1c0.2,0,0.4,0.1,0.6,0.1c0.4,0.1,0.8,0.2,1.2,0.5c0.7,0.4,1.2,1.1,1.6,1.7c0.8,1.2,1.4,2.3,1.7,2.6
								C159.9,223.2,160.1,222.5,160.3,221.7z"/>
						</g>
					</g>
				</g>
			</g>
		</g>
		<g class="st4">
			<path class="st0" d="M122.2,151.9c3.7,0,6.7,0.8,9.3,2.9c3.8,3.1,3.9,7.8,0.4,11.1c-4.8,4.5-14.3,4.7-19.3,0.5
				c-3.6-3.1-3.7-7.8-0.1-11C115.4,152.8,118.8,151.9,122.2,151.9z M122.5,156.3c-2.3,0.9-4.4,1.5-6.3,2.6c-1.6,0.9-1.4,2.2,0,3.4
				c2.8,2.4,9.3,2.2,12-0.4c1.1-1.1,1.3-2.4-0.1-3.2C126.4,157.7,124.5,157.1,122.5,156.3z"/>
			<g>
				<path class="st5" d="M122.2,151.9c3.7,0,6.7,0.8,9.3,2.9c3.8,3.1,3.9,7.8,0.4,11.1c-4.8,4.5-14.3,4.7-19.3,0.5
					c-3.6-3.1-3.7-7.8-0.1-11C115.4,152.8,118.8,151.9,122.2,151.9z M122.5,156.3c-2.3,0.9-4.4,1.5-6.3,2.6c-1.6,0.9-1.4,2.2,0,3.4
					c2.8,2.4,9.3,2.2,12-0.4c1.1-1.1,1.3-2.4-0.1-3.2C126.4,157.7,124.5,157.1,122.5,156.3z"/>
				<g>
					<g>
						<g class="st1">
							<path class="st2" d="M127.5,144.6c-0.8,2.6-0.5,4.4,0.2,5.9c0.7,1.5,1.8,2.8,2.1,4.3c0.2,0.4,0.3,0.7,0.6,1.3
								c0.2,0.5,0.4,1,0.4,1.5c0,0.4-0.1,0.2-0.3-0.4c-0.1-0.3-0.2-0.7-0.4-1.1c0-0.1-0.1-0.2-0.1-0.3c0-0.1,0-0.2-0.1-0.3
								c0-0.2-0.1-0.4-0.1-0.7c-0.3-0.6-0.7-1.2-1.2-1.9c-0.1,2.5-0.5,4.9-1.1,6.8c0.1,0.1,0.1,0.2,0.1,0.4c0,0.1,0,0.1,0,0.2
								c0,0-0.1,0.1-0.1,0.1c0.1-0.1,0.2-0.1,0.1-0.1c-0.1,0-0.2,0-0.5-0.1c-0.1,0-0.3-0.1-0.4-0.1c-0.1,0-0.1,0-0.1,0
								c-0.1,0-0.2,0-0.3,0c-0.5,0-1-0.1-1.7-0.6c-0.5-0.4-1.2-0.3-1.7-1.4c0.6,0.2,1.2,0.2,1.5,0.4c0.1,0,0.1,0,0.1,0.1l0.2,0.2
								c0.3,0.4,0.9,0.8,1.3,1.1c0.5,0.3,0.9,0.5,1.2,0.5c0.3,0,0.3,0,0.2,0l0.1,0c0.1,0-0.1,0-0.5-0.1c-0.4-0.1-0.9-0.4-1.4-0.7
								c-0.3-0.2-0.5-0.4-0.7-0.6l-0.3-0.3c-0.1-0.1-0.2-0.2-0.2-0.2c-0.2-0.2-0.2-0.3-0.4-0.5c-0.2-0.2-0.3-0.4-0.4-0.6
								c-0.1-0.1-0.2-0.3-0.3-0.5c-0.1-0.2-0.1-0.2-0.2-0.4l0.1,0.1l0.1,0.3c0.1,0.2,0.2,0.3,0.3,0.5c0.2,0.4,0.5,0.8,0.7,1.1
								c0.1,0.2,0.3,0.3,0.4,0.4c0.1,0.1,0.4,0.4,0.6,0.6c0.6,0.5,1.3,0.9,1.7,1c0.3,0.1,0.5,0,0.5,0.1c0,0-0.2,0.1-0.3,0.2
								c-0.1,0-0.1,0.1-0.2,0.2l0,0c0.1-0.1,0.2-0.2,0.3-0.3c0.1-0.1,0.2-0.1,0.2-0.1c-0.1,0-0.4,0-0.8-0.2c-0.4-0.2-1-0.5-1.5-1
								c-0.1-0.1-0.3-0.2-0.4-0.3l-0.3-0.3c-0.2-0.2-0.3-0.4-0.4-0.5c-0.3-0.4-0.6-0.8-0.8-1.3c-0.3-0.4-0.4-0.8-0.6-1.2
								c-0.2-0.3-0.2-0.6-0.3-0.7c-0.2-0.5-0.3-0.9-0.4-1.4c0-0.1,0-0.2-0.1-0.3l0-0.1c0-0.1,0,0,0,0.1l0,0.2
								c0.1,0.4,0.1,0.7,0.1,0.8c0,0.1-0.2-0.9-0.1,0c0.1,0.6,0.1,1,0.1,1.5c-0.1,0.2-0.2-0.3-0.3-0.6c-0.1-0.3-0.1-0.4-0.2,0.5
								c0,0.2-0.1-0.3-0.1-1c0-0.4,0-0.8,0-1.3c0-0.5,0-1,0-1.4c0,0.2,0,0.3,0,0.3c-0.1,0.7,0,0.4-0.1,0.6c0,0.1,0,0.4-0.1,0.6
								c-0.1,0.7-0.2,0.9-0.4,1.8c-0.2,0.7-0.4,1.1-0.5,1.5c-0.1,0.2-0.2,0.4-0.3,0.6c-0.1,0.2-0.2,0.4-0.3,0.7
								c0,0.1-0.3,0.5-0.5,0.8c-0.1,0.1-0.1,0.2-0.2,0.2c0,0-0.1,0.1-0.1,0.1l0,0l0,0l0,0l0,0c-0.6,0.7,0.8-0.9,0.7-0.8l0,0l0,0l0,0
								l0,0c-0.2,0.2-0.3,0.4-0.3,0.4c-0.8,0.9-1.5,1.4-2,1.7c-0.5,0.3-0.9,0.3-1,0.3c-0.2,0,0.3,0,1,0.8c0.2,0.2,0.3,0.4,0.5,0.6
								c0.1,0.1,0.2,0.3,0.2,0.4l0,0l0,0l1.7,2.9l0,0l0,0l0,0l0,0l0,0l0.1,0.1c0.2,0.2,0.4,0.3,0.4,0.1c0.1-0.9,1.7,1.9,3.1,4.3
								c0.3,0.4,0.3,0,0.7,0.8c0.4,0.8-0.3-1.6,0.1-1.3l0.6,1.6c0.1,0.1,0.3,0.3,0.4,0.4c0.1,0.1,0.3,0.7,0.5,1.2
								c0.4,1.1,0.7,2.2,1.2,3c0.6,0.8,1.2,1.4,1.7,1.8c0-0.9,0.1-2,0-3.2c-0.3-0.8-0.5-1.5-0.7-2.1c0-0.4-0.1-0.9-0.1-1.3
								c-0.6-1.6-1.3-3.4-1.7-4.5c-1.8-4.6-3.2-9.2-5-13.3c-0.5-1.2-1.1-1.4-2.1-3.5c-0.3-0.7-0.8-2.2-1.4-3.8
								c-0.2,0.1-0.9-1.7-1.4-3.2c-0.1-0.1-0.2-0.2-0.2-0.2c-0.2-0.5-0.8-2.2-0.8-2.2c-1.3-1.8-3.5-5.5-3.7-3.1
								c-0.1,0.3,0,1.7,0.1,2.6c0,0.5-0.6-0.4-0.8-0.5c0.4,1.5,1.2,3.3,1.7,4.9c-0.7-0.6-1.9-1.4-2.6-1.3c-0.7,0.1-0.9,1.1,0.6,3.9
								c-0.4,0.1-0.4,0.8-0.2,1.5c0.2,0.7,0,1.7-0.6,2.4c-0.9,1-2.3,2.4-3.4,5c-0.3,0.7-0.5,1.4-0.6,2.1c-0.1,0.8-0.2,1.5-0.2,2.3
								c0,0.8,0.1,1.5,0.2,2.2c0.1,0.7,0.3,1.3,0.5,1.8c1.2,2.2,2.1,3.4,3,4.4c0.4,0.3,0.7,0.6,1,0.8c1.8,1.3,3.2,2.3,4.5,3.1
								c1.3,0.8,2.5,1.5,3.7,2c1.2,0.5,2.5,0.7,3.7,0.5c1.2-0.2,2.5-0.9,3.6-2.3c1.1-1.4,2-2.6,3-3.5c1-1,2.1-1.9,3.2-3
								c0.6-0.6,1.2-1.2,1.8-2.1c0.6-0.9,1.3-2.4,1.3-4.2c0-0.9-0.2-1.9-0.5-2.8c-0.2-0.4-0.3-0.9-0.5-1.2c-0.2-0.4-0.4-0.7-0.6-1
								c-0.2-0.3-0.4-0.6-0.6-0.9c-0.2-0.3-0.4-0.5-0.6-0.7l-0.3-0.3c-0.1-0.1-0.1-0.1-0.1-0.2l-0.2-0.4c-1.2-2.1-2-4.2-2.4-5.8
								c-0.4-1.7-0.5-2.9-0.6-3.3L127.5,144.6z"/>
						</g>
					</g>
				</g>
				<g>
					<g>
						<g class="st1">
							<path class="st2" d="M122.3,164.6c-0.3-2.7-1.5-4.2-2.9-5c-0.7-0.4-1.4-0.6-2.2-0.6c-0.7-0.1-1.5-0.1-2.2-0.2
								c-0.8,0.1-1.5,0.1-2.2,0.2c-0.3,0-0.2-0.1,0.2-0.2c0.4-0.1,1.1-0.2,2,0c0.1,0,0.3,0,0.4,0c0.2,0,0.4,0,0.5-0.1
								c0.4,0,0.7-0.1,1.1,0c-1-0.8-2.1-1.4-3.2-1.9c-1.1-0.5-2.3-0.8-3.4-1c-0.6,0.5-1.2,1.2-1.8,1.9c-1.2,1.7-1.6,4-1.2,6.2
								c0.4,2.2,1.5,4.3,2.9,6.1c0.2,0.4,0.6,0.8,1,1.2c0.4,0.4,0.9,0.8,1.5,1.2c0.5,0.4,1,0.8,1.5,1.1c0.5,0.4,0.9,0.7,1.2,1.1
								c-1.5-0.6-3-1.3-4.5-2.3c-1.4-1-2.7-2.2-3.9-3.8c-1.1-1.6-1.9-3.5-2.1-5.5c-0.2-2,0.1-4.1,1-5.8c-0.2,0.2-0.4,0.3-0.6,0.5
								c-1,1.9-1.6,4.2-1.3,6.6c0.2,2.4,1.1,4.7,2.4,6.6c0.5,0.5,1,1.2,1.4,1.8c-0.5-0.5-1-1.2-1.4-1.8c-1.3-1.5-3-2.9-4-5.4
								c-0.2-0.8-0.1-1.7,0-2.5c0.2-0.8,0.3-1.7,0.5-2.4c0.2-1.2,1.5-2.1,2.4-2.8c0.3-0.6,0.7-1.1,1-1.5c0-0.2,0-0.4,0.1-0.6
								c0,0,0,0-0.1,0c-1.2-0.2-3,0.3-4.8,2.3c-0.8,1-1.7,2.3-2.2,4c-0.5,1.6-0.7,3.5-0.6,5.4c0.2,3.8,1.9,7.4,3.6,9.6
								c0.4,0.6,0.8,1.1,1.2,1.5c0.4,0.4,0.8,0.8,1.1,1.1c0.7,0.6,1.3,1,1.8,1.1c0.3,0.1,0.7,0.2,1.1,0.2c0.4,0,0.7,0,1.1-0.1
								c0.8-0.1,1.5-0.4,2.3-0.7c1.5-0.6,2.8-1.2,3.9-1.2c0.8,0.1,1.2,1.2,1.9,0.4c0.2-0.6,0.5-0.9,0.8-1.3c0.7,0,1.3,0.5,2,0.8
								c0.6,0.4,1.3,0.5,1.8-0.4c0.4-0.3,1.1,1.8,1.9,3.8c0.8,2,1.8,3.9,1.8,3c0-6.4-0.1-1.7,2.2-1.5c0.3,0.1,0.6-2.6,1.1-2.5
								c1,0.6,1.5,0.3,2-0.3c0.4-0.6,0.8-1.4,1.5-2.2c0.9-1.4,1.9-1.4,2.8-1.6c0.9-0.2,1.7-0.7,1.5-3.1c0-0.3,0.4-1.5,0.6-2.8
								c0.2-1.2,0.3-2.4,0.3-2.4c1.2-1,1.2-2.5,1.5-3.6c0.1-0.6,0.4-1.1,0.8-1.6c0.5-0.5,1.2-1,2.4-1.6c-0.9-1-1.3-1.8-1.6-2.7
								c-0.1-0.4-0.2-0.9-0.2-1.3c0-0.5,0-0.9,0-1.4c0-1.9-0.2-4.2-1.6-5.3c-1.3-1-1.7-2.1-1.8-3.6c-0.1-1.4-0.1-3.3-0.8-5.2
								c-0.6-0.8-1.3-0.8-1.4-1.8c-0.1-0.5-0.7-0.3-1.3-0.1c-0.6,0.2-1.3,0.5-1.6,0.2l0.8-1.6c-0.2-0.2-0.7-0.7-1-0.9
								c-0.2-0.2,0-0.8,0.2-1.3c0.5-1.1,1-2.1,0.6-3.1c-1.1-1.3-2.4-2.4-3.7-3.1c-1.5,0.6-2.8,1.5-4,2.5c-0.1,0.8-0.2,1.6-0.4,2.2
								c-0.3,0.4-0.6,0.8-0.9,1.3c-0.2,1.7-0.2,3.6-0.4,4.8c-0.1,2.5-0.4,4.9-0.6,7.2c-0.2,2.4-0.4,4.7-0.3,6.9
								c0.1,1.3,0.9,1.8,1,4.1c0,0.7-0.3,2.3-0.4,4c0.3,0,0.1,1.9-0.1,3.5c0,0.1,0.1,0.3,0.1,0.3c-0.1,0.6-0.2,2.3-0.2,2.3
								c0,0.3,0,0.6,0,0.9c0.1-0.4,0.1-0.8,0.2-1.2c0.1-0.4,0.1-0.9,0.2-1.3c0.1-0.4,0.1-0.7,0.2-1.1c0.3-1.3,0.6-2.2,0.8-2.6
								c0.1-0.2,0.2-0.4,0.2-0.4c0,0,0,0,0,0c0,0,0,0,0,0l0,0c-0.1,0.1-0.1,0.2-0.3,0.4l-0.1,0.1l0,0l0,0l0,0
								c0.7-0.8-1.5,1.9,1.5-1.9l0,0l0,0l0,0l0,0l0.2-0.2c0.1-0.2,0.3-0.3,0.4-0.4c0.2-0.2,0.5-0.4,0.6-0.6c0.1-0.1,0.2-0.2,0.2-0.2
								c0.3-0.2,0.4-0.3,0.6-0.4c0.2-0.1,0.2-0.2,0.5-0.2c0.5-0.2,0.7,0,0-0.2c-0.4-0.1-0.8-0.3-1.4-0.7c-0.2-0.1-0.5-0.3-0.6-0.5
								c0.1,0.1-0.3,0.2-0.7,0.1c-0.5-0.1-1-0.3-1.6-0.5c-0.5-0.2-1-0.2-1.6,0c-0.5,0.2-1.1,0.8-2,1.7c-0.9,1-2,1.4-2.8,1.5
								c-0.9,0-1.4-0.3-1.5-0.6c-0.1-0.2,0-0.3,0.1-0.4c0.1-0.1,0.3-0.2,0.5-0.2c0.4,0,1,0.1,1.6,0.4c0.2,0.1,0.3,0.2,0.5,0.2
								c0.2,0.1,0.4,0.1,0.6,0.2c0.4,0.2,0.7,0.4,1,0.6c0.6,0.5,1.1,1.1,1.4,1.8c0.7,1.2,1,2.4,1.2,2.7
								C122.2,166,122.2,165.3,122.3,164.6z"/>
						</g>
					</g>
				</g>
			</g>
		</g>
	</g>
</g>
</svg>
