<?xml version="1.0" encoding="utf-8"?>
<!-- Generator: Adobe Illustrator 21.0.2, SVG Export Plug-In . SVG Version: 6.00 Build 0)  -->
<svg version="1.1" id="Layer_1" xmlns="http://www.w3.org/2000/svg" xmlns:xlink="http://www.w3.org/1999/xlink" x="0px" y="0px"
	 viewBox="0 0 241 114" style="enable-background:new 0 0 241 114;" xml:space="preserve">
<style type="text/css">
	.st0{fill:#FFFFFF;}
	.st1{fill:none;stroke:#000000;stroke-width:2;stroke-miterlimit:10;}
	.st2{fill:#FFFFFF;stroke:#FFFFFF;stroke-width:2;stroke-miterlimit:10;}
	.st3{fill:none;stroke:#FFFFFF;stroke-width:2;stroke-miterlimit:10;}
	.st4{fill:#FFFFFF;stroke:#FFFFFF;stroke-miterlimit:10;}
</style>
<polyline class="st0" points="97,31 17.6,14.4 3,31 20,24 97,31 "/>
<polyline class="st0" points="103,3 111,20 127,25 "/>
<path class="st1" d="M118,33"/>
<circle class="st2" cx="110" cy="35.4" r="2.4"/>
<circle class="st2" cx="130" cy="35.4" r="2.4"/>
<path class="st3" d="M114.7,41.1c0.9,1.5,4.3,1.9,6.3-0.1"/>
<path class="st3" d="M120,41c1,2,4.6,1.8,6,0"/>
<polyline class="st0" points="138.5,3 130.5,20 115,25 "/>
<polygon class="st0" points="50.5,48.5 80,61.1 103,93 73.5,79.5 71.3,64 "/>
<polygon class="st0" points="191.5,48.5 162,61.1 139,93 168.6,79.5 170.7,64 "/>
<polygon class="st4" points="108.2,105.3 106.3,108.4 109.1,107.6 109.2,110.8 111.4,108.8 112.9,110.8 114.1,106.5 112.3,109.1 
	111.9,106.9 110.4,108.5 110,106.3 107.5,107.7 "/>
<polygon class="st4" points="130.8,108.2 131.3,111.8 133,109.4 135.1,111.8 135.5,108.9 137.9,109.4 136.1,105.3 136.4,108.5 
	134.7,107 134.6,109.3 132.8,107.9 131.8,110.5 "/>
<g>
	<polygon class="st4" points="111.5,47.5 120.5,50.5 116.5,53.5 	"/>
	<polygon class="st4" points="130,47.5 120.5,50.2 124.7,53 	"/>
</g>
<polyline class="st0" points="145,31 224.4,14.4 239,31 222,24 145,31 "/>
<polygon class="st0" points="93,16.3 101.2,4.7 98.1,17 99.8,26.9 "/>
<polygon class="st0" points="148.2,16.3 140,4.7 143.2,17 141.5,26.9 "/>
</svg>
