<?xml version="1.0" encoding="utf-8"?>
<!-- Generator: Adobe Illustrator 21.0.2, SVG Export Plug-In . SVG Version: 6.00 Build 0)  -->
<svg version="1.1" id="Layer_1" xmlns="http://www.w3.org/2000/svg" xmlns:xlink="http://www.w3.org/1999/xlink" x="0px" y="0px"
	 viewBox="0 0 187 176" style="enable-background:new 0 0 187 176;" xml:space="preserve">
<style type="text/css">
	.st0{fill:#FFFFFF;}
	.st1{opacity:0.8;}
	.st2{display:none;}
	.st3{display:inline;}
	.st4{fill:none;}
</style>
<g>
	<g>
		<circle class="st0" cx="91.1" cy="89.5" r="80.5"/>
		<g>
			<g>
				<g>
					<g class="st1">
						<path class="st0" d="M163.2,89.5c0.9-3.2,1.4-8.5,0.7-14.9c-0.4-3.2-1-6.6-2-10.1c-1-3.5-2.3-7.1-4-10.7
							c-1.7-3.5-3.7-7-5.9-10.2c-2.2-3.2-4.7-6.2-7.2-8.9c-2.5-2.7-5.2-5.1-7.7-7.2c-2.5-2-4.9-3.8-7-5.3
							c-6.7-4.3-12.3-6.6-16.6-8.3c-0.9-0.3-1.1-0.4-0.6-0.3c0.5,0.2,1.6,0.5,3.2,1.2c3.2,1.2,8.4,3.6,13.9,7.4
							c5.1,3.2,10.7,7.6,16.3,13.7c-3-4.2-6.5-8.1-10-11.4c-3.5-3.3-7-6.1-10.1-8.3c-4.9-2.4-10.1-4.4-15.6-5.9
							c-12-3.2-24.7-3.6-36.8-1.2c-12.1,2.4-23.7,7.4-33.8,14.8c-3.7,2.6-9.3,7.4-13.9,13c-4.7,5.5-8.6,11.7-10.8,15.6
							c4.2-8.4,9.8-16,16.5-22.6C38.3,23.4,46.1,18,54.5,14c16.8-8,36.3-10.1,54.3-5.9c-1-0.3-1.9-0.6-2.9-0.8
							c-19.1-4-39.8-1.2-57.3,8.4c-3,1.6-5.8,3.5-8.8,5.4c2.8-2,5.7-3.8,8.8-5.4c3.8-2.2,7.7-4.2,11.9-5.8c4.1-1.7,8.5-3.1,13.2-4.2
							c5.9-1.1,12.7-1.2,18.6-1c4.8,0.2,9.2,1.3,13.6,2.6l2.1,0.5l2.1,0.6c1.4,0.3,2.8,0.8,4.2,1.2c0.8,0.2,1.7,0.4,2.6,0.6
							c0,0-0.1-0.1-0.1-0.1c-1.5-1.3-7-4-15.2-5.8c-8.1-1.9-19-2.6-29.9-0.9c-5.4,0.9-10.9,2.3-15.9,4.1c-5.1,1.8-9.7,4.2-13.7,6.6
							c-8.1,4.8-13.6,10-15.8,12.4c-3.5,3.9-6.2,8.3-8.4,12.8c-2.3,4.6-4.2,9.4-6.4,14.6c-1.5,3.5-3.2,6.3-3.5,9.2
							c0.3,0.4,0.2,1.9,0,3.3c-0.5,1.8-0.9,3.6-1.4,5.4c-0.4,1.8-0.9,3.5-1.2,5.3c-0.3,1.7-0.6,3.4-0.7,5c-0.1,1.6-0.1,3.2,0.2,4.6
							c0.2,2-1.3,5.8-2.4,9.4C2.3,97.1,2,98,1.7,98.8c-0.2,0.8-0.4,1.6-0.5,2.3c-0.2,1.3-0.3,2.3,0,2.4c2.4,1.3,2.7,1.4,2.6,2.5
							c0,0.5-0.2,1.3-0.2,2.5c0,1.2,0.1,3,0.7,5.4c0.1,0.6,0.8,1.7,1.7,2.9c0.8,1.2,1.7,2.6,2,3.7c0.9,3.9,2.1,6.3,3.6,8.6
							c0.8,1.1,1.5,2.3,2.5,3.6c0.5,0.7,1,1.4,1.5,2.1c0.6,0.8,1.2,1.6,1.8,2.5c4.2,5.2,6.6,8.4,9.1,11.5c1.3,1.5,2.5,2.9,4.2,4.3
							c0.8,0.7,1.7,1.4,2.8,2.1c1.1,0.7,2.2,1.4,3.6,2c0.7,0.3,4.8,3,9.1,5.1c4.3,2.1,8.5,3.6,8.5,3.6c6.3,3.2,11.9,4.5,17,5.6
							c5.2,1.1,9.9,2,15.4,3.7c6.4-1,13.7-1.3,21.2-2.5c7.4-1.2,15-3.1,21-6.4c6-3.3,10.2-5.7,14.3-7.9c4.1-2.3,8.2-4.5,13.1-8.4
							c1.3-1.2,2.3-2.4,3.3-3.4c0.9-1,1.7-1.9,2.6-2.6c0.9-0.6,1.7-2.3,2.6-4.1c0.4-0.9,0.8-1.9,1.3-2.8c0.5-0.9,0.9-1.7,1.4-2.5
							l0.6,1.4c0.7-1,2.1-3,2.7-4c0.6-1,0.8-0.6,1-0.1c0.4,0.9,0.8,1.8,2.3,0.1c2.9-4.3,5.5-9.1,7.5-14.3c1.1-5.4,1.5-10.8,1.5-16
							c-0.5-0.4-1-0.8-1.3-1.5c-0.1-1.5-0.3-3.1-0.5-4.6c-1.1-1-2.4-0.7-3.1-1.4c-1.6-0.1-3.2-1.7-4.8-3c-1.5-1.3-3.1-2.3-4.6-1.7
							c-0.5,0.3-0.8,2.3-1.2,4.6c-0.3,1.2-0.6,2.4-0.9,3.5c-0.4,1.1-0.8,2.2-1.3,2.9c-0.6,0.7-1.4-1.2-2.5-2.1
							c-0.2,2-0.7,3.1-1.3,3.3c-0.5,0.3-1-0.2-1.4-1.1c-0.3,0.9-0.5,1.8-0.5,1.8c-0.3-0.3-1.4-1.2-1.4-1.2c-1.5,4.7-4,9.3-6.5,13.6
							c-2.5,4.3-5.2,8.3-7.3,12.5c-0.2,0.4-0.5,1-0.8,1.5c-0.3,0.6-0.6,1.2-0.9,1.8c-0.6,1.3-1.2,2.5-1.7,3.6
							c-0.2,0.5-0.9,1.1-1.7,1.6c-0.7,0.5-1.4,1-1.8,1.3c-0.4,1.8,0.6,2.6,0.9,3.9c-3.1,2.1-8,5-12,7.2c-4,2.3-7.2,4.2-6.2,6.1
							c-0.7,0.3-1.3,0.6-1.8,0.9c-0.6,0.3-1.1,0.5-1.5,0.8c-0.9,0.5-1.7,1.1-2.5,1.6c-0.8,0.5-1.6,1.1-2.6,1.6c-1,0.5-2.2,1-3.7,1.4
							c-4,1.2-8.7,2.1-13.8,2.5c-5,0.4-10.4,0.2-15.7-0.5c-5.8-0.7-11.2-2.3-16.4-4.4c-1-0.4-1.9-0.8-2.9-1.2
							c-0.9-0.4-1.8-0.8-2.7-1.3c-9.5-4.7-17.2-11.3-23.1-18.7c-5.9-7.4-10.2-15.6-12.9-24.2c-2.7-8.6-3.9-17.6-3.6-26.8
							c0.3-9.3,2-18.8,5.7-28.5c3.7-9.8,9.9-18.9,17.9-26.2c4-3.6,8.4-6.8,13.1-9.5c4.7-2.6,9.7-4.7,14.8-6.2
							c10.2-3,20.9-3.6,30.8-2.2c10,1.4,19.2,4.9,26.9,9.6c7.8,4.7,14.1,10.6,19,16.7c2.4,3.1,4.5,6.2,6.2,9.2
							c1.8,3.1,3.1,6.1,4.3,9c2.3,5.8,3.5,11.1,4.1,15.5c0.6,4.4,0.8,7.9,0.9,10.3C162.1,85.7,162.6,87.6,163.2,89.5z"/>
					</g>
				</g>
			</g>
		</g>
	</g>
	<g class="st2">
		<g class="st3">
			<path class="st0" d="M114.5,74c1.6,0.9,3.1,1.6,4.4,2.4c6.8,4.2,6.8,13.3,0.1,17.7c-0.9,0.6-1.8,1.2-2.6,2
				c-4.3,4.2-3.8,9.9,1.2,13.3c0.6,0.4,1.2,0.7,1.9,1.1c7,4.1,7.4,13.2,0.6,17.8c-7.8,5.3-16.5,8.3-25.8,9.5
				c-13.1,1.7-25.8,0.2-37.8-5.3c-5.1-2.3-9.6-5.5-13.4-9.6c-9.9-10.6-10.4-24.9-1.2-36.1c6.2-7.6,14.4-12.3,23.6-15.2
				c12.4-4,24.9-4.3,37.5-1.4c0.9,0.2,1.5,0.1,2.1-0.7c9.3-12,19.2-23.5,29.7-34.6c1.5-1.6,3.5-1.9,5-0.8c1.6,1.2,1.8,3.3,0.6,5.2
				c-7.5,11.3-15.6,22.2-24.1,32.7C115.6,72.6,115.1,73.2,114.5,74z M100.7,74.8c-0.4-0.1-0.5-0.2-0.7-0.2c-0.3-0.1-0.7-0.2-1-0.2
				c-11.2-2-22.2-1.5-33,2.1c-7.4,2.5-14,6.2-19.3,12c-8.9,9.8-8.7,22.3,0.6,31.7c3.9,4,8.6,6.8,13.7,8.9
				c10.1,4.2,20.7,5.2,31.5,3.9c8.9-1,17.2-3.8,24.7-8.8c3.7-2.5,3.5-7.2-0.4-9.4c-0.6-0.3-1.2-0.7-1.7-1c-5.4-3.7-7.7-9.3-6-14.8
				c1.2-3.9,3.7-6.6,7.2-8.7c3.8-2.3,3.9-7,0.1-9.3c-1.4-0.9-2.9-1.6-4.3-2.3c-0.7-0.4-1.1-0.3-1.7,0.4c-3.1,3.6-6.3,7.2-9.3,10.8
				c-0.6,0.7-1,1.6-1.1,2.5c-0.8,5.8-3.9,9.8-9.2,11.9c-1.9,0.8-4,1.1-6,1.6c-1.6,0.3-2.7-0.6-2.8-2.3c-0.1-1.2,0-2.4,0-3.6
				c0.1-6.9,3.9-12,10.4-14.2c0.5-0.2,1-0.4,1.3-0.8C95.9,81.5,98.2,78.2,100.7,74.8z M133.1,43c-0.1-0.1-0.2-0.2-0.3-0.2
				c-0.1,0.1-0.2,0.2-0.3,0.3c-12.5,13.6-24.1,27.8-34.7,42.9c-0.1,0.2-0.3,0.3-0.3,0.5c0,0.2,0,0.4,0,0.6c0.2,0,0.5,0,0.7-0.1
				c0.2-0.1,0.4-0.4,0.6-0.6c6.4-7.6,12.9-15,19-22.7C123,56.9,127.9,49.9,133.1,43z M86.9,100c4.9-0.6,9.2-6.1,7.9-9.9
				C90.2,90.6,86.3,95.3,86.9,100z"/>
			<g>
				<path class="st4" d="M114.5,74c1.6,0.9,3.1,1.6,4.4,2.4c6.8,4.2,6.8,13.3,0.1,17.7c-0.9,0.6-1.8,1.2-2.6,2
					c-4.3,4.2-3.8,9.9,1.2,13.3c0.6,0.4,1.2,0.7,1.9,1.1c7,4.1,7.4,13.2,0.6,17.8c-7.8,5.3-16.5,8.3-25.8,9.5
					c-13.1,1.7-25.8,0.2-37.8-5.3c-5.1-2.3-9.6-5.5-13.4-9.6c-9.9-10.6-10.4-24.9-1.2-36.1c6.2-7.6,14.4-12.3,23.6-15.2
					c12.4-4,24.9-4.3,37.5-1.4c0.9,0.2,1.5,0.1,2.1-0.7c9.3-12,19.2-23.5,29.7-34.6c1.5-1.6,3.5-1.9,5-0.8c1.6,1.2,1.8,3.3,0.6,5.2
					c-7.5,11.3-15.6,22.2-24.1,32.7C115.6,72.6,115.1,73.2,114.5,74z M100.7,74.8c-0.4-0.1-0.5-0.2-0.7-0.2c-0.3-0.1-0.7-0.2-1-0.2
					c-11.2-2-22.2-1.5-33,2.1c-7.4,2.5-14,6.2-19.3,12c-8.9,9.8-8.7,22.3,0.6,31.7c3.9,4,8.6,6.8,13.7,8.9
					c10.1,4.2,20.7,5.2,31.5,3.9c8.9-1,17.2-3.8,24.7-8.8c3.7-2.5,3.5-7.2-0.4-9.4c-0.6-0.3-1.2-0.7-1.7-1c-5.4-3.7-7.7-9.3-6-14.8
					c1.2-3.9,3.7-6.6,7.2-8.7c3.8-2.3,3.9-7,0.1-9.3c-1.4-0.9-2.9-1.6-4.3-2.3c-0.7-0.4-1.1-0.3-1.7,0.4c-3.1,3.6-6.3,7.2-9.3,10.8
					c-0.6,0.7-1,1.6-1.1,2.5c-0.8,5.8-3.9,9.8-9.2,11.9c-1.9,0.8-4,1.1-6,1.6c-1.6,0.3-2.7-0.6-2.8-2.3c-0.1-1.2,0-2.4,0-3.6
					c0.1-6.9,3.9-12,10.4-14.2c0.5-0.2,1-0.4,1.3-0.8C95.9,81.5,98.2,78.2,100.7,74.8z M133.1,43c-0.1-0.1-0.2-0.2-0.3-0.2
					c-0.1,0.1-0.2,0.2-0.3,0.3c-12.5,13.6-24.1,27.8-34.7,42.9c-0.1,0.2-0.3,0.3-0.3,0.5c0,0.2,0,0.4,0,0.6c0.2,0,0.5,0,0.7-0.1
					c0.2-0.1,0.4-0.4,0.6-0.6c6.4-7.6,12.9-15,19-22.7C123,56.9,127.9,49.9,133.1,43z M86.9,100c4.9-0.6,9.2-6.1,7.9-9.9
					C90.2,90.6,86.3,95.3,86.9,100z"/>
				<g>
					<g>
						<g class="st1">
							<path class="st0" d="M81.6,106.7c-0.3-0.9-0.8-2-1.1-3.4c-0.1-0.7-0.2-1.4-0.2-2.1c0-0.4,0-0.7,0.1-1.1c0-0.2,0-0.3,0.1-0.5
								l0-0.2l0-0.1l0,0c0.6-0.7,1.1-1.4,1.6-2.1c1-1.3,1.9-2.4,3-2.8c0.6-0.4,1.1-0.6,1.6-0.6c0.4,0-0.3,0.2-1.6,0.6
								c-0.4,0.3-0.9,0.7-1.4,1.3c1.7-0.3,3.4-0.3,4.7,0c0.2-0.2,0.5-0.4,0.7-0.5c1.1-0.7,2-1.4,3.4-1.2c0.5,0.1,1.2-0.1,1.7,0.5
								c-1.1,0-2.4,0.5-3.5,1.5c0.1,0,0.2,0,0.3,0.1c0.9-0.3,1.7-0.3,2.5-0.2c0.1,0,0.2,0,0.4,0.1c-0.1,0-0.2-0.1-0.4-0.1
								c-0.2,0.1-0.1,0.5-0.3,0.7c-0.2,0-0.7-0.2-0.9-0.1c-0.2,0-0.8-0.3-1.3-0.4c-0.1,0-0.3,0.1-0.4,0.1c0,0.1,0.1,0.1,0.1,0.2
								c0,0,0,0,0,0c1.4,0.6,3.3,1.2,4.4,2.1c0.3,0.2,0.5,0.4,0.7,0.6c0.1,0.1,0.2,0.2,0.3,0.3l0.1,0.1l0-0.1
								c-0.1-0.1-0.2-0.3-0.2-0.4c0,0-0.1-0.1-0.1-0.1c-0.1-0.1-0.1-0.2-0.2-0.4c-0.3-0.6-0.5-1.3-0.5-1.5c0-0.1,0.2,0.6,0.1,0
								c-0.1-0.4-0.2-0.7-0.2-0.9c0.1-0.3,0.4,1.2,0.3,0c0-0.1,0,0,0,0.1l-4.5-4.5c-0.1,0.1-0.3,0.1-0.3,0.1c-0.1,0,0,0-0.4,0
								c-0.1,0-0.2,0-0.3,0c-0.5,0-0.5-0.1-1.1-0.1c-0.2,0-0.4-0.1-0.5-0.1c-0.1,0-0.2,0-0.3-0.1c-0.2,0-0.1-0.1,1.1,0.5
								c0.1,0.1,0.6,0.3,0.9,0.7c0.4,0.3,0.7,0.6,0.7,0.6c-0.3,0.1,0,0.5,0,0.7c0,0.2-0.3,0.3-1.6-0.6c0.9,1,0.6,1.1,0.2,1
								c-0.4-0.1-1-0.5-1-0.2c0,0.6-1.4-1-2.4-2.6c-0.2-0.2-0.1-0.1-0.3-0.6c-0.3-0.5,0.4,1,0.3,0.7l-0.3-0.6c0,0,0.1,0.1,0.1,0.2
								c0,0,0,0,0,0c0,0,0,0,0,0c0.1,0.2,0.1,0.4,0.2,0.6c0,0.1,0.1,0.2,0.1,0.3c0,0,0,0,0.1,0l0.3,0c0.2,0,0.4,0,0.6,0
								c0.4,0,0.9,0.1,1.3,0.2c0.1,0,0.2,0,0.5,0.1c0.5,0.2,1,0.4,1.5,0.7c0.1,0,0.1,0.1,0.2,0.1l0,0l0,0c0,0,0,0.1,0,0.1
								c0,0.1-0.1,0.2-0.1,0.3c-0.7,1.5-1.1,3.1-2,4.5c-0.8,1.4-1.9,2.5-2.8,3.8c-0.2,0.4-0.1,0.7,0.3,1.3c0.4,0.5,1.1,1.1,1.7,1.8
								c0.3,0.5-0.4,1.6-1,2.7c1.1,0.1,1.7,0.3,2,0.7c0.2,0.4,0.1,1-0.4,1.6c0.7,0.1,1.3,0.1,1.3,0.1c0,0.2-0.1,0.6-0.3,1
								c-0.1,0.4-0.2,0.7-0.2,0.7c0.5,0,1,0.1,1.5,0.1l0.4,0l0.1,0.1l0.2,0.1c0.3,0.2,0.5,0.3,0.8,0.5c0.5,0.3,1.1,0.6,1.6,0.8
								c1.1,0.4,2,0.3,2.5-0.7c0.2-0.3,0.3-1.4,0.3-2c0-0.3,0.7,0.1,0.8,0.1c-0.3-1-1-2.1-1.5-3.1c0.7,0.3,1.7,0.5,2.3,0.2
								c0.6-0.3,0.6-1-0.7-2.6c0.7-0.3-0.5-1.8-0.2-2.4c0.4-0.8,0.9-1.7,1.4-2.6c0.1-0.6,0.5-1,0.8-1.5c0.1-0.2,0.2-0.4,0.3-0.5
								c0.6-1.4,1.5-2.6,2.1-4.3c0.6-1.6,0.9-3.7,0.1-5.8l-2.4-5.9l-5,1.1c-0.6,0.1-1.2,0.3-1.7,0.7c-0.5,0.4-1,0.8-1.4,1.4
								c-1.5,2.2-2.5,3.7-3.7,4.8c-1.2,1.2-2.7,2.1-4.2,3.2c-1.5,1.1-3,2.4-4.1,3.8c-0.6,0.7-1,1.4-1.4,1.9c0,0.1-0.1,0.1-0.1,0.2
								l0,0.1l0,0.2c0,0.2,0,0.3,0,0.5c0,0.6,0,1.2,0.1,1.8c0.2,1.2,0.5,2.3,0.9,3.1C79.5,105.8,80.6,106.4,81.6,106.7z"/>
						</g>
					</g>
				</g>
				<g>
					<g>
						<g class="st1">
							<path class="st0" d="M139.8,48.1c-4.8,0.4-11.7,9-15.8,11.9c-1.4,1.3-2.5,2.2-3.5,2.8c-0.8,0.5,0.8-0.9,3.5-2.8
								c1.1-1,2.3-2.2,3.7-3.6c-2.7,1-5.3,2-7.4,2.5c-0.8,0.9-1.7,1.8-2.5,2.7c-3.9,4-7.4,8-11.6,11.6c-1.6,1.3-4.5,4.5-6.3,5.5
								c5.5-5.9,11-11.7,16.3-17.8c-0.2,0.1-0.4,0.2-0.6,0.3c-3,2.9-6.1,5.8-9.3,8.7c-0.5,0.5-1,1-1.6,1.5l1.6-1.5
								c1.2-1.4,2.1-3,3.4-4.6c0.9-0.9,2.2-1.6,3.1-2.6c0.7-0.7,1.9-1,2.8-1.5l1.4-1.3c0.1-0.2,0.1-0.4,0.2-0.5c0,0,0,0,0,0
								c-1.7-0.3-5.8,1.9-9.7,4.4c-3.9,2.5-7.6,5.5-8.2,6.6c-1.1,1.9-0.4,4.9-1.7,6.9c-0.4,0.7-1.4,0.7-1.3,1.6
								c0.3,0.3,0.3,0.7,0.3,1.1c-0.6,0.9-1.7,1.3-2.4,2c-0.1,0.1-0.2,0.2-0.3,0.4l0,0.1l0,0l0,0l0,0c0,0,0,0,0,0l0.2,0.2
								c0.7,0.5,1.4,1.1,2,1.6c0.8,0.7,1,0.9,1.3,1.1c0.2,0.2,0.3,0.3,0.4,0.5l0.1,0.1l0,0.1l0.2,0.4l0,0c0-0.1-0.1-0.1-0.1-0.3
								c0-0.2-0.1-0.4-0.1-1c0-0.2,0-0.5,0-0.7c0-0.5,0-1.1,0-1.7c0-0.5,0-1,0-1.5l0-0.2l0,0l0,0l0,0c0,0,0,0,0,0
								c-0.1,0-0.3-0.1-0.7-0.1l6.4,5.5c0-0.3,0.1-0.5,0.2-0.6l0,0l0,0l-0.9,0.1c-0.9,0.1-1.8,0.2-2.7,0.3c-0.9,0.1-1.1,0.1-1.4,0.1
								c-0.5,0-0.5,0-0.8-0.1c0.1,0,0.2,0.1,0.8,0.5l0.9,0.7c1.2,1,2.5,2,3.7,3.1c0.1,0,0.2,0,0.3-0.1c0.1,0,0.2-0.1,0.3-0.2
								l0.2-0.1c0,0,0,0,0.1,0l0.2,0c0.3,0,0.7,0.1,1,0.1c1.3,0.2,2.3,0.3,1.9,0c-3.1-3-0.8-0.8,0.6-2.2c0.2-0.1-0.7-1.8-0.3-2
								c1.8-0.7,0.9-1.9,1.6-3.7c0.6-3,3.1-1.8,2.4-5.4c-0.1-0.4,0.9-4.5,0.9-4.5c2.1-2.1,1.6-4.9,5.4-4.8c-0.3-3.7,4.3-4.6,5.8-7
								c1.5-2.5,3.9-2,6.9-2.7c0.7-0.3,0.9-0.9,1.6-0.8c0.7,0.1,0.1-1.8,0.8-2.1l0.8,0.9c0.2-0.1,0.7-0.3,0.9-0.5
								c0.2-0.1,0.5,0.2,0.7,0.5c0.5,0.6,1,1.2,1.7,1.3c1.1-0.3,2.2-0.7,3.1-1.2c0.2-1.1,0.4-2.3,0.6-3.5c-0.4-0.4-0.7-0.8-0.9-1.2
								l0-1.2c-0.7-0.9-1.7-1.7-2.2-2.3c-0.3-0.3-0.6-0.5-0.8-0.8c-0.3-0.3-0.5-0.6-0.8-0.8c-0.6-0.5-1.1-1-1.5-1.6l-3.1,0.2
								c1.2-1.2,2.4-2.4,3.1-3.7c0.1-0.2,0.1-0.5,0-0.7l-0.2-0.8l-3.5,1c-0.1,0-0.3,0.1-0.5,0.2c-0.2,0.1-0.4,0.2-0.4,0.2
								c-0.2,0.1-0.5,0.1-0.7,0.2c-0.5,0.1-1.1,0.1-1.7,0c-0.5-0.2-1-1.2-1.7-2.1c-0.7,0.8-1.7,0-2.2-1.1c-0.2,0.1-0.5,0.2-0.5,0.2
								c-0.2-0.3-1-1.2-1-1.2c-2.9,1-6.9,1.4-7.6,4.3c-0.2,0.5-0.2,1.8-0.2,2.7c0,0.4-0.9,0.5-1.2,0.6c0.5,1,1.5,1.8,2.3,2.7
								c-2.1,0.7-6.4,2.6-3.1,5.1c-1.1,1.1,0.2,2.5-0.7,3.9c-1.1,1.8-2.6,4.1-4.1,6.2c-0.7,1.3-1.6,2.3-2.5,3.4
								c-0.3,0.4-0.6,0.8-0.9,1.2c-2.2,3.1-4.6,5.6-6.8,8.1c-1.1,1.2-2.2,2.5-3.3,3.7c-0.5,0.6-1,1.3-1.5,1.9l-0.7,1l0,0l0,0
								c-4.4-3.2,6.1,4.3,5,3.5l0,0L96.4,85l-0.5-0.4l-1.4-1.1l-1.3-1.1l-0.3-0.3c0,0-1.5-1.2-0.8-0.7l0,0l0,0l-0.1,0.2
								c-0.1,0.2-0.4,0.4-0.6,0.9c-0.3,0.5-0.7,1.2-0.9,2.1c-0.3,1.5-0.2,2.3-0.2,2.7l0,0.3l3.3-0.4l1.3-0.1l0.7-0.1l0.4,0l1.4-0.1
								l0.1,1.2c0,0.3,0,0.5,0.1,1.3l0,2.3l0,2.1l0,0.2l0,0l0,0l0,0l0.6,0c0.4,0,1-0.1,2-0.4c0.2-0.1,0.5-0.2,0.8-0.3
								c0.3-0.1,0.6-0.3,0.8-0.4c0.3-0.2,0.6-0.4,0.8-0.6c0.9-0.7,1.3-1.3,1.5-1.5c0.1-0.1,0.1-0.2,0.1-0.2c1-1.5,2.1-3.4,3-5.4
								c4.1-9.8,11.7-17.4,18.4-23.5c6.7-6.1,12.8-10.1,14.6-11.7L139.8,48.1z"/>
						</g>
					</g>
				</g>
				<g>
					<g>
						<g class="st1">
							<path class="st0" d="M107.6,79.7c-1.5,0.9-3.3,2.4-5.3,4.4c-0.5,0.5-1,1-1.6,1.5c-0.7,0.8-1.4,1.6-2.1,2.4
								c-0.8,0.8-1.5,1.6-2.6,2.1c-1,0.4-2.2,0.8-3.3,1.2c-0.4,0.1-0.6,0.2-0.8,0.3c-0.2,0.1-0.5,0.2-0.7,0.3
								c-0.2,0.1-0.5,0.2-0.7,0.4c-0.2,0.1-0.4,0.3-0.7,0.4c-0.9,0.6-1.6,1.4-2.2,2.3c-0.6,0.9-1.1,2-1.3,3.1l-0.2,0.8L86,99.8
								c0,0.8-0.1,1.5-0.1,2.2c0,0.4,0,0.7-0.1,1.1l0,0l0,0c-0.1,0,0.3,0-0.3,0l0,0l-0.1,0l-0.2,0c-0.1,0-0.2,0-0.3,0.1
								c-0.2,0-0.4,0.1-0.6,0.2c-0.7,0.3-0.4,0.6-0.4-0.1c0-0.2,0-0.4,0-0.6l0-0.2l0-0.1l-0.1-0.5l0,0l0.3,0c0.4,0,0.7-0.1,1.1-0.1
								c0.7-0.1,1.4-0.2,2-0.3c1.2-0.2,2.2-0.4,3.2-0.8c1-0.3,1.8-0.7,2.5-1.2c1.7-1.1,2.8-2.5,3.6-3.9c0.4-0.7,0.7-1.4,1-2.2
								c0.3-0.8,0.5-1.7,0.8-2.4c0.6-1.2,0.2-0.4-0.4,1.9c-0.1,0.3-0.2,0.5-0.3,0.9c-0.1,0.3-0.2,0.5-0.3,0.8
								c-0.3,0.6-0.6,1.2-1,1.7c-0.8,1.2-1.9,2.3-3.4,3.2c-0.6,0.4-1.3,0.8-2.1,1.1c-0.4,0.2-0.8,0.3-1.2,0.5
								c-0.4,0.1-0.8,0.3-1.3,0.4c-0.9,0.2-2,0.4-3.2,0.6c-0.3,0-0.6,0.1-0.9,0.1l-0.1,0l-0.1,0l0,0l0,0.2c0,0.1,0,0.2,0,0.3
								c0,0.2,0,0.4,0,0.5c0,0.6-0.3,0.6,0.1,0.3c-0.2,0.1-0.2,0.2-0.2,0.1c0.1-0.1,0.1-0.5,0.1-1c0,0,0,0,0,0l0,0l0.1,0l0.3,0
								l0.6,0c0.4,0,0.8,0,1.2,0c1.6,0,3,0.1,4.4-0.2c2.8-0.4,5.4-1.6,7.3-3.2c1.1-1.4,1.8-3,2.4-4.7c0.3-0.8,0.4-1.6,0.6-2.4
								c0.2-0.8,0.5-1.5,1.1-2.1c1.2-1.3,2.5-2.7,3.7-4c1.3-1.4,2.5-2.7,3.8-4.1l1.9-2.1c0.2-0.2,0.3-0.4,0.4-0.4c0,0,0,0,0,0
								c0,0,0,0-0.1-0.1c-0.2-0.3-0.2-0.4-0.3-0.5c0-0.1,0,0,0,0.1c0,0.1,0,0.2-0.1,0.3l-0.1,0.2c0,0.1,0,0,0,0l0.4,0.3l2.4,1.4
								c0.8,0.4,1.5,0.9,2,1.3c1,0.9,1.4,2.1,1.1,3.2c-0.1,0.5-0.4,1-0.8,1.5c-0.2,0.2-0.5,0.4-0.7,0.6l-0.4,0.3l-0.6,0.4
								c-1.7,1-3.4,2.3-4.8,3.9c-1.4,1.6-2.6,3.6-3.3,5.7c-0.5,1.5-0.9,3.7-0.7,6.1c0.1,1.2,0.4,2.5,0.9,3.7
								c0.4,1.2,1.2,2.5,1.6,3.2c0.9,1.4,2.1,2.6,3.2,3.4c0.6,0.4,1.1,0.7,1.5,1.1c0.4,0.4,0.6,0.8,0.7,1.2c-0.5-0.9-1.3-1.5-2.1-2
								c-0.9-0.5-1.6-1.1-2.3-1.8c-0.4-0.3-0.7-0.7-1-1.1c-0.3-0.4-0.6-0.8-0.9-1.4c-0.9-1.5-1.5-3.2-1.9-4.9
								c-0.8-3.5-0.1-7.2,1.3-10.3c1.5-3.1,4-5.7,6.6-7.4c1.6-1,2-1.2,2.3-1.7c0.2-0.2,0.3-0.4,0.3-0.7c0.1-0.2,0.1-0.4,0-0.7
								c-0.1-0.4-0.4-1-1-1.4l-0.2-0.2l-0.4-0.2l-0.8-0.5l-1.7-1l-0.9-0.5l-0.2-0.1c0,0-0.1,0,0-0.1l0.2-0.3l0.3-0.5
								c0.3-0.6,0.4-1,0.4-1.2c0-0.2,0-0.1,0.1,0.2c0.2,0.3,0.5,0.7,1.2,1.4c0.1,0.1,0,0,0,0l0,0c0,0,0,0,0,0l-0.2,0.2l-0.3,0.4
								l-2.7,3.1l-5.3,5.9c0.4-0.3,0.7-0.6,1.2-1l5.9-6.2l1.5-1.6l0.4-0.4c0,0,0,0,0,0l-0.6-0.5l-0.4-0.5l-0.3-0.4
								c-0.8-0.9-0.2-1-0.6,0c-0.1,0.2-0.2,0.6-0.4,0.9l-0.2,0.3l-0.4,0.7l0,0l0.1,0.1l0.5,0.3l1,0.6c0.6,0.4,1.2,0.7,1.7,1
								c0.2,0.2,0.5,0.3,0.7,0.5c0.1,0.1,0.3,0.2,0.3,0.3c0.2,0.2,0.3,0.4,0.3,0.6c0.1,0.3,0,0.4-0.2,0.6c-0.1,0.1-0.2,0.2-0.4,0.3
								l-1,0.6c-1.5,0.9-3,1.9-4.3,3.2c-1.8,1.8-3.4,4.1-4.5,6.6c1-2.5,2.6-4.8,4.5-6.6c1.2-1.2,2.4-2.2,3.7-3.1
								c0.3-0.2,0.6-0.4,1-0.6l0.3-0.2c0.1-0.1,0.2-0.2,0.2-0.3c0,0,0-0.1,0-0.1c0,0,0,0,0,0c0.1,0,0.1,0,0.1,0c0,0,0,0-0.1,0
								c0,0-0.2,0.1-0.2,0.1c0,0,0,0-0.1,0c0,0-0.1-0.1-0.3-0.2c-0.1,0-0.1-0.1-0.1-0.1l-0.4-0.3c-0.3-0.2-0.6-0.4-1-0.6
								c-0.8-0.5-1.6-1-2.4-1.5l-0.1-0.1l0,0l0,0l0.8-1.5c0.1-0.2,0.3-0.5,0.4-0.7c0.2-0.5,0.3-0.7,0.4-1c0.1-0.4-0.1-0.4,0.2-0.1
								c0.2,0.4,0.8,1.1,2,2.1l0.1,0.1l0.1,0c0.5,0.4,0.1,0.1,0.2,0.2l0,0l0,0l0,0l-0.1,0.1l-0.1,0.1l-0.2,0.2
								c-0.6,0.6-1.3,1.3-1.8,1.9c-1.9,2-4.1,3.5-6.2,5.3l-1.5,1.6c-0.5,0.5-0.9,1.1-1.1,1.7c0,0.4,0,0.9-0.1,1.3c0,0,0,0,0.1,0
								c0.5-0.3,0.9-1.1,1.9-1.8c0.5-0.3,1.1-0.7,1.8-1.1c0.1-0.1,0.3-0.2,0.6-0.4c0.2-0.2,0.4-0.3,0.6-0.5c0.4-0.4,0.9-0.7,1.4-1.1
								c1.9-1.5,3.9-3.3,6.1-5.2l0.4-0.4l0.1-0.1l0,0l-2.1-1.8l-0.3-0.3l-0.6-0.5l-0.4-0.5c-1.1-1.1-0.6-1.5-0.8-0.6
								c0,0.1-0.1,0.2-0.1,0.4c0,0.1-0.1,0.3-0.2,0.5l-0.3,0.6l-2,3.7l0.1,0l0.5,0.4l1,0.7c0.6,0.4,1.2,0.8,1.6,1.2l0.3,0.3l0.1,0.1
								c0.1-0.1,0.1-0.2,0.2-0.2c0.1-0.1,0.2-0.3,0.3-0.4c0.1-0.1,0.2-0.2,0.3-0.3c0.4-0.4,0.8-0.6,1-0.7c0.2-0.1,0.3-0.1,0.3-0.1
								c-0.1,0-0.2,0-0.5-0.2c-0.3-0.2-0.7-0.5-1.1-1c-0.1-0.1-0.2-0.3-0.3-0.4l-0.1-0.2l0-0.1c-1.2-2-0.3-0.5-0.6-1l0,0l0,0
								l-0.2,0.1c-0.4,0.2-0.9,0.5-1.3,0.8c-0.9,0.5-1.8,1.1-2.6,1.8c-1.7,1.3-3.3,2.9-4.5,4.7c-1.3,1.7-2.2,3.6-2.9,5.4
								c-0.7,1.8-1.1,3.6-1.2,5.3c-0.3,3.4,0.2,6.1,0.7,7.7c0.4,1.2,0.9,2.4,1.6,3.4c0.3,0.5,0.7,1,1,1.5l0.3,0.4
								c0.1,0.1,0.1,0.1,0.1,0.1l0.1,0.1l0.3,0.2c0.2,0.2,0.3,0.2,0.5,0.3c0.2,0.1,0.3,0.1,0.5,0.2c0.4,0.1,0.7,0.3,1.2,0.4
								c0.8,0.3,1.9,0.6,2.9,0.9c1,0.3,1.9,1,2.2,1.9c0.2,0.6-0.1,1.1-0.4,1.5c-0.3,0.4-0.6,0.8-0.6,1.2c0.5,0.2,0.5,0.7,0.4,1.1
								c-1,0.8-2.5,1.2-3.7,1.6c-1.2,0.4-2.2,0.7-2.8,1.5c-0.3,0.2-0.9,0.1-1.6-0.2c-0.4-0.2-0.7-0.4-1-0.6
								c-0.2-0.1-0.3-0.2-0.5-0.4c-0.2-0.1-0.5-0.2-0.7-0.3c-2-0.9-3.6-1.9-3.7-1.3c-0.3,2.2-0.4,2.5-1,2.3
								c-0.6-0.2-1.5-0.9-3.9-0.8c-0.6,0-2.3,1.9-3.5,1.7c-2-0.4-3.2-0.4-4.5-0.1c-1.3,0.2-2.7,0.7-5,0.7c-3.4,0.3-5.3-0.5-7.1-1.2
								c-1.8-0.7-3.5-1.2-6.8-1c-0.4,0-2.9-0.5-5.3-1.2c-1.2-0.4-2.3-0.8-3.1-1.2c-0.8-0.4-1.4-0.6-1.4-0.6
								c-2.8-2.3-5.1-4.1-6.7-6.3c-1.6-2.1-2.4-4.6-1.4-7.3c-0.9-1.2-1.3-2.8-1.3-4.5c0.1-1.7,0.6-3.3,1.5-4.9
								c0.9-1.6,2-2.9,3.2-4.2c1.3-1.3,2.5-2.5,3.7-3.7c2.4-2.5,4.7-3.5,7.1-4c2.4-0.5,4.7-0.5,7.8-0.7c1.7-0.3,2.8-0.8,3.9-0.5
								c1.1,0.3,3-1.9,4.7-1.9l-0.2,1.2c0.6,0,1.7,0,2.2,0c0.6,0,0.5,0.4,0.4,0.8c-0.2,0.8-0.3,1.6,0.7,2c2.2,0.4,4.4,0.7,6.6,1.1
								c2.2-0.6,4.5-1.1,6.8-1.6c0.2-0.5,0.4-1,0.8-1.4c0.7-0.2,1.5-0.4,2.2-0.6c0.6-1.1,0.7-2.3,1.1-3.1c0.3-1.6,1.3-3.1,2.2-4.5
								c1-1.4,2.1-2.6,2.2-4.2c0-0.2-0.3-0.5-0.9-0.9c-0.3-0.2-0.6-0.3-1-0.5c-0.3-0.1-0.7-0.3-1-0.4c-1.5-0.6-3.2-1.3-4.2-2.2
								c-0.5-0.5,0.9-1.5,1.5-2.5c-3-0.3-3.1-1.6-1.7-2.5c-0.7-0.2-1.5-0.3-1.5-0.3c0.2-0.4,0.9-1.5,0.9-1.5c-4-1.1-8.4-2.2-13-2.6
								c-4.6-0.4-9.2,0.1-13.1,1.8c-1.7,0.6-4.4,2.3-6,3.5c-0.8,0.6-3.1,0.7-3.9,1c-0.9,1.5-0.2,2.6-0.3,3.9
								c-1.5,0.3-3.4,0.9-5.4,1.7c-2,0.8-4.1,1.9-5.9,3.1c-3.5,2.4-5.6,5.3-4,6.6c-1.8,1.7-2.5,3.3-3.2,4.8
								c-0.3,0.8-0.5,1.6-0.9,2.5c-0.3,0.9-0.7,1.9-1.4,3.2c-1.5,3.3-2.7,7.5-2.7,11.9c0,0.6,0,1.1,0,1.7c0.1,0.6,0.1,1.1,0.2,1.7
								c0.1,1.1,0.4,2.2,0.6,3.4c0.3,1.1,0.6,2.2,1,3.3c0.4,1,0.8,2.1,1.4,3.1c2.4,4.2,5.4,7.8,8.6,10.6c1.3,1.1,2.5,2,3.8,2.8
								c3.4,2.2,6.8,4,10.2,5.3c3.4,1.4,6.7,2.5,10.1,3.3c6.8,1.7,13.5,2.3,20.1,2c3.3-0.1,6.6-0.5,9.9-1.1c0.8-0.2,1.7-0.3,2.5-0.5
								c0.4-0.1,0.8-0.2,1.2-0.3l0.6-0.2l0.8-0.2c2.2-0.7,4.3-1.4,6.4-2.3c2-0.9,4.1-1.9,5.9-3.1c1.9-1.1,3.6-2.4,5-3.8
								c1.4-1.4,2.6-2.8,3.4-4.7c0.8-1.9,0.9-4.2,0.2-6.2c-0.6-1.6-1.6-2.9-2.8-3.9c-0.6-0.5-1.2-1-1.8-1.6l-2-1.9
								c-0.7-0.7-1.5-1.3-2.2-2l-1.2-1c-0.4-0.3-0.7-0.6-1-0.9c-0.2-0.2-0.2-0.2-0.3-0.3l-0.2-0.3c-0.1-0.2-0.2-0.4-0.4-0.6
								c-0.2-0.4-0.4-0.8-0.6-1.3c-0.6-1.7-0.5-3.7,0.3-5.6c0.8-1.9,2.2-3.5,4.1-4.8l0.8-0.5c0.4-0.3,0.9-0.6,1.3-1
								c0.8-0.7,1.5-1.6,2.1-2.6c1.1-2,1.4-4.7,0.6-7c-0.8-2.3-2.5-4-4.1-5c-1.4-0.9-2.7-1.5-3.8-2.1l-0.4-0.2c0,0-0.5-0.3-1-0.5
								c-0.5-0.2-1.3-0.4-2.2-0.3c-0.9,0.1-1.7,0.5-2.2,0.9c-0.5,0.4-0.8,0.7-1,0.9l-0.4,0.4l-0.7,0.7c-0.9,1-1.8,2-2.7,3
								c-1.9,2.1-3.8,4.1-5.7,6.1c-1.2,1.2-2.1,2.6-2.5,4.2c-0.2,0.7-0.4,1.5-0.6,2.2c0,0.2-0.1,0.3-0.1,0.4l-0.1,0.3
								c-0.1,0.2-0.2,0.4-0.3,0.6c-0.8,1.6-1.8,2.7-3.1,3.5c-0.6,0.4-1.3,0.7-2.1,1c-0.8,0.3-1.4,0.4-2.3,0.6
								c-0.9,0.1-1.9,0.2-3,0.4l-0.4,0.1l-0.1,0l-0.1,0l0.6,2.8c0,0.1,0,0.2,0,0.3c0,0.3,0,0.6,0,0.8c-0.1,0.3-0.2,0.3,0.1,0.1
								c0.1-0.1,0.3-0.2,0.6-0.3c0.1,0,0.3-0.1,0.4-0.1c0.1,0,0.2,0,0.2,0l0.1,0c-2.5,0.1,3.4-0.1,2.8-0.1l0,0l0,0
								c0.1-0.5,0.1-0.9,0.1-1.4c0-0.5,0.1-0.9,0.1-1.4l0-0.3c0-0.1,0-0.2,0.1-0.2l0.1-0.5c0.3-1.1,0.7-2,1.3-2.7
								c0.6-0.7,1.2-1.3,1.9-1.6c0.2-0.1,0.3-0.2,0.5-0.2c0.2-0.1,0.3-0.1,0.5-0.2c0.2-0.1,0.3-0.1,0.5-0.1c0.2-0.1,0.4-0.1,0.6-0.2
								c2.1-0.7,4-1.3,5.4-2.6c1.4-1.2,2.5-2.7,3.5-3.9c0.7-0.8,1.3-1.5,1.9-2.2c0.5-0.6,1-1.2,1.4-1.7L107.6,79.7z"/>
						</g>
					</g>
				</g>
				<g>
					<g>
						<g class="st1">
							<path class="st0" d="M107.9,68.6c4.6-2.8,12.3-10.8,19.8-19.9c1.9-2.3,3.7-4.6,5.5-6.9c0.9-1.2,1.8-2.3,2.6-3.5l0.6-0.9
								l0.3-0.4c0.1-0.1,0.1-0.1,0.1-0.1c0.1-0.1,0.1-0.1,0.1-0.1c0,0,0,0,0,0l0.1,0c0,0,0.1,0,0.1,0c0.3,0,0.4-0.1,0.3,0
								c0,0-0.1,0.1-0.1,0.1c-0.1,0-0.1,0.1-0.1,0.1c0,0,0,0,0,0c0,0,0.1-0.1,0.1-0.1c0,0,0.1-0.1,0.1-0.2c0.1-0.2,0,0,0,0.2
								c0,0-0.1,0-0.3,0c-0.1,0-0.2,0.1-0.3,0.2c-0.2,0.1-0.4,0.4-0.6,0.6c-0.4,0.4-0.8,0.8-1.2,1.1c-0.8,0.7-1.6,1.4-2.3,2
								c-4.2,4-7.4,7.1-9.9,9.3c-2.1,1.9,2.4-2.8,9.9-9.3c0.8-0.8,1.6-1.6,2.5-2.4c0.4-0.4,0.9-0.8,1.3-1.3c0.1,0,0.1-0.1,0.2-0.1
								l0.1-0.1c0.1-0.1,0.1-0.1,0.2-0.1c0.1-0.1,0.2-0.1,0.3-0.1c0.2-0.1,0.2,0.1,0.2,0c0-0.1,0,0,0,0.1c-0.1,0.1,0,0.1,0,0.1
								c0,0,0,0,0,0c0,0,0,0,0.1,0l0,0c0,0,0,0,0,0c-0.1,0-0.1,0-0.2,0c0,0,0,0,0,0l-0.1,0.1c0.3-0.1,0.4-0.2,0.6-0.3
								c0.1-0.1,0.1-0.2,0.1-0.3c0-0.2-0.1-0.3-0.1-0.4c-0.1-0.3-0.5-0.5-1-0.4c-0.3,0-0.6,0.1-0.8,0.2c-0.2,0.1-0.3,0.1-0.5,0.3
								l-0.5,0.4c-2.9,2-5.6,3.9-7.8,5.4c-2.7,2.8-5.4,5.7-8.1,8.6c-3.5,3.8-6.8,7.6-10.1,11.4l-2.2,2.7l-2.1,2.6
								c-0.4,0.4-0.6,0.9-1.1,1.2c-0.5,0.3-1.1,0.1-1.6,0c-1.1-0.3-2.2-0.5-3.2-0.7c-0.8-0.2-1.6-0.3-2.3-0.4
								c-0.8-0.1-1.8-0.3-2.7-0.4c-1.8-0.2-3.7-0.4-5.5-0.5c-3.7-0.2-7.5-0.2-11.2,0.1c-3.3,0.2-8.4,1.1-13.4,2.6
								c-5,1.5-9.8,3.6-12.8,5.1c3.7-2.2,7.6-3.9,11.6-5.3c4-1.3,8-2.3,12.2-3c4.1-0.6,8.3-0.9,12.5-0.8c2.1,0,4.2,0.2,6.2,0.4
								c1,0.1,2.1,0.3,3.1,0.4c0.8,0.1,1.6,0.3,2.4,0.4c0.9,0.2,1.8,0.4,2.8,0.6c0.5,0.1,0.9,0.3,1.4,0.1c0.5-0.2,0.7-0.6,1-0.9
								l3.6-4.4c3.1-3.7,6.2-7.4,9.4-11c-0.5,0.5-1,0.9-1.6,1.4c-1.5,1.6-3,3.3-4.5,5l-4.3,4.9l-3.2,3.7c-0.2,0.3-0.6,0.6-1,0.6
								c-0.4,0-0.8-0.2-1.2-0.3c-0.8-0.2-1.6-0.4-2.4-0.6c-0.4-0.1-0.8-0.2-1.2-0.3l-0.6-0.1c-0.2,0-0.4-0.1-0.7-0.1
								c-1.2-0.2-2.4-0.4-3.5-0.5c-2.4-0.3-4.8-0.5-7.2-0.5c-2.4,0-4.9,0.1-7.4,0.2c2.5-0.2,5-0.3,7.4-0.2c2.4,0,4.7,0,7.1,0.2
								c1.2,0.1,2.4,0.2,3.6,0.3c0.5,0,0.9,0.1,1.4,0.1c0.4,0,0.8,0.1,1.2,0.1c1,0.1,2,0.3,3,0.5c0.3,0.1,0.7-0.1,0.9-0.3
								c0.2-0.2,0.5-0.5,0.7-0.7c0.5-0.5,1-1,1.5-1.5c0.5-0.5,1-1.1,1.6-1.6c0.7-0.8,1.4-1.6,2.1-2.3c2.2-2.5,4.7-4.4,7-6.5l4.1-4.4
								c0.3-0.5,0.7-1,1.1-1.5c0,0-0.1,0-0.1,0c-1.5,0.5-5.4,3.4-10.2,7.8c-1.2,1.1-2.5,2.3-3.7,3.5c-0.6,0.6-1.3,1.3-2,1.9
								c-0.2,0.2-0.2,0.2-0.4,0.3l-0.3,0.2l-0.6,0.5c-0.8,0.6-1.4,1.2-2.1,1.7c-0.2,0.1-0.5,0.1-0.7,0l-0.7-0.3
								c-0.5-0.2-0.9-0.4-1.3-0.5c-0.3-0.1-0.8-0.3-1.2-0.4l-0.3-0.1l-0.6-0.1L95,60c-1.8-0.3-3.5-0.6-5.2-0.8
								c-3.4-0.4-6.8-0.5-9.8-0.4c-6,0.2-10.6,1.2-12.7,1.8c-3.7,1.1-6.9,2.9-10.1,5c-3.2,2.1-6.3,4.4-9.7,6.9
								c-2.3,1.7-4.6,2.7-5.9,4.6c0.1,0.4-0.5,1.4-1.1,2.4c-1,1-1.9,2-2.9,3c-0.5,0.5-1,1.1-1.4,1.6c-0.5,0.5-1,1-1.4,1.6
								c-0.8,1.1-1.6,2.2-2.2,3.4c-0.3,0.6-0.6,1.2-0.7,1.8c-0.2,0.6-0.3,1.2-0.4,1.8c-0.2,0.8-0.8,1.8-1.7,3
								c-0.5,0.6-0.9,1.2-1.3,1.9c-0.5,0.7-1,1.3-1.4,2.1c-0.4,0.7-0.8,1.4-1.2,2.1c-0.4,0.7-0.6,1.3-0.8,1.9
								c-0.4,1.1-0.6,2-0.3,2.2c2.2,1.3,2.5,1.4,2.3,2.4c-0.1,0.5-0.3,1.1-0.4,2.2c-0.1,1.1,0,2.6,0.5,4.7c0.1,0.5,0.9,1.4,1.7,2.4
								c0.8,1,1.8,1.9,2.1,2.9c1.2,3.1,2.5,4.9,4.2,6.4c1.7,1.5,3.5,2.8,6.3,4.9c4.4,2.8,6.9,4.6,9.4,6.1c1.3,0.8,2.6,1.4,4,1.9
								c1.5,0.5,3.3,0.8,5.5,0.9c0.5,0.1,4.1,0.7,7.5,1c3.4,0.3,6.7,0.3,6.7,0.3c5,0.8,9.1,0.5,12.9,0.2c3.8-0.3,7.2-0.4,11.4,0.3
								c4.3-2.1,9.4-3.4,14.5-5.3c2.6-0.9,5.1-2,7.5-3.3c0.6-0.3,1.2-0.7,1.8-1c0.7-0.4,1.4-0.9,2.1-1.5c0.6-0.6,1.3-1.2,1.8-1.9
								c0.3-0.3,0.5-0.7,0.8-1c0.2-0.4,0.4-0.7,0.6-1.1c1.6-3,2.1-6.1,2.1-8.8c-0.1-2.7-0.7-5.2-1.7-7.4c-0.3-0.5-0.5-1.1-0.8-1.6
								c-0.3-0.5-0.6-1-0.9-1.5c-0.1-0.2-0.1-0.2-0.1-0.2l-0.1-0.2l-0.1-0.3c-0.1-0.2-0.2-0.4-0.2-0.6c-0.3-0.7-0.6-1.3-0.6-2.1
								c-0.3-0.8-0.7-1.5-0.1-2c0.4-0.3,0-0.6-0.2-1.2c-0.2-0.5-0.3-1.1,0.2-1.4c0.4,0.2,0.8,0.4,1.2,0.6c0.3-0.2,0.8-0.5,1.1-0.5
								c0.3-0.1,0.6,0.1,0.9,0.3c0.7,0.4,1.4,0.8,2.1,1c0.1,0,0.2,0,0.3,0.1c0.2,0,0.3,0.1,0.5,0.1l0,0c0.1,0,0.2-0.2,0.3-0.3
								l0.7-0.7l0.7-0.8c0.2-0.3,0.5-0.6,0.7-1c2-2.6,3.5-5.9,4.2-9.4c0.3-4-0.4-8.1-2-11.6c-1.6-3.5-4-6.5-6.7-8.6
								c-0.7,0.1-1.3,0.2-2.3-0.1c-0.8-0.5-1.6-0.9-2.5-1.3c-0.8-0.3-1.4-0.5-2-0.7c-1.2,0.7-1.6,1.9-2.3,2.4
								c-1.6,2.8-6.6,3.9-7.2,6.9c0,0.5,1.2,1.5,2.5,2.6c1.3,1.1,1.9,2.3,1.8,3.3c-0.1,0.3-0.5,0.4-0.9,0.6c-0.4,0.2-1,0.5-1.4,0.9
								c0.4,0.3,0.2,0.7-0.1,1c-0.3,0.3-0.9,0.5-1.3,0.8c-0.1,0.1-0.2,0.1-0.1,0.1c0,0-0.2,0.1-0.2,0.1c0.2-0.1,0.2-0.1,0.3-0.2
								c0,0,0.1,0,0.1,0c0,0,0,0-0.1,0c-0.1,0-0.2,0-0.5-0.3l0,0l-2.9-2.1l-0.1-0.1l-0.1-0.1c0,0,0,0-0.1,0l-0.2,0.1l-0.4,0.3
								l-1.8,1.2l-1.6,1.2c-2.4,2.1-4.1,4.3-5.3,6.8c-1.2,2.5-1.8,5.2-1.8,7.9c-0.1,1.5,0.2,3.6,0.8,5.5c0.6,2,1.6,3.8,2.6,5.1
								c0.2,0.3,0.5,0.8,0.7,1.3c0.2,0.5,0.5,1,0.8,1.6c0.2,0.5,0.5,1,0.8,1.5c0.1,0.2,0.2,0.4,0.3,0.6c0.1,0.2,0.3,0.3,0.4,0.5
								c2.6,1.1,3.5,0.1,5.1,0.1c0.8,0.8,1.7,1.8,3,2.8l0.5,0.4l0.2,0.2c0.1,0,0,0,0,0.1l0.1,0.2c0,0.2,0.1,0,0.3-0.1
								c0.5-0.3,0.7-0.3,0.6-0.3c0,0-0.3-0.1-0.6-0.3c-0.1,0-0.2-0.1-0.2-0.1c0,0,0.2,0.1,0.3,0.3c0.3,0.2,0.6,0.5,1,0.8
								c-0.1,0.1-0.2,0.1-0.2,0.3c-0.1,0.1-0.2,0.2-0.2,0.4l0,0.1c0,0-0.1,0.1-0.2,0.2c-0.1,0.1-0.2,0.3-0.3,0.4
								c-0.2,0.3-0.4,0.5-0.6,0.8c-0.8,1.1-1.6,2.2-3.5,3.2c-5,2.9-12.1,5.3-19.6,6.1c-4.1,0.7-8.1,0.7-12,0.3
								c-0.7,0-1.5-0.1-2.2-0.2c-0.7-0.1-1.4-0.2-2.1-0.3c-3.7-0.5-7.1-1.4-10.4-2.6c-1.6-0.6-3.2-1.3-4.8-2
								c-1.5-0.7-2.9-1.5-4.2-2.3c-2.6-1.7-5-3.7-7-5.9c-1.9-2.2-3.4-4.5-4.4-6.9c-2.1-4.8-2-10-0.1-15c0.5-1.3,1.1-2.5,1.8-3.7
								c0.7-1.2,1.6-2.4,2.6-3.7c2-2.5,4.3-4.8,7-7c5.5-4.5,12.8-7.5,20.2-9.2c3.7-0.8,7.5-1.3,11.4-1.3c1.9,0,3.8,0,5.7,0.2
								c1,0.1,1.9,0.2,2.9,0.3c1.2,0.2,2.4,0.3,3.6,0.6c1.8,0.3,3.6,0.5,5.3,0.7c0.4,0,0.9,0,1.3-0.2c0.4-0.2,0.7-0.5,1-0.8l1.8-1.9
								c0.6-0.6,1.2-1.4,1.7-2.1c0.6-0.7,1.2-1.4,1.7-2.1l1.5-1.8l1.4-1.6c3.7-4.3,7.5-8.4,11.2-12.3c3.8-3.9,7.5-7.5,11.2-10.9
								c0.5-0.4,0.9-0.8,1.4-1.3c0,0,0.1-0.1,0.1-0.1l0,0c0,0,0,0,0,0l-0.1-0.1c-0.1-0.1-0.2-0.2-0.3-0.3c-0.2-0.2-0.3-0.5-0.4-0.7
								c-0.2-0.4-0.3-0.8-0.3-0.9c0-0.1,0-0.1-0.2,0.3l0,0.1l-0.1,0.2c0,0,0.1-0.1,0.1-0.1c0.1-0.1,0.1-0.1,0.2-0.2
								c0.1-0.1,0.2-0.1,0.2-0.1c0,0-0.1,0.1-0.4,0c-0.3,0-0.7-0.1-1.2-0.3c-0.1-0.1-0.2-0.1-0.4-0.2l-0.2-0.1l0,0
								c0.6,0.4-0.8-0.6-0.7-0.5l0,0l-0.1,0.1l-0.5,0.7c-11.2,14-20.7,23.4-24.6,27.8L107.9,68.6z"/>
						</g>
					</g>
				</g>
			</g>
		</g>
		<g class="st3">
			<path class="st0" d="M64.8,116.8c-2-0.1-4.3-0.7-6.1-2.5c-2.2-2.1-2.3-5-0.2-7.2c3.4-3.7,10.9-3.8,14.3-0.1
				c2,2.2,1.8,5.2-0.4,7.3C70.6,115.9,67.9,116.8,64.8,116.8z M65.2,113.4c1.5-0.6,3-0.9,4.3-1.6c1.3-0.7,1.2-1.8,0.1-2.7
				c-2-1.6-6.4-1.4-8.2,0.3c-0.9,0.9-1,1.7,0,2.4C62.6,112.4,63.9,112.8,65.2,113.4z"/>
			<g>
				<path class="st4" d="M64.8,116.8c-2-0.1-4.3-0.7-6.1-2.5c-2.2-2.1-2.3-5-0.2-7.2c3.4-3.7,10.9-3.8,14.3-0.1
					c2,2.2,1.8,5.2-0.4,7.3C70.6,115.9,67.9,116.8,64.8,116.8z M65.2,113.4c1.5-0.6,3-0.9,4.3-1.6c1.3-0.7,1.2-1.8,0.1-2.7
					c-2-1.6-6.4-1.4-8.2,0.3c-0.9,0.9-1,1.7,0,2.4C62.6,112.4,63.9,112.8,65.2,113.4z"/>
				<g>
					<g>
						<g class="st1">
							<path class="st0" d="M61.9,121.2c0.5-1.7,0.3-2.9-0.2-3.9c-0.5-1-1.4-2-1.6-3c-0.1-0.3-0.4-0.6-0.5-1c-0.1-0.3-0.2-0.7-0.2-1
								c0-0.3,0.1-0.2,0.2,0.3c0,0.2,0.1,0.5,0.2,0.8c0.1,0.3,0.2,0.7,0.3,1c0.2,0.4,0.5,0.9,0.9,1.4c0-1.7,0.2-3.3,0.7-4.5
								c-0.1-0.2-0.1-0.4,0-0.4c-0.2,0.1-0.1,0,0.3,0.1c0.2,0.1,0.2,0,0.4,0c0.4-0.1,0.7,0,1.2,0.3c0.3,0.3,0.9,0.2,1.2,0.9
								c-0.5-0.1-0.9-0.1-1.2-0.2c-0.1,0-0.1,0-0.2-0.1c0,0-0.1,0-0.1,0l-0.1-0.1l-0.2-0.1c-0.1-0.1-0.2-0.2-0.3-0.2
								c-0.4-0.3-0.8-0.5-1-0.5c-0.2-0.1-0.3,0-0.2,0l0,0c0,0,0.1,0,0.5,0.1c0.3,0.1,0.8,0.4,1.2,0.8c0.2,0.2,0.5,0.4,0.7,0.7
								l0.1,0.1l0,0l0,0l0,0c-0.3-0.3,0.6,0.6-0.6-0.6l0,0l0,0l0,0l0.1,0.1c0.1,0.1,0.1,0.1,0.2,0.2c0.2,0.2,0.4,0.6,0.6,0.9l0,0.1
								c0,0,0,0,0,0l0,0c0,0,0.1,0.1,0.1,0.2l-0.1-0.1c0-0.1,0-0.1-0.1-0.2c-0.1-0.3-0.4-0.6-0.5-0.8c-0.1-0.1-0.2-0.2-0.3-0.3l0,0
								l0,0c1.3,1.3,0.3,0.4,0.6,0.6l0,0l0,0l0,0l0,0l0,0l0,0l-0.2-0.2l-0.4-0.3c-0.6-0.5-1.2-0.9-1.6-1c-0.3-0.1-0.4-0.1-0.4-0.1
								c0,0,0.1,0,0.3-0.1c0,0,0.1-0.1,0.1-0.1l0,0c0,0-0.2,0.1-0.3,0.2c-0.1,0.1-0.2,0.1-0.1,0.1c0.1,0,0.3,0,0.7,0.2
								c0.4,0.2,0.9,0.5,1.4,1c0.1,0.1,0.3,0.3,0.4,0.4l0,0.1l0,0l0,0l0,0c-1.3-1.3-0.3-0.4-0.6-0.6l0,0l0,0l0.1,0.1
								c0.1,0.1,0.2,0.3,0.3,0.4c0.3,0.3,0.4,0.6,0.6,0.9c0.3,0.6,0.5,1.1,0.6,1.4c0.1,0.4,0.2,0.7,0.3,1l0,0.1c0,0,0,0.1,0,0
								c0-0.2-0.1-0.3-0.1-0.5c0-0.3-0.1-0.5-0.1-0.6c0-0.1,0.1,0.6,0.1,0c0-0.4-0.1-0.7-0.1-1c0.1-0.2,0.3,1.2,0.3,0.1
								c0-0.2,0.1,1.2,0,2.6l0,0.2l0,0l0,0c0,0,0-0.1,0-0.1c0-0.1,0,0,0-0.1c0-0.1,0,0,0.1-0.5c0-0.1,0-0.2,0.1-0.4
								c0.1-0.5,0.1-0.7,0.3-1.3c0.2-0.5,0.3-0.8,0.4-1c0.1-0.3,0.2-0.5,0.5-0.9c0,0,0.2-0.3,0.4-0.5l0,0l0,0l0,0l0,0
								c0.5-0.6-0.7,0.8-0.6,0.7l0,0l0,0l0,0l0,0l0.1-0.1c0.1-0.1,0.2-0.2,0.2-0.3c0.1-0.1,0.2-0.2,0.2-0.2c0.5-0.5,1-0.8,1.3-1
								c0.3-0.1,0.5-0.1,0.5-0.1c0,0-0.1,0-0.2-0.1c0,0-0.1,0-0.1-0.1c-0.1,0-0.1-0.1-0.1-0.1c-0.1-0.1-0.2-0.2-0.3-0.3
								c-0.2-0.2-0.5-0.6-0.7-1l-0.1-0.1l0,0l-0.8-1.4l0,0l0,0l0,0l0,0l0,0l0,0c0,0-0.1,0-0.1,0c0,0-0.1,0-0.1,0.1
								c-0.1,0.6-1.1-1.3-1.9-3c-0.2-0.2-0.2,0-0.4-0.6c-0.2-0.5,0.1,1.1-0.1,0.8l-0.3-1.1c-0.1-0.1-0.2-0.2-0.3-0.3
								c-0.1-0.1-0.2-0.5-0.3-0.8c-0.2-0.7-0.4-1.5-0.7-2c-0.4-0.6-0.7-1-1.1-1.2c-0.1,0.6-0.1,1.3-0.2,2.1c0.2,0.5,0.3,1,0.4,1.4
								c0,0.3,0,0.6,0,0.9c0.3,1.1,0.8,2.3,1,3c1.1,3.1,1.9,6.2,3,9c0.3,0.8,0.7,1,1.4,2.4c0.2,0.4,0.5,1.5,0.8,2.6
								c0.2-0.1,0.6,1.1,0.8,2.2c0.1,0.1,0.1,0.2,0.1,0.2c0.1,0.4,0.5,1.5,0.5,1.5c0.4,0.6,1,1.6,1.4,2.1c0.5,0.6,0.9,0.8,1.1,0
								c0.1-0.2,0.1-1.1,0.1-1.8c0-0.3,0.4,0.3,0.6,0.3c-0.2-1.1-0.7-2.2-1.1-3.3c0.5,0.4,1.3,1,1.9,0.8c0.5-0.1,0.8-0.8-0.2-2.6
								c0.6-0.1,0-1.9,0.8-2.8c0.6-0.7,1.3-1.5,2-3c0.2-0.4,0.3-0.8,0.4-1.2c0.1-0.5,0.2-0.9,0.2-1.4c0-0.5,0-1,0-1.4
								c0-0.5-0.1-0.9-0.2-1.3c-0.7-1.7-1.3-2.6-1.9-3.3c-0.3-0.3-0.5-0.4-0.7-0.7c-0.5-0.4-1.1-0.9-1.6-1.3c-0.5-0.3-1-0.7-1.4-1
								c-0.9-0.6-1.7-1.1-2.6-1.4c-1.7-0.6-3.5-0.6-5,1.2c-1.5,1.9-2.7,2.9-4.4,4.4c-0.4,0.3-0.8,0.7-1.2,1.3
								c-0.4,0.6-0.9,1.4-1.1,2.7c-0.2,1.3,0.3,2.7,0.8,3.5c0.5,0.9,1,1.5,1.4,1.9c0.9,1.5,1.6,2.9,2,4.1c0.4,1.1,0.4,2,0.4,2.2
								L61.9,121.2z"/>
						</g>
					</g>
				</g>
				<g>
					<g>
						<g class="st1">
							<path class="st0" d="M65,108.3c0,0.4,0,0.8,0.2,1.2c0.1,0.4,0.3,0.7,0.5,0.9c0.4,0.5,0.9,0.9,1.5,1.2
								c1.1,0.5,2.1,0.5,3.1,0.7c0.7-0.1,1.2-0.1,1.6-0.1c0.5-0.1-0.3,0.4-1.6,0.1c-0.4,0-0.9,0.1-1.5,0c1.2,1.1,2.8,1.9,4.3,2.2
								c0.5-0.3,0.9-0.7,1.3-1.2c1-1,1.5-2.5,1.4-4.1c0-1.6-0.6-3.1-1.5-4.6c-0.3-0.5-0.9-1.2-1.6-1.8c-0.7-0.6-1.4-1.2-1.8-1.7
								c1,0.5,2.1,1.1,3,2c0.5,0.4,0.9,0.9,1.3,1.3c0.4,0.5,0.8,1.1,1.1,1.7c0.6,1.2,1,2.7,0.9,4c-0.1,1.4-0.5,2.7-1.2,3.8
								c0.1-0.1,0.3-0.2,0.4-0.2c0.8-1.1,1.4-2.6,1.5-4.2c0.1-1.6-0.3-3.3-1-4.8c-0.3-0.4-0.6-1-0.9-1.4c0.3,0.4,0.6,0.9,0.9,1.4
								c0.8,1.2,1.8,2.4,2.2,4.2c0.1,1.1-0.5,2.3-0.8,3.3c-0.3,0.8-1.2,1.2-1.9,1.6c-0.2,0.3-0.5,0.6-0.8,0.9c0,0.1,0,0.3-0.1,0.4
								c0,0,0,0,0,0c0.8,0.2,2,0,3.3-1.1c1.3-1.1,2.6-3.2,2.8-5.9c0.1-1.3,0-2.6-0.3-3.9c-0.3-1.2-0.8-2.3-1.3-3.2
								c-1-1.7-2-2.7-2.6-2.9c-0.9-0.4-2.1-0.3-3.1,0c-1.1,0.2-2,0.6-2.8,0.5c-0.5-0.1-0.8-0.9-1.3-0.4c-0.1,0.4-0.4,0.6-0.6,0.8
								c-0.9,0-1.8-1.6-2.6-0.5c-0.3,0.2-0.7-1.2-1.2-2.6c-0.5-1.4-1-2.6-1.1-2c-0.3,4.3,0,1.1-1.6,0.9c-0.2-0.1-0.5,1.7-0.9,1.6
								c-0.7-0.4-1-0.2-1.4,0.1c-0.3,0.4-0.6,0.9-1.1,1.4c-0.7,0.9-1.3,0.9-1.9,1c-0.6,0.1-1.2,0.4-1.2,2c0,0.2-0.3,1-0.6,1.8
								c-0.2,0.8-0.3,1.5-0.3,1.5c-0.8,0.6-1,1.5-1.3,2.2c-0.3,0.7-0.7,1.2-2.4,1.8c1,1.4,0.8,2.4,0.6,3.8c-0.2,1.3-0.2,2.9,0.6,3.8
								c0.8,0.9,1,1.6,1.1,2.7c0,1-0.1,2.2,0.2,3.6c0.3,0.6,0.8,0.7,0.8,1.3c0,0.7,1.6-0.3,2,0.2l-0.6,1c0.1,0.2,0.4,0.5,0.6,0.7
								c0.2,0.2,0,0.5-0.2,0.8c-0.4,0.7-0.8,1.3-0.6,2c0.7,1,1.5,1.8,2.5,2.4c1.2-0.3,2.2-0.8,3.2-1.4c0.1-0.5,0.2-1,0.4-1.5
								c0.3-0.3,0.5-0.5,0.8-0.8c0.2-1.1,0.3-2.4,0.5-3.2c0.1-1.6,0.5-3.2,0.7-4.8c0.2-1.6,0.3-3.1,0.3-4.6c0-0.4-0.1-0.7-0.2-1.1
								c-0.1-0.4-0.2-0.9-0.2-1.6c0-0.5,0.3-1.5,0.4-2.7c-0.1,0,0.1-1.3,0.3-2.3c0-0.1,0-0.2,0-0.2c0-0.2,0.1-0.7,0.1-0.7
								c-0.2,1-0.5,1.9-0.7,2.2c0,0-0.1,0.1-0.1,0.2c0,0,0,0,0,0l0,0l0,0l0,0l0,0l0,0l0,0l0,0l-1.3,1.4l-0.1,0.1
								c-0.2,0.2-0.4,0.4-0.5,0.5c-0.3,0.3-0.6,0.4-0.5,0.4c-0.3,0.2-0.4,0.2-0.6,0.2c-0.1,0-0.1,0,0,0c0.1,0,0.3,0,0.6,0.2
								c0.1,0.1,0.4,0.2,0.5,0.3c0.3,0.2,0.2,0.2,0.2,0.1c0,0,0-0.1,0-0.1c0-0.2,0.4-0.3,0.8-0.2c0.4,0,0.8,0.2,1.2,0.3
								c0.4,0.1,0.7,0.2,1.1,0.1c0.4-0.1,0.8-0.4,1.5-1c0.7-0.6,1.4-0.8,2-0.8c0.1,0,0.3,0,0.4,0.1c0.1,0,0.2,0.1,0.3,0.1
								c0.2,0.1,0.3,0.2,0.3,0.3c0.1,0.5-0.8,0.8-1.7,0.5c-0.9-0.3-1.9-1.1-2.5-1.9c-0.6-0.8-1-1.6-1.2-1.8
								C65.1,107.3,65.1,107.8,65,108.3z"/>
						</g>
					</g>
				</g>
			</g>
		</g>
		<g class="st3">
			<path class="st0" d="M88.2,115.5c1.9,0,3.8,0.5,5.4,1.8c2.6,2.2,2.6,5.7,0.2,8.1c-3,2.8-8.2,2.9-11.3,0.2c-2.5-2.2-2.5-5.7-0.1-8
				C84,116,86,115.5,88.2,115.5z M87.8,124.2c1.4-0.6,2.7-1.1,3.8-1.8c0.8-0.5,0.8-1.5,0.1-2.2c-1.7-1.8-5.8-1.7-7.4,0.1
				c-0.7,0.8-0.8,1.6,0.1,2.2C85.4,123.2,86.6,123.6,87.8,124.2z"/>
			<g>
				<path class="st4" d="M88.2,115.5c1.9,0,3.8,0.5,5.4,1.8c2.6,2.2,2.6,5.7,0.2,8.1c-3,2.8-8.2,2.9-11.3,0.2
					c-2.5-2.2-2.5-5.7-0.1-8C84,116,86,115.5,88.2,115.5z M87.8,124.2c1.4-0.6,2.7-1.1,3.8-1.8c0.8-0.5,0.8-1.5,0.1-2.2
					c-1.7-1.8-5.8-1.7-7.4,0.1c-0.7,0.8-0.8,1.6,0.1,2.2C85.4,123.2,86.6,123.6,87.8,124.2z"/>
				<g>
					<g>
						<g class="st1">
							<path class="st0" d="M84.1,131.9c0.6-1.7,0.5-2.9,0.2-3.9c-0.4-1-1.1-1.9-1.2-2.9c-0.1-0.1-0.1-0.3-0.1-0.4
								c0-0.1-0.2-0.3-0.2-0.5c-0.1-0.3-0.2-0.7-0.2-1c0-0.3,0.1-0.1,0.2,0.2c0,0.4,0.4,1.1,0.4,1.6c0.2,0.4,0.4,0.8,0.7,1.3
								c0.2-1.6,0.5-3.2,1-4.5c-0.1-0.2-0.1-0.3,0.1-0.4c-0.1,0,0,0,0.3,0c0.2,0,0.2,0,0.2,0l0.2,0c0.3,0,0.6,0.1,1,0.4
								c0.3,0.3,0.6,0.2,1,1l-0.4-0.2c-0.1,0-0.1,0-0.2-0.1c-0.1,0,0,0-0.2-0.1c-0.1-0.1-0.1-0.1-0.2-0.2l-0.1-0.1l0,0l0,0l0,0l0,0
								c0.1,0.1-0.2-0.1,0.2,0.1l0,0l0,0l-0.1-0.1c-0.3-0.2-0.5-0.4-0.8-0.5c-0.5-0.3-1-0.2-0.8-0.2l0,0c0,0,0.6,0,1.1,0.3
								c0.1,0.1,0.3,0.2,0.4,0.3c0.1,0.1,0.1,0.1,0.2,0.2l0,0l0,0l0,0l0,0c-0.1-0.1,0.2,0.1-0.2-0.1l0,0l0,0l0,0l0.1,0.1
								c0.1,0.1,0.1,0.1,0.2,0.2c0.1,0.1,0.2,0.2,0.2,0.3c0.1,0.1,0.2,0.3,0.3,0.5l-0.3-0.5c-0.1-0.1-0.1-0.2-0.2-0.3
								c0-0.1-0.1-0.1-0.2-0.2l-0.1-0.1l0,0l0,0l0,0l0,0l0.2,0.1l0,0l0,0l0,0l0,0l-0.1-0.1c-0.1-0.1-0.2-0.2-0.4-0.3
								c-0.3-0.2-0.7-0.4-1-0.4c-0.2,0-0.3,0-0.3,0c0,0,0.1,0,0.1-0.1c0,0,0.1,0,0.1-0.1l0,0c-0.1,0.1-0.3,0.2-0.2,0.1
								c0.1,0,0.7,0.1,1.3,0.5c0.4,0.2,0.7,0.6,0.9,1c0.3,0.4,0.4,0.8,0.5,1c0.2,0.5,0.4,1,0.4,1.4l0,0.2c0,0,0,0,0,0.1c0,0,0,0,0,0
								c0,0,0,0,0-0.1c-0.1-0.4-0.1-0.7-0.1-1c0.1-0.2,0.1,1.2,0.1,0.1c0-0.1,0,0.2,0,0.7c0,0.1,0,0.3,0,0.4l0,0.1l0,0l0,0l0,0
								c0-0.1,0-0.1,0-0.2c0-0.3,0-0.2,0-0.3c0,0,0-0.2,0-0.3c0.1-0.3,0.1-0.5,0.2-0.9c0.2-0.7,0.3-0.9,0.6-1.4c0,0,0.2-0.3,0.3-0.4
								c0.1-0.1,0.3-0.3,0.3-0.3c0.1-0.1,0.2-0.2,0.3-0.3l0.1-0.1c0.1,0,0.1-0.1,0.2-0.1c0.1-0.1,0.2-0.1,0.3-0.2
								c0.2-0.1,0.4-0.1,0.5-0.1c0.1,0,0.1,0,0.1,0c0,0-0.1,0-0.2-0.1c-0.1-0.1-0.1-0.1-0.2-0.2c0,0-0.1-0.1-0.1-0.1l0,0l0,0
								l-1.7-2.6l0,0l0,0l0,0l-0.1,0c-0.1-0.1-0.3-0.2-0.2,0c0,0.6-1.1-1.3-2.1-2.8c-0.2-0.2-0.2,0-0.5-0.5c-0.3-0.5,0.3,1.1,0,0.8
								l-0.4-1.1c-0.1-0.1-0.2-0.2-0.3-0.3c-0.1-0.1-0.2-0.4-0.4-0.8c-0.3-0.7-0.6-1.4-0.9-1.9c-0.4-0.5-0.8-0.9-1.1-1.2
								c0,0.6,0.1,1.3,0.1,2.1c0.2,0.5,0.4,1,0.5,1.4c0,0.3,0.1,0.6,0.1,0.9c0.4,1.1,1,2.2,1.3,2.9c1.3,3,2.5,6,3.8,8.7
								c0.4,0.8,0.8,0.9,1.5,2.3c0.2,0.4,0.6,1.4,1,2.5c0.1-0.1,0.6,1.1,1,2.1c0.1,0.1,0.1,0.1,0.1,0.1c0.1,0.4,0.6,1.4,0.6,1.4
								c0.9,1.2,2.5,3.6,2.5,2c0-0.2-0.1-1.1-0.2-1.7c0-0.3,0.4,0.2,0.5,0.3c-0.3-1-0.9-2.1-1.3-3.2c0.5,0.4,1.3,0.9,1.8,0.8
								c0.5-0.1,0.6-0.8-0.5-2.5c0.3-0.1,0.2-0.5,0.1-1l-0.1-0.4c0-0.1,0.1-0.3,0.1-0.5c0.1-0.3,0.2-0.6,0.5-0.9
								c0.7-0.8,1.6-2.1,2-3.7c0.4-1.6,0.3-3.3-0.2-4.5c-0.6-1.3-1.1-2.2-1.7-2.9c-0.2-0.3-0.5-0.5-0.7-0.7c-1.1-1-2-1.6-2.9-2.2
								c-0.8-0.6-1.7-1.1-2.5-1.4c-1.6-0.7-3.5-0.7-5,1.2c-1.4,2-2.6,3.1-4.1,4.7c-0.3,0.4-0.7,0.9-1,1.5c-0.3,0.6-0.7,1.5-0.7,2.5
								c0,1.1,0.3,2.2,0.8,3c0.2,0.4,0.5,0.8,0.8,1.1l0.2,0.2c0.1,0.1,0.1,0.2,0.1,0.2l0.1,0.3c0.7,1.4,1.2,2.8,1.4,3.9
								c0.2,1.1,0.2,1.9,0.2,2.2L84.1,131.9z"/>
						</g>
					</g>
				</g>
				<g>
					<g>
						<g class="st1">
							<path class="st0" d="M88.2,123.9c0-0.9-0.3-1.6-0.6-2.1c-0.3-0.5-0.7-0.9-1-1.2c-0.4-0.3-0.8-0.4-1.2-0.5
								c-0.2,0-0.4-0.1-0.7-0.1c-0.2,0-0.5-0.1-0.7-0.1c-0.5,0.1-0.9,0.2-1.4,0.2c-0.4,0.1,0.2-0.4,1.4-0.2c0.2,0,0.4,0,0.6-0.1
								c0.2,0,0.5,0,0.7,0c-1.3-1-2.9-1.6-4.4-1.7c-0.4,0.4-0.7,0.8-1,1.3c-0.7,1.1-1,2.5-0.8,3.8c0.1,1.4,0.7,2.7,1.4,4.1
								c0.3,0.5,0.8,1.1,1.5,1.7c0.6,0.6,1.3,1.1,1.7,1.7c-2-1-3.8-2.4-5-4.6c-1.2-2.1-1.3-4.9-0.4-7c-0.1,0.1-0.2,0.2-0.4,0.3
								c-0.6,1.1-0.9,2.5-0.9,4c0,1.4,0.4,2.9,1,4.2c0.3,0.4,0.5,0.8,0.8,1.3c-0.3-0.4-0.5-0.9-0.8-1.3c-0.7-1-1.7-2-2.1-3.5
								c-0.1-1,0.3-2.1,0.5-2.9c0.2-0.7,0.9-1.3,1.6-1.7c0.2-0.3,0.4-0.7,0.6-1c0-0.1,0-0.2,0-0.4c0,0,0,0,0,0
								c-0.8-0.1-1.9,0.3-3,1.5c-1.1,1.2-2,3.2-2.1,5.4c-0.1,2.3,0.6,4.6,1.5,6.2c0.5,0.8,1,1.5,1.4,1.9c0.4,0.4,0.8,0.7,1.1,0.9
								c0.9,0.4,2,0.2,3-0.1c1-0.3,2-0.6,2.8-0.5c0.5,0.1,0.8,0.8,1.3,0.4c0.1-0.4,0.4-0.6,0.6-0.9c0.5,0,0.9,0.4,1.3,0.6
								c0.4,0.2,0.9,0.3,1.3-0.2c0.3-0.2,0.7,1.2,1.3,2.6c0.6,1.3,1.2,2.6,1.3,2c0-4.3-0.1-1.1,1.6-1c0.2,0,0.4-1.8,0.8-1.7
								c1.4,0.7,1.4-0.8,2.4-1.8c0.6-1,1.2-1,1.8-1.2c0.6-0.2,1.1-0.5,0.9-2.1c0-0.2,0.2-1,0.3-1.8c0.1-0.8,0.1-1.6,0.1-1.6
								c0.7-0.7,0.7-1.6,0.8-2.3c0.1-0.7,0.5-1.2,2.1-1.9c-1.2-1.1-1.1-2-1-3.2c0.1-1.2,0.2-2.6-0.6-3.4c-0.8-0.7-0.9-1.5-0.9-2.5
								c-0.1-1,0.1-2.2-0.2-3.6c-0.3-0.6-0.8-0.6-0.8-1.3c-0.1-0.7-1.6,0.4-2-0.1l0.6-1c-0.2-0.2-0.5-0.5-0.6-0.7
								c-0.2-0.2,0-0.5,0.2-0.9c0.4-0.7,0.8-1.4,0.6-2.1c-0.7-1-1.6-1.7-2.6-2.3c-1.1,0.4-2.1,0.9-3,1.5c-0.1,0.5-0.2,1-0.3,1.5
								c-0.3,0.3-0.5,0.6-0.7,0.8c-0.2,1.2-0.2,2.4-0.3,3.2c-0.1,1.6-0.3,3.2-0.5,4.8c-0.2,1.6-0.2,3.1-0.2,4.6
								c0,0.4,0.1,0.7,0.2,1.1c0.1,0.4,0.3,0.8,0.3,1.6c0,0.5-0.2,1.5-0.3,2.7c0.1,0-0.1,1.3-0.2,2.3l0,0.1c0,0,0,0.1,0,0
								c0-0.1,0-0.1,0-0.1c0,0,0,0.2,0,0.2c0.2-1.9,0.6-2.8,0.7-2.9c0,0,0,0,0,0c0,0-0.1,0.1-0.1,0.1l-0.1,0.1l0,0.1l0,0
								c0.3-0.3,0.5-0.6,0.8-0.9c0-0.1,0.1-0.1,0.1-0.2c0.1-0.1,0.2-0.2,0.3-0.3c0.2-0.1,0.3-0.2,0.3-0.2c0.2-0.1,0.2-0.1,0.3-0.1
								c0.1,0,0.1,0-0.1,0c-0.1,0-0.3-0.1-0.4-0.2c-0.1,0-0.1-0.1-0.2-0.1c0,0-0.1-0.1-0.1-0.1c0,0,0,0,0,0c0,0,0,0-0.1,0
								c-0.1,0-0.2,0-0.3,0c-0.2-0.1-0.5-0.3-0.7-0.4c-0.2-0.1-0.4-0.2-0.6-0.1c-0.2,0.1-0.4,0.5-0.9,1.2c-0.5,0.7-1.2,0.9-1.7,0.9
								c-0.5,0-0.8-0.2-0.9-0.5c-0.1-0.3,0.1-0.6,0.4-0.7c0.3-0.1,0.7-0.1,1.1,0.1c0.2,0.1,0.4,0.2,0.6,0.3c0.2,0.1,0.4,0.3,0.6,0.5
								c0.2,0.2,0.3,0.4,0.4,0.6c0.1,0.1,0.1,0.3,0.2,0.6c0.2,0.5,0.2,0.9,0.3,1.2c0.1,0.3,0.2,0.6,0.2,0.7
								C88.2,124.9,88.2,124.4,88.2,123.9z"/>
						</g>
					</g>
				</g>
			</g>
		</g>
		<g class="st3">
			<path class="st0" d="M67.8,84.7c2,0,3.6,0.4,5,1.5c2,1.7,2.1,4.2,0.2,6c-2.6,2.4-7.7,2.5-10.4,0.2c-1.9-1.6-2-4.2,0-5.9
				C64.2,85.2,66,84.7,67.8,84.7z M68,87.1c-1.2,0.5-2.4,0.8-3.4,1.4c-0.8,0.5-0.8,1.2,0,1.9c1.5,1.3,5,1.2,6.4-0.2
				c0.6-0.6,0.7-1.3,0-1.7C70.1,87.9,69.1,87.6,68,87.1z"/>
			<g>
				<path class="st4" d="M67.8,84.7c2,0,3.6,0.4,5,1.5c2,1.7,2.1,4.2,0.2,6c-2.6,2.4-7.7,2.5-10.4,0.2c-1.9-1.6-2-4.2,0-5.9
					C64.2,85.2,66,84.7,67.8,84.7z M68,87.1c-1.2,0.5-2.4,0.8-3.4,1.4c-0.8,0.5-0.8,1.2,0,1.9c1.5,1.3,5,1.2,6.4-0.2
					c0.6-0.6,0.7-1.3,0-1.7C70.1,87.9,69.1,87.6,68,87.1z"/>
				<g>
					<g>
						<g class="st1">
							<path class="st0" d="M71.3,79.3c-0.6,1.7-0.5,2.8-0.2,3.8c0.3,0.9,0.9,1.8,1,2.7c0.1,0.4,0.6,1.1,0.5,1.8
								c0,0.3-0.1,0.1-0.2-0.2c0-0.2-0.1-0.4-0.2-0.7c0-0.1-0.1-0.1-0.1-0.2c0-0.1,0-0.1,0-0.2c0-0.1,0-0.3,0-0.4
								c-0.1-0.4-0.4-0.8-0.6-1.2c-0.2,1.6-0.5,3.2-0.9,4.4c0,0.1,0,0.1,0,0.2c0,0,0,0.1,0,0.1c0,0,0.1-0.1,0.1-0.1
								c0.1-0.1,0.1,0-0.2-0.1c-0.1,0-0.3-0.1-0.4-0.2c0,0-0.1,0-0.1-0.1l0,0c0,0,0,0-0.1,0c-0.2-0.1-0.5-0.2-0.9-0.6
								c-0.2-0.3-0.6-0.3-0.8-1l0.4,0.2c0.1,0,0.1,0.1,0.1,0.1c0,0,0.1,0,0.1,0.1c0,0,0,0,0,0l0.1,0.2c0.2,0.2,0.3,0.4,0.4,0.5
								c0.2,0.2,0.5,0.4,0.7,0.6c0.2,0.2,0.5,0.2,0.6,0.3c0.2,0,0.2,0,0.1,0l0,0c0,0-0.1,0-0.3,0c-0.2-0.1-0.5-0.2-0.7-0.4
								c-0.6-0.5-0.7-0.7-1.1-1.2c-0.1-0.2-0.2-0.3-0.3-0.5c0.1,0.2,0.2,0.4,0.3,0.5c0.1,0.2,0.3,0.4,0.4,0.6
								c0.1,0.2,0.3,0.3,0.6,0.5c0.3,0.3,0.7,0.5,0.9,0.5c0.2,0,0.3,0,0.2,0c0,0-0.1,0-0.2,0.1c0,0-0.1,0.1-0.1,0.1l0,0
								c0.1-0.1,0.3-0.2,0.3-0.2c-0.1,0-0.7-0.1-1.2-0.6c-0.9-0.7-1.3-2-1.5-2.3c-0.2-0.5-0.3-1-0.4-1.4c0-0.1,0-0.2,0-0.3
								c0,0.4,0.1,0.6,0.1,0.9c0,0.2-0.1-1.2-0.1-0.1c0,0.1,0-0.2,0-0.7c0-0.4,0-0.3,0-0.3l0,0c0,0.1,0,0.1,0,0.2c0,0.4,0,0.3,0,0.3
								c0,0,0,0.2,0,0.3c-0.1,0.4-0.1,0.5-0.2,1c-0.1,0.4-0.2,0.6-0.3,0.8c-0.1,0.2-0.2,0.4-0.3,0.7c0,0.1-0.2,0.3-0.3,0.4
								c0,0-0.1,0.1-0.1,0.1l-0.1,0.1l0,0l0,0l0,0l0,0l0.4-0.4l0,0l0,0l0,0l0,0c-0.1,0.1-0.2,0.2-0.2,0.2c-0.9,0.9-1.5,1.1-1.6,1.1
								c-0.1,0,0.2,0,0.5,0.4c0.1,0.1,0.2,0.2,0.3,0.3c0,0.1,0.1,0.1,0.1,0.2c0.5,0.8,0.9,1.6,1.4,2.4l0,0l0,0.1
								c0.1,0.1,0.2,0.2,0.2,0.1c0-0.5,1,1.4,1.8,3c0.2,0.2,0.2,0,0.4,0.6c0.3,0.5-0.2-1.1,0-0.8l0.4,1.1c0.1,0.1,0.2,0.2,0.3,0.3
								c0.1,0.1,0.2,0.4,0.3,0.8c0.3,0.7,0.5,1.5,0.8,2c0.4,0.6,0.7,1,1,1.2c0-0.6,0-1.3-0.1-2.1c-0.2-0.5-0.4-1-0.5-1.4
								c0-0.3-0.1-0.6-0.1-0.9c-0.4-1.1-0.9-2.3-1.1-3c-1.2-3.1-2.2-6.1-3.4-8.8c-0.3-0.8-0.7-1-1.3-2.4c-0.2-0.4-0.5-1.4-0.9-2.5
								c-0.1,0-0.6-1.1-0.9-2.1c-0.1-0.1-0.1-0.2-0.1-0.2c-0.1-0.4-0.5-1.5-0.5-1.5c-0.8-1.3-2.1-3.7-2.2-2.2c0,0.2,0.1,1.1,0.1,1.7
								c0,0.3-0.4-0.3-0.5-0.3c0.3,1,0.8,2.2,1.2,3.3c-0.4-0.4-1.2-1-1.6-0.9c-0.4,0.1-0.5,0.7,0.4,2.5c-0.3,0-0.2,0.5-0.1,1
								c0.2,0.5,0.1,1.1-0.4,1.6c-0.6,0.6-1.5,1.6-2.2,3.2C57.8,87,57.6,88,57.6,89c0,1,0.2,1.9,0.5,2.6c0.8,1.4,1.4,2.2,1.9,2.8
								c0.2,0.2,0.4,0.4,0.6,0.5c1.1,0.8,2,1.4,2.8,1.9c0.8,0.5,1.5,1,2.2,1.3c1.4,0.6,3.1,0.6,4.3-1.2c1.2-1.9,2.2-2.8,3.7-4.1
								c0.3-0.3,0.7-0.7,1.1-1.3c0.4-0.6,0.8-1.5,0.9-2.7c0-1.2-0.5-2.5-1-3.3c-0.1-0.2-0.3-0.4-0.4-0.6l-0.4-0.5l-0.2-0.2
								c-0.1-0.1-0.1-0.1-0.1-0.1l-0.1-0.2c-0.6-1.3-1.1-2.6-1.2-3.7C72,79.1,72,78.3,72,78L71.3,79.3z"/>
						</g>
					</g>
				</g>
				<g>
					<g>
						<g class="st1">
							<path class="st0" d="M67.9,93.2c0-0.9-0.1-1.6-0.4-2.2c-0.2-0.6-0.5-1-0.8-1.2c-0.3-0.3-0.7-0.5-1.1-0.6
								c-0.4-0.1-0.8-0.2-1.2-0.4c-0.4-0.1-0.8-0.1-1.3-0.1c-0.4,0,0.2-0.3,1.3,0.1c0.3,0.1,0.7,0,1.1,0.1c-1.1-1.1-2.6-1.9-4-2.2
								c-0.4,0.3-0.7,0.6-1,1c-0.7,0.9-1,2.3-0.8,3.5c0.2,1.3,0.8,2.5,1.6,3.6c0.2,0.4,0.8,0.9,1.4,1.4c0.6,0.5,1.2,0.9,1.5,1.4
								c-0.9-0.3-1.7-0.8-2.6-1.4c-0.8-0.6-1.6-1.3-2.2-2.3c-0.6-0.9-1.1-2.1-1.2-3.3c-0.1-1.2,0.1-2.4,0.6-3.4
								c-0.1,0.1-0.2,0.2-0.4,0.3c-0.6,1.1-1,2.5-0.9,3.9c0.1,1.4,0.6,2.8,1.4,4c0.3,0.3,0.6,0.7,0.8,1.1c-0.3-0.3-0.6-0.7-0.8-1.1
								c-0.8-0.9-1.8-1.7-2.4-3.2c-0.2-1,0.2-2.1,0.3-3c0.2-0.7,1-1.3,1.6-1.7c0.2-0.3,0.4-0.6,0.6-0.9c0-0.1,0-0.2,0-0.3
								c0,0,0,0,0,0c-0.8-0.2-2,0.1-3.1,1.3c-1.1,1.2-2,3.4-1.9,5.8c0.1,2.4,1.1,4.6,2.1,6c1,1.4,2,2.2,2.5,2.3
								c0.8,0.3,1.8-0.1,2.7-0.5c0.9-0.4,1.7-0.9,2.4-0.9c0.4,0,0.7,0.8,1.1,0.2c0.1-0.4,0.3-0.6,0.5-0.9c0.8-0.1,1.5,1.4,2.2,0.3
								c0.2-0.2,0.6,1.2,1.1,2.5c0.5,1.3,1.1,2.6,1.1,2c0-4.3-0.1-1.1,1.3-1c0.2,0.1,0.3-1.7,0.6-1.6c0.6,0.4,0.9,0.2,1.2-0.2
								c0.2-0.4,0.4-0.9,0.9-1.4c0.5-0.9,1.1-0.9,1.6-1c0.5-0.1,1-0.4,0.8-2c0-0.2,0.2-1,0.3-1.7c0.1-0.8,0.1-1.5,0.1-1.5
								c0.7-0.6,0.7-1.5,0.9-2.1c0.2-0.7,0.5-1.1,2.1-1.9c-1.2-1.2-1.2-2.1-1.2-3.3c0-1.2-0.1-2.6-0.9-3.2c-0.8-0.6-1-1.3-1-2.2
								c0-0.9,0-2.1-0.3-3.3c-0.3-0.5-0.8-0.5-0.8-1.2c0-0.3-0.4-0.2-0.8,0c-0.4,0.2-0.8,0.4-1,0.2L74,76c-0.1-0.1-0.4-0.4-0.6-0.6
								c-0.1-0.1,0-0.5,0.2-0.9c0.3-0.7,0.6-1.4,0.4-2.1c-0.7-0.9-1.4-1.6-2.2-2c-0.9,0.4-1.7,1-2.5,1.7c-0.1,0.5-0.1,1.1-0.3,1.5
								c-0.2,0.3-0.4,0.6-0.6,0.8c-0.1,1.2-0.1,2.4-0.2,3.2c0,1.6-0.2,3.3-0.4,4.8c-0.1,1.6-0.2,3.1-0.1,4.6c0,0.9,0.4,1.2,0.5,2.7
								c0,0.5-0.1,1.5-0.2,2.7c0.1,0,0,1.3-0.1,2.3c0,0.1,0,0.2,0,0.2c0,0.2-0.1,0.8-0.1,0.8c0.2-2.6,0.6-3.9,0.8-4.4
								c0-0.1,0.1-0.2,0.1-0.2c0,0,0,0,0,0l0,0c0,0.1-0.1,0.1-0.2,0.2l0,0l0,0l0.8-1l0.1-0.1c0.1-0.1,0.1-0.2,0.2-0.2
								c0.1-0.1,0.2-0.2,0.3-0.3c0,0,0.1,0,0.1-0.1c0.3-0.2,0.3-0.2,0.6-0.3c0.3-0.1,0.4,0,0-0.1c-0.2-0.1-0.4-0.2-0.8-0.4
								c-0.1-0.1-0.2-0.2-0.3-0.3l-0.2-0.2l-0.1-0.1l-0.1-0.1l0,0l0,0l0,0c-0.1-0.1,0.1,0.1,0.1,0.1l0,0l0,0
								c-0.1-0.1-0.2-0.2-0.3-0.4c-0.1-0.2-0.1-0.2-0.2-0.2c0,0-0.1-0.1-0.1-0.1c-0.2-0.1-0.4-0.3-0.6-0.5C68,87,67.8,86.9,67.6,87
								c-0.2,0.1-0.4,0.5-0.8,1.2c-0.4,0.7-1,1.1-1.4,1.2c-0.4,0.1-0.6,0.1-0.6,0c0.1,0-0.1,0-0.2,0c0,0,0,0,0.1,0
								c0.2,0,0.6,0.2,1.1,0.6l0.2,0.2l0.3,0.3c0.1,0.1,0.2,0.1,0.3,0.2c0.2,0.1,0.4,0.3,0.5,0.5c0.1,0.2,0.3,0.4,0.4,0.7
								c0.1,0.2,0.1,0.3,0.2,0.5c0.2,0.7,0.3,1.6,0.3,2.1C67.9,94.2,67.9,93.7,67.9,93.2z"/>
						</g>
					</g>
				</g>
			</g>
		</g>
	</g>
</g>
</svg>
