<?xml version="1.0" encoding="utf-8"?>
<!-- Generator: Adobe Illustrator 21.0.2, SVG Export Plug-In . SVG Version: 6.00 Build 0)  -->
<svg version="1.1" id="Layer_1" xmlns="http://www.w3.org/2000/svg" xmlns:xlink="http://www.w3.org/1999/xlink" x="0px" y="0px"
	 viewBox="0 0 64.8 64.9" style="enable-background:new 0 0 64.8 64.9;" xml:space="preserve">
<style type="text/css">
	.st0{fill:#56D7FE;}
</style>
<path class="st0" d="M32.4,64.9C14.5,64.9,0,50.3,0,32.4C0,14.5,14.6-0.1,32.5,0c17.9,0.1,32.4,14.6,32.3,32.6
	C64.7,50.4,50.2,64.9,32.4,64.9z M51.7,19c-0.1-0.1-0.2-0.2-0.3-0.3c-0.8,0.4-1.7,0.7-2.5,1.1c-1.3,0.6-2.4,0.5-3.7-0.4
	C40.6,16,34,18.5,32.7,24c-0.3,1.2-0.3,2.5-0.4,3.8c-6.6-0.5-12.1-3.4-16.6-8.5c-1.9,4.3-1,7.8,2.1,10.9c-1-0.3-2-0.6-3.2-0.9
	c0.2,4,2.4,6.5,5.8,8.1c-0.9,0-1.8,0-2.9,0c1.3,3.4,3.8,5.1,7.4,5.7c-3.5,2.7-7.2,3.6-11.3,3.5c0.4,0.4,0.9,0.7,1.3,0.9
	c5,2.6,10.4,3.2,15.9,2c10.3-2.3,17.8-11.6,17.9-22.1c0-1.1,0.3-1.9,1.2-2.6c1-0.8,1.8-1.8,2.6-2.8c-0.1-0.1-0.1-0.1-0.2-0.2
	c-1.2,0.3-2.4,0.6-3.6,0.9C49.8,21.5,50.7,20.2,51.7,19z"/>
</svg>
